<?xml version="1.0" encoding="UTF-8"?>
<svg xmlns="http://www.w3.org/2000/svg" xmlns:xlink="http://www.w3.org/1999/xlink" width="854" height="480" viewBox="0 0 854 480">
<defs>
<g>
<g id="glyph-0-0">
<path d="M 3.300781 0 L 2.941406 0 L 2.941406 -2.601562 C 2.941406 -2.929688 2.839844 -3.1875 2.636719 -3.378906 C 2.433594 -3.574219 2.171875 -3.671875 1.851562 -3.671875 C 1.625 -3.671875 1.402344 -3.609375 1.191406 -3.484375 C 0.976562 -3.359375 0.828125 -3.195312 0.75 -3 C 1.144531 -2.964844 1.414062 -2.820312 1.558594 -2.558594 C 1.398438 -2.527344 1.261719 -2.4375 1.140625 -2.296875 C 1.019531 -2.152344 0.960938 -1.992188 0.960938 -1.820312 L 0.960938 0 L 0.601562 0 L 0.601562 -1.808594 C 0.601562 -2.203125 0.773438 -2.46875 1.121094 -2.609375 C 0.898438 -2.714844 0.648438 -2.753906 0.359375 -2.71875 C 0.414062 -3.09375 0.582031 -3.398438 0.863281 -3.640625 C 1.148438 -3.878906 1.484375 -4 1.871094 -4 C 2.304688 -4 2.648438 -3.878906 2.910156 -3.640625 C 3.171875 -3.398438 3.300781 -3.070312 3.300781 -2.648438 Z "/>
</g>
<g id="glyph-0-1">
<path d="M 1.148438 -0.28125 C 1.148438 -0.1875 1.113281 -0.105469 1.046875 -0.0390625 C 0.976562 0.0273438 0.894531 0.0585938 0.800781 0.0585938 C 0.707031 0.0585938 0.625 0.0273438 0.558594 -0.0390625 C 0.492188 -0.105469 0.460938 -0.1875 0.460938 -0.28125 C 0.460938 -0.375 0.492188 -0.453125 0.558594 -0.523438 C 0.625 -0.59375 0.707031 -0.628906 0.800781 -0.628906 C 0.894531 -0.628906 0.976562 -0.59375 1.046875 -0.523438 C 1.113281 -0.453125 1.148438 -0.375 1.148438 -0.28125 Z "/>
</g>
<g id="glyph-0-2">
</g>
<g id="glyph-0-3">
<path d="M 2.539062 -0.578125 C 2.539062 -0.398438 2.480469 -0.246094 2.359375 -0.113281 C 2.238281 0.015625 2.078125 0.078125 1.878906 0.078125 C 1.699219 0.078125 1.546875 0.015625 1.414062 -0.117188 C 1.285156 -0.246094 1.21875 -0.402344 1.21875 -0.585938 C 1.21875 -0.765625 1.285156 -0.921875 1.414062 -1.054688 C 1.546875 -1.183594 1.699219 -1.25 1.878906 -1.25 C 1.992188 -1.25 2.09375 -1.226562 2.179688 -1.179688 L 2.179688 -2.21875 C 2.179688 -2.492188 1.535156 -2.734375 0.25 -2.941406 C 0.289062 -3.648438 0.613281 -4 1.21875 -4 C 1.359375 -4 1.558594 -3.964844 1.816406 -3.894531 C 2.070312 -3.824219 2.257812 -3.789062 2.371094 -3.789062 C 2.4375 -3.789062 2.5 -3.867188 2.558594 -4.019531 L 2.871094 -3.941406 C 2.769531 -3.621094 2.601562 -3.460938 2.359375 -3.460938 C 2.21875 -3.460938 2.019531 -3.496094 1.753906 -3.566406 C 1.492188 -3.636719 1.292969 -3.671875 1.160156 -3.671875 C 1.039062 -3.671875 0.929688 -3.621094 0.824219 -3.519531 C 0.722656 -3.417969 0.667969 -3.3125 0.660156 -3.210938 C 1.085938 -3.136719 1.507812 -3.027344 1.921875 -2.878906 C 2.332031 -2.734375 2.539062 -2.523438 2.539062 -2.25 L 2.539062 -0.578125 M 2.21875 -0.585938 C 2.21875 -0.675781 2.1875 -0.753906 2.121094 -0.820312 C 2.054688 -0.886719 1.976562 -0.921875 1.886719 -0.921875 C 1.792969 -0.921875 1.714844 -0.886719 1.648438 -0.820312 C 1.582031 -0.753906 1.550781 -0.675781 1.550781 -0.585938 C 1.550781 -0.492188 1.582031 -0.414062 1.648438 -0.347656 C 1.714844 -0.28125 1.792969 -0.25 1.886719 -0.25 C 1.976562 -0.25 2.054688 -0.28125 2.121094 -0.347656 C 2.1875 -0.414062 2.21875 -0.492188 2.21875 -0.585938 Z "/>
</g>
<g id="glyph-0-4">
<path d="M 3.03125 -3.820312 C 3.015625 -3.367188 2.878906 -2.996094 2.621094 -2.703125 C 2.359375 -2.414062 2.023438 -2.269531 1.609375 -2.269531 C 1.269531 -2.269531 0.984375 -2.332031 0.75 -2.460938 C 0.457031 -2.613281 0.308594 -2.84375 0.308594 -3.148438 C 0.308594 -3.324219 0.371094 -3.472656 0.5 -3.601562 C 0.625 -3.726562 0.773438 -3.789062 0.945312 -3.789062 C 1.117188 -3.789062 1.265625 -3.726562 1.390625 -3.601562 C 1.515625 -3.472656 1.578125 -3.324219 1.578125 -3.148438 C 1.578125 -2.921875 1.484375 -2.746094 1.296875 -2.621094 C 1.40625 -2.59375 1.488281 -2.578125 1.550781 -2.578125 C 1.910156 -2.59375 2.183594 -2.710938 2.371094 -2.933594 C 2.554688 -3.160156 2.65625 -3.453125 2.671875 -3.820312 L 3.03125 -3.820312 M 1.25 -3.144531 C 1.25 -3.238281 1.21875 -3.3125 1.160156 -3.371094 C 1.101562 -3.429688 1.023438 -3.460938 0.929688 -3.460938 C 0.835938 -3.460938 0.761719 -3.429688 0.703125 -3.371094 C 0.648438 -3.3125 0.621094 -3.238281 0.621094 -3.144531 C 0.621094 -3.054688 0.648438 -2.980469 0.703125 -2.921875 C 0.761719 -2.867188 0.835938 -2.839844 0.929688 -2.839844 C 1.023438 -2.839844 1.101562 -2.867188 1.160156 -2.921875 C 1.21875 -2.980469 1.25 -3.054688 1.25 -3.144531 M 3.03125 -1.710938 C 3.015625 -1.253906 2.878906 -0.878906 2.621094 -0.585938 C 2.359375 -0.296875 2.023438 -0.148438 1.609375 -0.148438 C 1.269531 -0.148438 0.984375 -0.214844 0.75 -0.339844 C 0.457031 -0.496094 0.308594 -0.726562 0.308594 -1.035156 C 0.308594 -1.210938 0.371094 -1.359375 0.5 -1.488281 C 0.625 -1.617188 0.773438 -1.679688 0.945312 -1.679688 C 1.117188 -1.679688 1.265625 -1.617188 1.390625 -1.488281 C 1.515625 -1.359375 1.578125 -1.210938 1.578125 -1.035156 C 1.578125 -0.804688 1.484375 -0.628906 1.296875 -0.5 C 1.40625 -0.472656 1.488281 -0.460938 1.550781 -0.460938 C 1.910156 -0.472656 2.183594 -0.59375 2.371094 -0.816406 C 2.554688 -1.042969 2.65625 -1.339844 2.671875 -1.710938 L 3.03125 -1.710938 M 1.25 -1.03125 C 1.25 -1.125 1.21875 -1.199219 1.160156 -1.261719 C 1.101562 -1.320312 1.023438 -1.351562 0.929688 -1.351562 C 0.835938 -1.351562 0.761719 -1.320312 0.703125 -1.261719 C 0.648438 -1.199219 0.621094 -1.125 0.621094 -1.03125 C 0.621094 -0.9375 0.648438 -0.863281 0.703125 -0.804688 C 0.761719 -0.75 0.835938 -0.71875 0.929688 -0.71875 C 1.023438 -0.71875 1.101562 -0.75 1.160156 -0.804688 C 1.21875 -0.863281 1.25 -0.9375 1.25 -1.03125 Z "/>
</g>
<g id="glyph-0-5">
<path d="M 3.191406 -0.890625 C 3.191406 -0.242188 2.738281 0.078125 1.839844 0.078125 C 0.933594 0.078125 0.480469 -0.242188 0.480469 -0.890625 L 0.480469 -1.398438 C 0.480469 -1.554688 0.523438 -1.699219 0.613281 -1.839844 C 0.703125 -1.980469 0.816406 -2.078125 0.949219 -2.128906 C 0.597656 -2.285156 0.421875 -2.613281 0.421875 -3.121094 C 0.421875 -3.378906 0.496094 -3.589844 0.644531 -3.753906 C 0.796875 -3.917969 1.003906 -4 1.269531 -4 C 1.4375 -4 1.574219 -3.941406 1.679688 -3.828125 C 1.785156 -3.714844 1.839844 -3.582031 1.839844 -3.429688 C 1.839844 -3.277344 1.789062 -3.144531 1.691406 -3.035156 C 1.589844 -2.925781 1.449219 -2.871094 1.269531 -2.871094 C 1.023438 -2.871094 0.851562 -2.980469 0.75 -3.199219 C 0.742188 -3.179688 0.738281 -3.125 0.738281 -3.039062 C 0.738281 -2.851562 0.796875 -2.679688 0.914062 -2.523438 C 1.03125 -2.367188 1.183594 -2.289062 1.371094 -2.289062 L 1.941406 -2.289062 L 1.941406 -1.960938 L 1.359375 -1.960938 C 1.214844 -1.960938 1.089844 -1.90625 0.988281 -1.800781 C 0.890625 -1.691406 0.839844 -1.554688 0.839844 -1.378906 L 0.839844 -0.921875 C 0.839844 -0.472656 1.171875 -0.25 1.839844 -0.25 C 2.5 -0.25 2.828125 -0.472656 2.828125 -0.921875 L 2.828125 -3.921875 L 3.191406 -3.921875 L 3.191406 -0.890625 M 1.578125 -3.429688 C 1.578125 -3.523438 1.550781 -3.601562 1.488281 -3.660156 C 1.429688 -3.71875 1.351562 -3.75 1.261719 -3.75 C 1.167969 -3.75 1.089844 -3.71875 1.035156 -3.660156 C 0.976562 -3.601562 0.949219 -3.523438 0.949219 -3.429688 C 0.949219 -3.222656 1.054688 -3.121094 1.261719 -3.121094 C 1.351562 -3.121094 1.429688 -3.148438 1.488281 -3.203125 C 1.550781 -3.261719 1.578125 -3.335938 1.578125 -3.429688 Z "/>
</g>
<g id="glyph-0-6">
<path d="M 3.738281 0 L 3.378906 0 L 3.378906 -3.199219 C 3.378906 -3.5 3.285156 -3.648438 3.089844 -3.648438 C 2.96875 -3.648438 2.867188 -3.5625 2.78125 -3.390625 L 1.511719 0 L 1.128906 0 L 1.128906 -2.753906 C 1.042969 -2.703125 0.941406 -2.679688 0.828125 -2.679688 C 0.648438 -2.679688 0.496094 -2.746094 0.363281 -2.875 C 0.234375 -3.003906 0.171875 -3.160156 0.171875 -3.339844 C 0.171875 -3.519531 0.234375 -3.675781 0.363281 -3.804688 C 0.496094 -3.933594 0.648438 -4 0.828125 -4 C 1.011719 -4 1.164062 -3.933594 1.296875 -3.804688 C 1.425781 -3.675781 1.488281 -3.519531 1.488281 -3.339844 L 1.488281 -1.378906 C 1.476562 -1.074219 1.460938 -0.851562 1.441406 -0.71875 C 1.480469 -0.851562 1.539062 -1.039062 1.621094 -1.28125 L 2.429688 -3.441406 C 2.570312 -3.8125 2.800781 -4 3.121094 -4 C 3.535156 -4 3.738281 -3.734375 3.738281 -3.199219 L 3.738281 0 M 1.171875 -3.34375 C 1.171875 -3.4375 1.136719 -3.515625 1.070312 -3.582031 C 1.003906 -3.648438 0.925781 -3.679688 0.835938 -3.679688 C 0.742188 -3.679688 0.664062 -3.648438 0.597656 -3.582031 C 0.53125 -3.515625 0.5 -3.4375 0.5 -3.34375 C 0.5 -3.253906 0.53125 -3.175781 0.597656 -3.109375 C 0.664062 -3.042969 0.742188 -3.011719 0.835938 -3.011719 C 0.925781 -3.011719 1.003906 -3.042969 1.070312 -3.109375 C 1.136719 -3.175781 1.171875 -3.253906 1.171875 -3.34375 Z "/>
</g>
<g id="glyph-0-7">
<path d="M 2.601562 0 L 2.238281 0 L 2.238281 -2.980469 C 2.238281 -3.179688 2.164062 -3.347656 2.015625 -3.476562 C 1.863281 -3.605469 1.660156 -3.671875 1.398438 -3.671875 C 1.167969 -3.671875 0.980469 -3.589844 0.839844 -3.433594 C 0.699219 -3.277344 0.625 -3.109375 0.609375 -2.929688 L 0.238281 -2.929688 C 0.246094 -3.210938 0.359375 -3.457031 0.574219 -3.675781 C 0.792969 -3.890625 1.070312 -4 1.410156 -4 C 1.796875 -4 2.089844 -3.90625 2.296875 -3.71875 C 2.5 -3.535156 2.601562 -3.285156 2.601562 -2.980469 Z "/>
</g>
<g id="glyph-0-8">
<path d="M 2.378906 0 L 2.019531 0 L 0.160156 -2.078125 L 0.359375 -2.308594 L 2.019531 -0.511719 L 2.019531 -2.75 C 1.925781 -2.703125 1.824219 -2.679688 1.710938 -2.679688 C 1.53125 -2.679688 1.375 -2.746094 1.246094 -2.875 C 1.113281 -3.003906 1.050781 -3.15625 1.050781 -3.328125 C 1.050781 -3.523438 1.113281 -3.683594 1.238281 -3.808594 C 1.367188 -3.9375 1.523438 -4 1.710938 -4 C 1.921875 -4 2.09375 -3.929688 2.21875 -3.789062 C 2.328125 -3.664062 2.378906 -3.511719 2.378906 -3.328125 L 2.378906 0 M 2.050781 -3.351562 C 2.050781 -3.441406 2.015625 -3.523438 1.953125 -3.589844 C 1.886719 -3.65625 1.808594 -3.691406 1.714844 -3.691406 C 1.621094 -3.691406 1.542969 -3.65625 1.480469 -3.589844 C 1.414062 -3.523438 1.378906 -3.441406 1.378906 -3.351562 C 1.378906 -3.257812 1.414062 -3.175781 1.480469 -3.109375 C 1.542969 -3.042969 1.621094 -3.011719 1.714844 -3.011719 C 1.808594 -3.011719 1.886719 -3.042969 1.953125 -3.109375 C 2.015625 -3.175781 2.050781 -3.257812 2.050781 -3.351562 Z "/>
</g>
<g id="glyph-0-9">
<path d="M 1.878906 -0.621094 C 1.878906 -0.433594 1.816406 -0.273438 1.683594 -0.140625 C 1.554688 -0.0078125 1.398438 0.0585938 1.210938 0.0585938 C 1.003906 0.0585938 0.832031 -0.0117188 0.699219 -0.160156 C 0.585938 -0.285156 0.53125 -0.441406 0.53125 -0.621094 L 0.53125 -4 L 0.890625 -4 L 0.890625 -1.210938 C 0.984375 -1.261719 1.089844 -1.289062 1.210938 -1.289062 C 1.398438 -1.289062 1.554688 -1.226562 1.683594 -1.09375 C 1.816406 -0.964844 1.878906 -0.808594 1.878906 -0.621094 M 1.550781 -0.613281 C 1.550781 -0.710938 1.515625 -0.789062 1.449219 -0.859375 C 1.382812 -0.925781 1.304688 -0.960938 1.210938 -0.960938 C 1.117188 -0.960938 1.035156 -0.925781 0.96875 -0.859375 C 0.902344 -0.789062 0.871094 -0.710938 0.871094 -0.613281 C 0.871094 -0.519531 0.902344 -0.4375 0.96875 -0.371094 C 1.035156 -0.304688 1.117188 -0.269531 1.210938 -0.269531 C 1.304688 -0.269531 1.382812 -0.304688 1.449219 -0.371094 C 1.515625 -0.4375 1.550781 -0.519531 1.550781 -0.613281 M 3.609375 -0.621094 C 3.609375 -0.433594 3.546875 -0.273438 3.414062 -0.140625 C 3.285156 -0.0078125 3.125 0.0585938 2.941406 0.0585938 C 2.734375 0.0585938 2.5625 -0.0117188 2.429688 -0.160156 C 2.316406 -0.285156 2.261719 -0.441406 2.261719 -0.621094 L 2.261719 -4 L 2.621094 -4 L 2.621094 -1.210938 C 2.714844 -1.261719 2.820312 -1.289062 2.941406 -1.289062 C 3.125 -1.289062 3.285156 -1.226562 3.414062 -1.09375 C 3.546875 -0.964844 3.609375 -0.808594 3.609375 -0.621094 M 3.28125 -0.613281 C 3.28125 -0.710938 3.246094 -0.789062 3.179688 -0.859375 C 3.113281 -0.925781 3.035156 -0.960938 2.941406 -0.960938 C 2.847656 -0.960938 2.765625 -0.925781 2.699219 -0.859375 C 2.632812 -0.789062 2.601562 -0.710938 2.601562 -0.613281 C 2.601562 -0.519531 2.632812 -0.4375 2.699219 -0.371094 C 2.765625 -0.304688 2.847656 -0.269531 2.941406 -0.269531 C 3.035156 -0.269531 3.113281 -0.304688 3.179688 -0.371094 C 3.246094 -0.4375 3.28125 -0.519531 3.28125 -0.613281 Z "/>
</g>
<g id="glyph-0-10">
<path d="M 3.851562 -0.570312 C 3.851562 -0.390625 3.785156 -0.238281 3.652344 -0.109375 C 3.523438 0.015625 3.367188 0.078125 3.183594 0.078125 C 3.003906 0.078125 2.847656 0.015625 2.722656 -0.109375 C 2.59375 -0.238281 2.53125 -0.390625 2.53125 -0.570312 L 2.53125 -0.640625 C 2.117188 -0.472656 1.796875 -0.261719 1.570312 0 L 1.128906 0 L 1.128906 -2.753906 C 1.042969 -2.703125 0.941406 -2.679688 0.828125 -2.679688 C 0.648438 -2.679688 0.496094 -2.746094 0.363281 -2.875 C 0.234375 -3.003906 0.171875 -3.160156 0.171875 -3.339844 C 0.171875 -3.519531 0.234375 -3.675781 0.363281 -3.804688 C 0.496094 -3.933594 0.648438 -4 0.828125 -4 C 1.011719 -4 1.164062 -3.933594 1.296875 -3.804688 C 1.425781 -3.675781 1.488281 -3.519531 1.488281 -3.339844 L 1.488281 -0.390625 C 1.625 -0.535156 1.859375 -0.6875 2.199219 -0.839844 C 2.578125 -1.011719 2.828125 -1.148438 2.941406 -1.238281 C 3.167969 -1.421875 3.28125 -1.648438 3.28125 -1.929688 L 3.28125 -3.921875 L 3.640625 -3.921875 L 3.640625 -1.878906 C 3.640625 -1.558594 3.566406 -1.328125 3.421875 -1.179688 C 3.707031 -1.066406 3.851562 -0.863281 3.851562 -0.570312 M 1.171875 -3.339844 C 1.171875 -3.429688 1.136719 -3.507812 1.070312 -3.574219 C 1.003906 -3.636719 0.925781 -3.671875 0.835938 -3.671875 C 0.742188 -3.671875 0.664062 -3.636719 0.597656 -3.574219 C 0.53125 -3.507812 0.5 -3.429688 0.5 -3.339844 C 0.5 -3.25 0.53125 -3.171875 0.597656 -3.105469 C 0.664062 -3.042969 0.742188 -3.011719 0.835938 -3.011719 C 0.925781 -3.011719 1.003906 -3.042969 1.070312 -3.105469 C 1.136719 -3.171875 1.171875 -3.25 1.171875 -3.339844 M 3.519531 -0.589844 C 3.519531 -0.683594 3.488281 -0.761719 3.421875 -0.828125 C 3.351562 -0.898438 3.273438 -0.929688 3.179688 -0.929688 C 3.085938 -0.929688 3.007812 -0.898438 2.941406 -0.828125 C 2.875 -0.761719 2.839844 -0.683594 2.839844 -0.589844 C 2.839844 -0.496094 2.875 -0.417969 2.941406 -0.351562 C 3.007812 -0.285156 3.085938 -0.25 3.179688 -0.25 C 3.273438 -0.25 3.351562 -0.285156 3.421875 -0.351562 C 3.488281 -0.417969 3.519531 -0.496094 3.519531 -0.589844 Z "/>
</g>
<g id="glyph-0-11">
<path d="M 2.789062 -0.578125 C 2.789062 -0.398438 2.726562 -0.246094 2.59375 -0.113281 C 2.464844 0.015625 2.308594 0.078125 2.128906 0.078125 C 1.949219 0.078125 1.796875 0.015625 1.664062 -0.117188 C 1.535156 -0.246094 1.46875 -0.402344 1.46875 -0.585938 C 1.46875 -0.765625 1.535156 -0.921875 1.664062 -1.054688 C 1.796875 -1.183594 1.949219 -1.25 2.128906 -1.25 C 2.242188 -1.25 2.34375 -1.226562 2.429688 -1.179688 L 2.429688 -2.785156 C 2.429688 -3.375 2.101562 -3.671875 1.441406 -3.671875 C 0.914062 -3.671875 0.589844 -3.429688 0.460938 -2.949219 L 0.101562 -2.949219 C 0.246094 -3.648438 0.699219 -4 1.460938 -4 C 1.839844 -4 2.15625 -3.898438 2.410156 -3.699219 C 2.664062 -3.5 2.789062 -3.214844 2.789062 -2.851562 L 2.789062 -0.578125 M 2.46875 -0.585938 C 2.46875 -0.675781 2.4375 -0.753906 2.371094 -0.820312 C 2.304688 -0.886719 2.226562 -0.921875 2.136719 -0.921875 C 2.042969 -0.921875 1.964844 -0.886719 1.898438 -0.820312 C 1.832031 -0.753906 1.800781 -0.675781 1.800781 -0.585938 C 1.800781 -0.492188 1.832031 -0.414062 1.898438 -0.347656 C 1.964844 -0.28125 2.042969 -0.25 2.136719 -0.25 C 2.226562 -0.25 2.304688 -0.28125 2.371094 -0.347656 C 2.4375 -0.414062 2.46875 -0.492188 2.46875 -0.585938 Z "/>
</g>
<g id="glyph-0-12">
<path d="M 3.71875 -0.851562 C 3.71875 -0.230469 3.289062 0.078125 2.429688 0.078125 C 1.5625 0.078125 1.128906 -0.230469 1.128906 -0.851562 L 1.128906 -2.753906 C 1.042969 -2.703125 0.941406 -2.679688 0.828125 -2.679688 C 0.648438 -2.679688 0.496094 -2.746094 0.363281 -2.875 C 0.234375 -3.003906 0.171875 -3.160156 0.171875 -3.339844 C 0.171875 -3.519531 0.234375 -3.675781 0.363281 -3.804688 C 0.496094 -3.933594 0.648438 -4 0.828125 -4 C 1.011719 -4 1.164062 -3.933594 1.296875 -3.804688 C 1.425781 -3.675781 1.488281 -3.519531 1.488281 -3.339844 L 1.488281 -0.878906 C 1.488281 -0.460938 1.804688 -0.25 2.429688 -0.25 C 3.050781 -0.25 3.359375 -0.460938 3.359375 -0.878906 L 3.359375 -3.921875 L 3.71875 -3.921875 L 3.71875 -0.851562 M 1.171875 -3.339844 C 1.171875 -3.429688 1.136719 -3.507812 1.070312 -3.574219 C 1.003906 -3.636719 0.925781 -3.671875 0.835938 -3.671875 C 0.742188 -3.671875 0.664062 -3.636719 0.597656 -3.574219 C 0.53125 -3.507812 0.5 -3.429688 0.5 -3.339844 C 0.5 -3.25 0.53125 -3.171875 0.597656 -3.105469 C 0.664062 -3.042969 0.742188 -3.011719 0.835938 -3.011719 C 0.925781 -3.011719 1.003906 -3.042969 1.070312 -3.105469 C 1.136719 -3.171875 1.171875 -3.25 1.171875 -3.339844 Z "/>
</g>
</g>
</defs>
<g fill="rgb(100%, 100%, 100%)" fill-opacity="1">
<use xlink:href="#glyph-0-0" x="30" y="28.44043"/>
<use xlink:href="#glyph-0-1" x="34" y="28.44043"/>
<use xlink:href="#glyph-0-2" x="36" y="28.44043"/>
<use xlink:href="#glyph-0-3" x="38" y="28.44043"/>
<use xlink:href="#glyph-0-4" x="41" y="28.44043"/>
<use xlink:href="#glyph-0-5" x="45" y="28.44043"/>
<use xlink:href="#glyph-0-4" x="49" y="28.44043"/>
<use xlink:href="#glyph-0-6" x="53" y="28.44043"/>
<use xlink:href="#glyph-0-7" x="57" y="28.44043"/>
<use xlink:href="#glyph-0-8" x="60" y="28.44043"/>
<use xlink:href="#glyph-0-9" x="63" y="28.44043"/>
<use xlink:href="#glyph-0-10" x="67" y="28.44043"/>
<use xlink:href="#glyph-0-11" x="71" y="28.44043"/>
<use xlink:href="#glyph-0-3" x="74" y="28.44043"/>
<use xlink:href="#glyph-0-7" x="77" y="28.44043"/>
<use xlink:href="#glyph-0-12" x="80" y="28.44043"/>
</g>
</svg>
