<?xml version="1.0" encoding="UTF-8"?>
<svg xmlns="http://www.w3.org/2000/svg" xmlns:xlink="http://www.w3.org/1999/xlink" width="1080" height="1920" viewBox="0 0 1080 1920">
<defs>
<g>
<g id="glyph-0-0">
<path d="M 1.785156 -0.5625 C 1.785156 -0.652344 1.75 -0.726562 1.6875 -0.792969 C 1.621094 -0.855469 1.542969 -0.886719 1.453125 -0.886719 C 1.371094 -0.886719 1.300781 -0.855469 1.238281 -0.792969 C 1.175781 -0.726562 1.144531 -0.652344 1.144531 -0.5625 C 1.144531 -0.472656 1.171875 -0.394531 1.234375 -0.332031 C 1.292969 -0.269531 1.367188 -0.234375 1.453125 -0.234375 C 1.542969 -0.234375 1.621094 -0.269531 1.6875 -0.332031 C 1.75 -0.394531 1.785156 -0.472656 1.785156 -0.5625 M 2.097656 -0.566406 C 2.097656 -0.390625 2.035156 -0.238281 1.90625 -0.113281 C 1.78125 0.0117188 1.628906 0.0742188 1.453125 0.0742188 C 1.253906 0.0742188 1.09375 0.0078125 0.972656 -0.132812 C 0.867188 -0.25 0.8125 -0.398438 0.8125 -0.566406 L 0.8125 -4.496094 C 0.8125 -4.671875 0.675781 -4.839844 0.40625 -5.003906 C 0.136719 -5.167969 -0.121094 -5.253906 -0.367188 -5.261719 C -0.335938 -5.851562 -0.046875 -6.148438 0.5 -6.148438 C 0.601562 -6.148438 0.765625 -6.097656 0.992188 -6 C 1.21875 -5.902344 1.371094 -5.855469 1.445312 -5.855469 C 1.558594 -5.855469 1.628906 -5.933594 1.652344 -6.089844 L 1.9375 -6.015625 C 1.847656 -5.699219 1.699219 -5.542969 1.492188 -5.542969 C 1.390625 -5.542969 1.222656 -5.59375 0.988281 -5.699219 C 0.75 -5.804688 0.578125 -5.855469 0.472656 -5.855469 C 0.195312 -5.855469 0.046875 -5.738281 0.0273438 -5.503906 C 0.777344 -5.285156 1.152344 -4.9375 1.152344 -4.457031 L 1.152344 -1.125 C 1.242188 -1.175781 1.339844 -1.199219 1.453125 -1.199219 C 1.628906 -1.199219 1.78125 -1.136719 1.90625 -1.015625 C 2.035156 -0.890625 2.097656 -0.742188 2.097656 -0.566406 Z "/>
</g>
<g id="glyph-0-1">
<path d="M 2.9375 -0.613281 C 2.9375 -0.148438 2.714844 0.0859375 2.265625 0.0859375 C 1.914062 0.0859375 1.710938 -0.0898438 1.664062 -0.441406 L 1.5 -1.5 C 1.40625 -1.445312 1.300781 -1.417969 1.179688 -1.417969 C 1.023438 -1.417969 0.890625 -1.46875 0.785156 -1.578125 C 0.675781 -1.683594 0.625 -1.816406 0.625 -1.972656 C 0.625 -2.136719 0.675781 -2.273438 0.785156 -2.382812 C 0.894531 -2.496094 1.027344 -2.550781 1.183594 -2.550781 C 1.324219 -2.550781 1.449219 -2.503906 1.554688 -2.414062 C 1.664062 -2.320312 1.730469 -2.207031 1.753906 -2.066406 L 2.03125 -0.460938 C 2.054688 -0.304688 2.140625 -0.226562 2.289062 -0.226562 C 2.496094 -0.226562 2.597656 -0.339844 2.597656 -0.566406 L 2.597656 -2.785156 C 2.597656 -3.03125 2.5 -3.207031 2.304688 -3.308594 C 2.109375 -3.414062 1.882812 -3.464844 1.625 -3.464844 C 1.339844 -3.464844 1.105469 -3.40625 0.921875 -3.285156 C 0.734375 -3.167969 0.621094 -3.003906 0.574219 -2.796875 L 0.226562 -2.796875 C 0.257812 -3.058594 0.382812 -3.28125 0.59375 -3.457031 C 0.851562 -3.671875 1.191406 -3.777344 1.613281 -3.777344 C 2.496094 -3.777344 2.9375 -3.445312 2.9375 -2.785156 L 2.9375 -0.613281 M 1.484375 -1.96875 C 1.484375 -2.050781 1.453125 -2.121094 1.398438 -2.179688 C 1.339844 -2.238281 1.273438 -2.265625 1.191406 -2.265625 C 1.109375 -2.265625 1.039062 -2.238281 0.988281 -2.179688 C 0.933594 -2.121094 0.90625 -2.050781 0.90625 -1.96875 C 0.90625 -1.886719 0.933594 -1.816406 0.988281 -1.761719 C 1.039062 -1.707031 1.109375 -1.679688 1.191406 -1.679688 C 1.273438 -1.679688 1.339844 -1.707031 1.398438 -1.761719 C 1.453125 -1.816406 1.484375 -1.886719 1.484375 -1.96875 Z "/>
</g>
<g id="glyph-0-2">
<path d="M 3.53125 0 L 3.191406 0 L 3.191406 -3.023438 C 3.191406 -3.304688 3.101562 -3.445312 2.917969 -3.445312 C 2.804688 -3.445312 2.707031 -3.363281 2.625 -3.203125 L 1.425781 0 L 1.066406 0 L 1.066406 -2.597656 C 0.984375 -2.554688 0.890625 -2.53125 0.785156 -2.53125 C 0.613281 -2.53125 0.46875 -2.59375 0.34375 -2.714844 C 0.222656 -2.839844 0.160156 -2.984375 0.160156 -3.15625 C 0.160156 -3.324219 0.222656 -3.46875 0.34375 -3.59375 C 0.46875 -3.714844 0.613281 -3.777344 0.785156 -3.777344 C 0.953125 -3.777344 1.101562 -3.714844 1.222656 -3.59375 C 1.347656 -3.46875 1.40625 -3.324219 1.40625 -3.15625 L 1.40625 -1.304688 C 1.394531 -1.011719 1.378906 -0.804688 1.359375 -0.679688 C 1.398438 -0.804688 1.453125 -0.980469 1.53125 -1.207031 L 2.292969 -3.25 C 2.425781 -3.601562 2.644531 -3.777344 2.945312 -3.777344 C 3.335938 -3.777344 3.53125 -3.527344 3.53125 -3.023438 L 3.53125 0 M 1.105469 -3.160156 C 1.105469 -3.246094 1.074219 -3.320312 1.011719 -3.382812 C 0.949219 -3.445312 0.875 -3.476562 0.789062 -3.476562 C 0.703125 -3.476562 0.628906 -3.445312 0.566406 -3.382812 C 0.503906 -3.320312 0.472656 -3.246094 0.472656 -3.160156 C 0.472656 -3.070312 0.503906 -2.996094 0.566406 -2.9375 C 0.628906 -2.875 0.703125 -2.84375 0.789062 -2.84375 C 0.875 -2.84375 0.949219 -2.875 1.011719 -2.9375 C 1.074219 -2.996094 1.105469 -3.070312 1.105469 -3.160156 Z "/>
</g>
<g id="glyph-0-3">
<path d="M 3.011719 -0.839844 C 3.011719 -0.230469 2.585938 0.0742188 1.738281 0.0742188 C 0.882812 0.0742188 0.453125 -0.230469 0.453125 -0.839844 L 0.453125 -1.320312 C 0.453125 -1.46875 0.496094 -1.605469 0.582031 -1.738281 C 0.664062 -1.871094 0.769531 -1.960938 0.898438 -2.011719 C 0.5625 -2.15625 0.398438 -2.46875 0.398438 -2.945312 C 0.398438 -3.191406 0.46875 -3.390625 0.609375 -3.546875 C 0.75 -3.699219 0.949219 -3.777344 1.199219 -3.777344 C 1.355469 -3.777344 1.484375 -3.722656 1.585938 -3.617188 C 1.6875 -3.511719 1.738281 -3.382812 1.738281 -3.238281 C 1.738281 -3.09375 1.691406 -2.96875 1.597656 -2.867188 C 1.5 -2.761719 1.371094 -2.710938 1.199219 -2.710938 C 0.964844 -2.710938 0.804688 -2.8125 0.707031 -3.023438 C 0.703125 -3.003906 0.699219 -2.953125 0.699219 -2.871094 C 0.699219 -2.695312 0.753906 -2.53125 0.863281 -2.382812 C 0.972656 -2.238281 1.117188 -2.164062 1.292969 -2.164062 L 1.832031 -2.164062 L 1.832031 -1.851562 L 1.285156 -1.851562 C 1.144531 -1.851562 1.03125 -1.800781 0.933594 -1.699219 C 0.839844 -1.597656 0.792969 -1.46875 0.792969 -1.304688 L 0.792969 -0.867188 C 0.792969 -0.445312 1.109375 -0.234375 1.738281 -0.234375 C 2.359375 -0.234375 2.671875 -0.445312 2.671875 -0.867188 L 2.671875 -3.703125 L 3.011719 -3.703125 L 3.011719 -0.839844 M 1.492188 -3.238281 C 1.492188 -3.328125 1.464844 -3.398438 1.40625 -3.457031 C 1.351562 -3.511719 1.277344 -3.542969 1.191406 -3.542969 C 1.101562 -3.542969 1.03125 -3.511719 0.976562 -3.457031 C 0.925781 -3.398438 0.898438 -3.328125 0.898438 -3.238281 C 0.898438 -3.042969 0.996094 -2.945312 1.191406 -2.945312 C 1.277344 -2.945312 1.351562 -2.972656 1.40625 -3.027344 C 1.464844 -3.082031 1.492188 -3.152344 1.492188 -3.238281 Z "/>
</g>
<g id="glyph-0-4">
<path d="M -0.113281 -6.214844 C -0.132812 -6 -0.234375 -5.847656 -0.425781 -5.75 C -0.53125 -5.695312 -0.683594 -5.644531 -0.878906 -5.601562 C -1.0625 -5.570312 -1.175781 -5.527344 -1.21875 -5.476562 C -1.078125 -5.464844 -0.964844 -5.410156 -0.875 -5.3125 C -0.78125 -5.214844 -0.738281 -5.097656 -0.738281 -4.957031 C -0.738281 -4.8125 -0.785156 -4.691406 -0.882812 -4.59375 C -0.980469 -4.496094 -1.101562 -4.449219 -1.246094 -4.449219 C -1.390625 -4.449219 -1.515625 -4.496094 -1.613281 -4.59375 C -1.714844 -4.691406 -1.765625 -4.8125 -1.765625 -4.957031 C -1.765625 -5.398438 -1.542969 -5.679688 -1.09375 -5.796875 L -0.652344 -5.929688 C -0.496094 -5.988281 -0.414062 -6.082031 -0.414062 -6.214844 L -0.113281 -6.214844 M -0.980469 -4.949219 C -0.980469 -5.019531 -1.007812 -5.078125 -1.058594 -5.128906 C -1.109375 -5.179688 -1.167969 -5.203125 -1.238281 -5.203125 C -1.304688 -5.203125 -1.367188 -5.179688 -1.417969 -5.128906 C -1.46875 -5.078125 -1.492188 -5.019531 -1.492188 -4.949219 C -1.492188 -4.878906 -1.46875 -4.820312 -1.417969 -4.769531 C -1.367188 -4.71875 -1.304688 -4.695312 -1.238281 -4.695312 C -1.167969 -4.695312 -1.109375 -4.71875 -1.058594 -4.769531 C -1.007812 -4.820312 -0.980469 -4.878906 -0.980469 -4.949219 Z "/>
</g>
<g id="glyph-0-5">
<path d="M 3.039062 -0.785156 C 3.039062 -0.210938 2.75 0.0742188 2.171875 0.0742188 C 1.605469 0.0742188 1.320312 -0.210938 1.320312 -0.785156 L 1.320312 -1.6875 C 1.320312 -1.84375 1.402344 -2.058594 1.558594 -2.328125 C 1.714844 -2.601562 1.792969 -2.8125 1.792969 -2.964844 C 1.792969 -3.109375 1.734375 -3.238281 1.609375 -3.347656 C 1.488281 -3.457031 1.339844 -3.511719 1.160156 -3.511719 C 0.882812 -3.511719 0.671875 -3.417969 0.527344 -3.230469 C 0.585938 -3.253906 0.65625 -3.269531 0.746094 -3.269531 C 0.910156 -3.269531 1.042969 -3.214844 1.148438 -3.113281 C 1.25 -3.007812 1.304688 -2.878906 1.304688 -2.71875 C 1.304688 -2.554688 1.25 -2.417969 1.148438 -2.308594 C 1.042969 -2.199219 0.910156 -2.144531 0.746094 -2.144531 C 0.550781 -2.144531 0.402344 -2.214844 0.296875 -2.359375 C 0.195312 -2.503906 0.140625 -2.683594 0.140625 -2.890625 C 0.140625 -3.121094 0.230469 -3.328125 0.410156 -3.507812 C 0.589844 -3.6875 0.835938 -3.777344 1.15625 -3.777344 C 1.433594 -3.777344 1.660156 -3.707031 1.839844 -3.570312 C 2.015625 -3.433594 2.105469 -3.242188 2.105469 -3.003906 C 2.105469 -2.824219 2.03125 -2.585938 1.882812 -2.289062 C 1.734375 -1.996094 1.664062 -1.777344 1.664062 -1.640625 L 1.664062 -0.761719 C 1.664062 -0.410156 1.835938 -0.234375 2.179688 -0.234375 C 2.527344 -0.234375 2.699219 -0.410156 2.699219 -0.761719 L 2.699219 -3.703125 L 3.039062 -3.703125 L 3.039062 -0.785156 M 1.046875 -2.707031 C 1.046875 -2.792969 1.019531 -2.863281 0.964844 -2.917969 C 0.910156 -2.976562 0.835938 -3.003906 0.75 -3.003906 C 0.664062 -3.003906 0.59375 -2.976562 0.535156 -2.917969 C 0.480469 -2.863281 0.453125 -2.792969 0.453125 -2.707031 C 0.453125 -2.617188 0.480469 -2.546875 0.535156 -2.492188 C 0.59375 -2.4375 0.664062 -2.410156 0.75 -2.410156 C 0.835938 -2.410156 0.910156 -2.4375 0.964844 -2.492188 C 1.019531 -2.546875 1.046875 -2.617188 1.046875 -2.707031 Z "/>
</g>
<g id="glyph-0-6">
<path d="M 0.179688 -6.0625 C 0.0859375 -5.464844 -0.171875 -5.042969 -0.59375 -4.796875 C -0.941406 -4.601562 -1.40625 -4.503906 -1.992188 -4.503906 L -2.179688 -4.503906 L -2.179688 -4.703125 C -1.9375 -4.804688 -1.765625 -4.949219 -1.671875 -5.136719 C -2.03125 -5.179688 -2.210938 -5.359375 -2.210938 -5.675781 C -2.210938 -5.8125 -2.160156 -5.929688 -2.058594 -6.019531 C -1.957031 -6.113281 -1.839844 -6.15625 -1.699219 -6.15625 C -1.542969 -6.15625 -1.417969 -6.105469 -1.328125 -6.003906 C -1.234375 -5.902344 -1.191406 -5.777344 -1.191406 -5.625 C -1.191406 -5.269531 -1.335938 -4.984375 -1.625 -4.769531 C -0.78125 -4.832031 -0.308594 -5.261719 -0.207031 -6.0625 L 0.179688 -6.0625 M -1.445312 -5.648438 C -1.445312 -5.714844 -1.46875 -5.773438 -1.515625 -5.820312 C -1.5625 -5.871094 -1.621094 -5.894531 -1.691406 -5.894531 C -1.757812 -5.894531 -1.816406 -5.871094 -1.863281 -5.820312 C -1.914062 -5.773438 -1.9375 -5.714844 -1.9375 -5.648438 C -1.9375 -5.578125 -1.914062 -5.519531 -1.863281 -5.472656 C -1.816406 -5.425781 -1.757812 -5.402344 -1.691406 -5.402344 C -1.621094 -5.402344 -1.5625 -5.425781 -1.515625 -5.472656 C -1.46875 -5.519531 -1.445312 -5.578125 -1.445312 -5.648438 Z "/>
</g>
<g id="glyph-0-7">
<path d="M 1.558594 -1.96875 C 1.558594 -2.054688 1.527344 -2.128906 1.464844 -2.191406 C 1.402344 -2.253906 1.324219 -2.285156 1.238281 -2.285156 C 1.148438 -2.285156 1.074219 -2.253906 1.011719 -2.191406 C 0.949219 -2.128906 0.917969 -2.054688 0.917969 -1.96875 C 0.917969 -1.882812 0.949219 -1.808594 1.011719 -1.746094 C 1.074219 -1.683594 1.148438 -1.652344 1.238281 -1.652344 C 1.324219 -1.652344 1.402344 -1.683594 1.464844 -1.746094 C 1.527344 -1.808594 1.558594 -1.882812 1.558594 -1.96875 M 3.125 -0.804688 C 3.113281 -0.21875 2.691406 0.0742188 1.859375 0.0742188 C 1.03125 0.0742188 0.613281 -0.21875 0.613281 -0.804688 L 0.613281 -1.972656 C 0.613281 -2.140625 0.675781 -2.289062 0.800781 -2.414062 C 0.921875 -2.535156 1.070312 -2.597656 1.242188 -2.597656 C 1.414062 -2.597656 1.5625 -2.535156 1.683594 -2.410156 C 1.808594 -2.289062 1.871094 -2.140625 1.871094 -1.96875 C 1.871094 -1.796875 1.8125 -1.648438 1.699219 -1.527344 C 1.582031 -1.402344 1.429688 -1.339844 1.238281 -1.339844 C 1.132812 -1.339844 1.035156 -1.363281 0.953125 -1.410156 L 0.953125 -0.878906 C 0.953125 -0.449219 1.261719 -0.234375 1.878906 -0.234375 C 2.484375 -0.234375 2.785156 -0.449219 2.785156 -0.875 L 2.785156 -2.628906 C 2.785156 -2.890625 2.675781 -3.101562 2.457031 -3.257812 C 2.253906 -3.398438 2.003906 -3.464844 1.710938 -3.464844 C 1.453125 -3.464844 1.214844 -3.40625 1 -3.285156 C 0.769531 -3.15625 0.628906 -2.988281 0.585938 -2.785156 L 0.246094 -2.785156 C 0.308594 -3.082031 0.472656 -3.320312 0.742188 -3.503906 C 1.007812 -3.6875 1.339844 -3.777344 1.726562 -3.777344 C 2.101562 -3.777344 2.414062 -3.691406 2.671875 -3.511719 C 2.976562 -3.3125 3.125 -3.039062 3.125 -2.691406 Z "/>
</g>
<g id="glyph-0-8">
</g>
<g id="glyph-0-9">
<path d="M 3.089844 -1.519531 C 3.089844 -1.042969 2.925781 -0.65625 2.601562 -0.359375 C 2.277344 -0.0625 1.855469 0.0898438 1.339844 0.105469 C 0.925781 0.117188 0.585938 0 0.320312 -0.246094 L 0.480469 -0.539062 C 0.714844 -0.363281 1.019531 -0.273438 1.398438 -0.273438 C 1.761719 -0.273438 2.074219 -0.398438 2.332031 -0.640625 C 2.589844 -0.886719 2.71875 -1.175781 2.71875 -1.5 C 2.71875 -1.746094 2.644531 -1.953125 2.492188 -2.117188 C 2.34375 -2.277344 2.148438 -2.359375 1.917969 -2.359375 C 1.644531 -2.359375 1.433594 -2.285156 1.285156 -2.132812 L 1.105469 -2.445312 C 1.34375 -2.632812 1.582031 -2.820312 1.824219 -3.011719 C 2.179688 -3.3125 2.359375 -3.546875 2.359375 -3.714844 C 2.359375 -4.019531 2.148438 -4.175781 1.71875 -4.175781 C 1.246094 -4.175781 0.894531 -3.9375 0.660156 -3.464844 L 0.398438 -3.609375 C 0.496094 -3.882812 0.671875 -4.105469 0.917969 -4.269531 C 1.160156 -4.433594 1.4375 -4.515625 1.746094 -4.515625 C 2.011719 -4.515625 2.238281 -4.445312 2.421875 -4.300781 C 2.609375 -4.160156 2.699219 -3.964844 2.699219 -3.722656 C 2.699219 -3.429688 2.441406 -3.089844 1.925781 -2.699219 L 1.984375 -2.699219 C 2.316406 -2.699219 2.585938 -2.589844 2.785156 -2.367188 C 2.988281 -2.140625 3.089844 -1.859375 3.089844 -1.519531 Z "/>
</g>
<g id="glyph-0-10">
<path d="M 1.085938 -0.265625 C 1.085938 -0.175781 1.054688 -0.101562 0.988281 -0.0390625 C 0.921875 0.0234375 0.84375 0.0585938 0.753906 0.0585938 C 0.667969 0.0585938 0.59375 0.0234375 0.527344 -0.0390625 C 0.464844 -0.101562 0.433594 -0.175781 0.433594 -0.265625 C 0.433594 -0.351562 0.464844 -0.429688 0.527344 -0.496094 C 0.59375 -0.5625 0.667969 -0.59375 0.753906 -0.59375 C 0.84375 -0.59375 0.921875 -0.5625 0.988281 -0.496094 C 1.054688 -0.429688 1.085938 -0.351562 1.085938 -0.265625 M 1.085938 -2.671875 C 1.085938 -2.585938 1.054688 -2.507812 0.988281 -2.445312 C 0.921875 -2.382812 0.84375 -2.351562 0.753906 -2.351562 C 0.667969 -2.351562 0.59375 -2.382812 0.527344 -2.445312 C 0.464844 -2.507812 0.433594 -2.585938 0.433594 -2.671875 C 0.433594 -2.761719 0.464844 -2.839844 0.527344 -2.902344 C 0.59375 -2.96875 0.667969 -3.003906 0.753906 -3.003906 C 0.84375 -3.003906 0.921875 -2.96875 0.988281 -2.902344 C 1.054688 -2.839844 1.085938 -2.761719 1.085938 -2.671875 Z "/>
</g>
<g id="glyph-0-11">
<path d="M 3.183594 0 L 2.84375 0 L 2.84375 -2.535156 C 2.84375 -2.835938 2.730469 -3.066406 2.507812 -3.226562 C 2.28125 -3.386719 2.027344 -3.464844 1.742188 -3.464844 C 1.453125 -3.464844 1.195312 -3.367188 0.980469 -3.167969 C 0.761719 -2.972656 0.652344 -2.730469 0.652344 -2.441406 C 0.652344 -2.304688 0.675781 -2.136719 0.726562 -1.941406 C 0.796875 -1.667969 0.835938 -1.511719 0.839844 -1.472656 C 0.902344 -1.832031 1.003906 -2.136719 1.144531 -2.390625 C 1.324219 -2.714844 1.554688 -2.878906 1.832031 -2.878906 C 1.988281 -2.878906 2.117188 -2.828125 2.21875 -2.730469 C 2.320312 -2.628906 2.371094 -2.492188 2.371094 -2.324219 C 2.371094 -2.164062 2.316406 -2.03125 2.210938 -1.921875 C 2.101562 -1.8125 1.96875 -1.757812 1.8125 -1.757812 C 1.648438 -1.757812 1.503906 -1.828125 1.378906 -1.976562 C 1.289062 -1.84375 1.199219 -1.65625 1.109375 -1.410156 C 1 -1.109375 0.945312 -0.84375 0.945312 -0.613281 L 0.945312 0 L 0.605469 0 L 0.605469 -0.867188 C 0.605469 -1.050781 0.554688 -1.308594 0.457031 -1.644531 C 0.359375 -1.976562 0.3125 -2.230469 0.3125 -2.410156 C 0.3125 -2.816406 0.449219 -3.148438 0.726562 -3.398438 C 1.003906 -3.652344 1.351562 -3.777344 1.765625 -3.777344 C 2.148438 -3.777344 2.480469 -3.675781 2.761719 -3.46875 C 3.042969 -3.265625 3.183594 -2.964844 3.183594 -2.570312 L 3.183594 0 M 2.105469 -2.320312 C 2.105469 -2.402344 2.078125 -2.472656 2.019531 -2.53125 C 1.964844 -2.585938 1.894531 -2.617188 1.8125 -2.617188 C 1.730469 -2.617188 1.664062 -2.585938 1.605469 -2.53125 C 1.546875 -2.472656 1.519531 -2.402344 1.519531 -2.320312 C 1.519531 -2.234375 1.546875 -2.164062 1.605469 -2.105469 C 1.664062 -2.050781 1.730469 -2.019531 1.8125 -2.019531 C 1.894531 -2.019531 1.964844 -2.050781 2.019531 -2.105469 C 2.078125 -2.164062 2.105469 -2.234375 2.105469 -2.320312 Z "/>
</g>
<g id="glyph-0-12">
<path d="M 3.070312 0 L 2.730469 0 L 2.730469 -1.613281 C 2.730469 -1.835938 2.613281 -2.011719 2.382812 -2.144531 C 2.1875 -2.25 1.960938 -2.304688 1.703125 -2.304688 C 1.453125 -2.304688 1.242188 -2.238281 1.066406 -2.101562 C 0.890625 -1.964844 0.804688 -1.792969 0.804688 -1.578125 L 0.792969 -1.105469 C 0.882812 -1.148438 0.984375 -1.171875 1.105469 -1.171875 C 1.28125 -1.171875 1.429688 -1.109375 1.546875 -0.988281 C 1.667969 -0.863281 1.726562 -0.71875 1.726562 -0.546875 C 1.726562 -0.378906 1.667969 -0.230469 1.546875 -0.109375 C 1.429688 0.015625 1.28125 0.0742188 1.105469 0.0742188 C 0.910156 0.0742188 0.753906 0.0117188 0.632812 -0.113281 C 0.511719 -0.238281 0.453125 -0.386719 0.453125 -0.558594 L 0.453125 -1.578125 C 0.453125 -1.890625 0.578125 -2.148438 0.832031 -2.351562 C 1.0625 -2.539062 1.34375 -2.636719 1.671875 -2.636719 C 2.113281 -2.636719 2.464844 -2.507812 2.730469 -2.257812 L 2.730469 -2.714844 C 2.730469 -2.941406 2.609375 -3.128906 2.371094 -3.277344 C 2.164062 -3.402344 1.933594 -3.464844 1.679688 -3.464844 C 1.417969 -3.464844 1.175781 -3.410156 0.964844 -3.296875 C 0.730469 -3.171875 0.585938 -3 0.527344 -2.785156 L 0.199219 -2.785156 C 0.242188 -3.074219 0.414062 -3.316406 0.707031 -3.503906 C 0.984375 -3.6875 1.304688 -3.777344 1.664062 -3.777344 C 2.027344 -3.777344 2.34375 -3.691406 2.605469 -3.523438 C 2.914062 -3.320312 3.070312 -3.046875 3.070312 -2.699219 L 3.070312 0 M 1.417969 -0.542969 C 1.417969 -0.628906 1.386719 -0.703125 1.324219 -0.765625 C 1.261719 -0.828125 1.1875 -0.859375 1.101562 -0.859375 C 1.011719 -0.859375 0.941406 -0.828125 0.882812 -0.765625 C 0.824219 -0.703125 0.792969 -0.628906 0.792969 -0.542969 C 0.792969 -0.457031 0.824219 -0.382812 0.882812 -0.324219 C 0.941406 -0.265625 1.011719 -0.234375 1.101562 -0.234375 C 1.1875 -0.234375 1.261719 -0.265625 1.324219 -0.324219 C 1.386719 -0.382812 1.417969 -0.457031 1.417969 -0.542969 Z "/>
</g>
<g id="glyph-0-13">
<path d="M -0.472656 -4.296875 C -1.195312 -4.554688 -1.875 -4.683594 -2.511719 -4.683594 C -2.738281 -4.683594 -2.988281 -4.664062 -3.257812 -4.628906 C -3.25 -4.953125 -3.117188 -5.214844 -2.851562 -5.414062 C -2.613281 -5.59375 -2.328125 -5.683594 -1.992188 -5.683594 C -1.847656 -5.683594 -1.714844 -5.671875 -1.597656 -5.648438 L -1.597656 -6.109375 L -1.285156 -6.109375 L -1.285156 -5.542969 C -1.109375 -5.460938 -0.960938 -5.34375 -0.839844 -5.195312 L -0.839844 -6.109375 L -0.527344 -6.109375 L -0.527344 -4.550781 C -0.503906 -4.46875 -0.484375 -4.386719 -0.472656 -4.296875 M -0.839844 -4.65625 C -1.117188 -5.164062 -1.5 -5.421875 -1.984375 -5.421875 C -2.425781 -5.421875 -2.71875 -5.253906 -2.871094 -4.921875 C -2.738281 -4.9375 -2.589844 -4.949219 -2.425781 -4.949219 C -1.824219 -4.949219 -1.292969 -4.851562 -0.839844 -4.65625 Z "/>
</g>
<g id="glyph-0-14">
<path d="M -0.527344 -6.421875 L -0.839844 -6.421875 L -0.839844 -7.46875 L -0.527344 -7.46875 Z "/>
</g>
<g id="glyph-0-15">
<path d="M 3.636719 -0.539062 C 3.636719 -0.367188 3.574219 -0.222656 3.449219 -0.105469 C 3.328125 0.015625 3.179688 0.0742188 3.007812 0.0742188 C 2.835938 0.0742188 2.691406 0.015625 2.570312 -0.105469 C 2.449219 -0.222656 2.390625 -0.367188 2.390625 -0.539062 L 2.390625 -0.605469 C 2 -0.445312 1.695312 -0.246094 1.484375 0 L 1.066406 0 L 1.066406 -2.597656 C 0.984375 -2.554688 0.890625 -2.53125 0.785156 -2.53125 C 0.613281 -2.53125 0.46875 -2.59375 0.34375 -2.714844 C 0.222656 -2.839844 0.160156 -2.984375 0.160156 -3.15625 C 0.160156 -3.324219 0.222656 -3.46875 0.34375 -3.59375 C 0.46875 -3.714844 0.613281 -3.777344 0.785156 -3.777344 C 0.953125 -3.777344 1.101562 -3.714844 1.222656 -3.59375 C 1.347656 -3.46875 1.40625 -3.324219 1.40625 -3.15625 L 1.40625 -0.367188 C 1.53125 -0.507812 1.757812 -0.648438 2.078125 -0.792969 C 2.4375 -0.957031 2.667969 -1.082031 2.777344 -1.171875 C 2.992188 -1.339844 3.097656 -1.558594 3.097656 -1.824219 L 3.097656 -3.703125 L 3.4375 -3.703125 L 3.4375 -1.777344 C 3.4375 -1.472656 3.367188 -1.253906 3.230469 -1.113281 C 3.5 -1.007812 3.636719 -0.816406 3.636719 -0.539062 M 1.105469 -3.15625 C 1.105469 -3.238281 1.074219 -3.3125 1.011719 -3.375 C 0.949219 -3.433594 0.875 -3.464844 0.789062 -3.464844 C 0.703125 -3.464844 0.628906 -3.433594 0.566406 -3.375 C 0.503906 -3.3125 0.472656 -3.238281 0.472656 -3.15625 C 0.472656 -3.070312 0.503906 -2.996094 0.566406 -2.933594 C 0.628906 -2.875 0.703125 -2.84375 0.789062 -2.84375 C 0.875 -2.84375 0.949219 -2.875 1.011719 -2.933594 C 1.074219 -2.996094 1.105469 -3.070312 1.105469 -3.15625 M 3.324219 -0.558594 C 3.324219 -0.644531 3.292969 -0.722656 3.230469 -0.785156 C 3.167969 -0.847656 3.089844 -0.878906 3.003906 -0.878906 C 2.914062 -0.878906 2.839844 -0.847656 2.777344 -0.785156 C 2.714844 -0.722656 2.683594 -0.644531 2.683594 -0.558594 C 2.683594 -0.46875 2.714844 -0.394531 2.777344 -0.332031 C 2.839844 -0.269531 2.914062 -0.234375 3.003906 -0.234375 C 3.089844 -0.234375 3.167969 -0.269531 3.230469 -0.332031 C 3.292969 -0.394531 3.324219 -0.46875 3.324219 -0.558594 Z "/>
</g>
<g id="glyph-0-16">
<path d="M 0.398438 -7.800781 C 0.308594 -7.257812 0.0742188 -6.878906 -0.300781 -6.65625 C -0.605469 -6.480469 -1.023438 -6.394531 -1.558594 -6.394531 L -1.726562 -6.394531 L -1.726562 -6.570312 C -1.519531 -6.65625 -1.371094 -6.777344 -1.285156 -6.933594 C -1.410156 -6.933594 -1.519531 -6.976562 -1.613281 -7.070312 C -1.710938 -7.164062 -1.757812 -7.277344 -1.757812 -7.414062 C -1.757812 -7.546875 -1.710938 -7.664062 -1.613281 -7.761719 C -1.519531 -7.855469 -1.40625 -7.90625 -1.273438 -7.90625 C -1.148438 -7.90625 -1.042969 -7.859375 -0.953125 -7.769531 C -0.867188 -7.683594 -0.816406 -7.566406 -0.804688 -7.417969 C -0.804688 -7.101562 -0.945312 -6.84375 -1.226562 -6.640625 C -0.476562 -6.703125 -0.0546875 -7.089844 0.046875 -7.800781 L 0.398438 -7.800781 M -1.066406 -7.414062 C -1.066406 -7.476562 -1.085938 -7.53125 -1.128906 -7.574219 C -1.167969 -7.617188 -1.222656 -7.640625 -1.285156 -7.640625 C -1.347656 -7.640625 -1.402344 -7.617188 -1.445312 -7.574219 C -1.488281 -7.53125 -1.511719 -7.476562 -1.511719 -7.414062 C -1.511719 -7.351562 -1.488281 -7.296875 -1.445312 -7.257812 C -1.402344 -7.21875 -1.347656 -7.195312 -1.285156 -7.195312 C -1.222656 -7.195312 -1.167969 -7.21875 -1.128906 -7.257812 C -1.085938 -7.296875 -1.066406 -7.351562 -1.066406 -7.414062 Z "/>
</g>
<g id="glyph-0-17">
<path d="M 2.457031 0 L 2.117188 0 L 2.117188 -2.816406 C 2.117188 -3.003906 2.042969 -3.160156 1.902344 -3.28125 C 1.761719 -3.40625 1.566406 -3.464844 1.320312 -3.464844 C 1.101562 -3.464844 0.925781 -3.390625 0.792969 -3.242188 C 0.660156 -3.097656 0.589844 -2.9375 0.574219 -2.765625 L 0.226562 -2.765625 C 0.234375 -3.03125 0.339844 -3.265625 0.542969 -3.46875 C 0.746094 -3.675781 1.011719 -3.777344 1.332031 -3.777344 C 1.695312 -3.777344 1.976562 -3.691406 2.167969 -3.511719 C 2.359375 -3.335938 2.457031 -3.105469 2.457031 -2.8125 L 2.457031 0 M -0.0859375 -5.082031 C -0.0859375 -4.878906 -0.152344 -4.710938 -0.292969 -4.570312 C -0.429688 -4.433594 -0.601562 -4.363281 -0.804688 -4.363281 C -1.003906 -4.363281 -1.175781 -4.433594 -1.316406 -4.570312 C -1.460938 -4.710938 -1.53125 -4.878906 -1.53125 -5.082031 C -1.53125 -5.28125 -1.460938 -5.453125 -1.316406 -5.59375 C -1.175781 -5.738281 -1.003906 -5.808594 -0.804688 -5.808594 C -0.601562 -5.808594 -0.429688 -5.738281 -0.292969 -5.59375 C -0.152344 -5.453125 -0.0859375 -5.28125 -0.0859375 -5.082031 M -0.398438 -5.082031 C -0.398438 -5.195312 -0.4375 -5.292969 -0.519531 -5.375 C -0.601562 -5.457031 -0.695312 -5.496094 -0.804688 -5.496094 C -0.917969 -5.496094 -1.011719 -5.457031 -1.09375 -5.375 C -1.175781 -5.292969 -1.21875 -5.195312 -1.21875 -5.082031 C -1.21875 -4.96875 -1.175781 -4.871094 -1.09375 -4.792969 C -1.011719 -4.714844 -0.917969 -4.675781 -0.804688 -4.675781 C -0.695312 -4.675781 -0.601562 -4.714844 -0.519531 -4.792969 C -0.4375 -4.871094 -0.398438 -4.96875 -0.398438 -5.082031 Z "/>
</g>
<g id="glyph-0-18">
<path d="M 2.144531 -0.566406 C 2.144531 -0.390625 2.082031 -0.238281 1.953125 -0.113281 C 1.828125 0.0117188 1.679688 0.0742188 1.511719 0.0742188 C 1.308594 0.0742188 1.144531 0.0078125 1.019531 -0.132812 C 0.914062 -0.25 0.859375 -0.398438 0.859375 -0.566406 L 0.859375 -4.429688 C 0.859375 -4.535156 0.886719 -4.660156 0.945312 -4.796875 C 1.078125 -5.117188 1.144531 -5.316406 1.144531 -5.390625 C 1.144531 -5.550781 1.089844 -5.679688 0.980469 -5.78125 C 0.875 -5.878906 0.742188 -5.929688 0.585938 -5.929688 C 0.351562 -5.929688 0.171875 -5.855469 0.046875 -5.703125 C 0.21875 -5.730469 0.359375 -5.691406 0.472656 -5.59375 C 0.585938 -5.492188 0.640625 -5.359375 0.640625 -5.199219 C 0.640625 -5.054688 0.59375 -4.933594 0.492188 -4.832031 C 0.390625 -4.734375 0.269531 -4.683594 0.132812 -4.683594 C -0.0078125 -4.683594 -0.128906 -4.734375 -0.234375 -4.835938 C -0.34375 -4.933594 -0.398438 -5.085938 -0.398438 -5.285156 C -0.398438 -5.542969 -0.304688 -5.757812 -0.121094 -5.933594 C 0.0585938 -6.109375 0.304688 -6.195312 0.613281 -6.195312 C 0.839844 -6.195312 1.042969 -6.125 1.222656 -5.984375 C 1.402344 -5.839844 1.492188 -5.660156 1.492188 -5.441406 C 1.492188 -5.308594 1.445312 -5.125 1.347656 -4.894531 C 1.25 -4.660156 1.199219 -4.484375 1.199219 -4.355469 L 1.199219 -1.125 C 1.289062 -1.175781 1.390625 -1.199219 1.511719 -1.199219 C 1.679688 -1.199219 1.828125 -1.136719 1.953125 -1.015625 C 2.082031 -0.890625 2.144531 -0.742188 2.144531 -0.566406 M 1.832031 -0.5625 C 1.832031 -0.652344 1.800781 -0.726562 1.734375 -0.792969 C 1.667969 -0.855469 1.589844 -0.886719 1.5 -0.886719 C 1.417969 -0.886719 1.347656 -0.855469 1.285156 -0.792969 C 1.222656 -0.726562 1.191406 -0.652344 1.191406 -0.5625 C 1.191406 -0.472656 1.21875 -0.394531 1.28125 -0.332031 C 1.339844 -0.269531 1.414062 -0.234375 1.5 -0.234375 C 1.589844 -0.234375 1.667969 -0.269531 1.734375 -0.332031 C 1.800781 -0.394531 1.832031 -0.472656 1.832031 -0.5625 M 0.386719 -5.203125 C 0.386719 -5.269531 0.363281 -5.328125 0.316406 -5.382812 C 0.269531 -5.433594 0.203125 -5.457031 0.121094 -5.457031 C 0.0390625 -5.457031 -0.0234375 -5.433594 -0.0703125 -5.382812 C -0.117188 -5.328125 -0.140625 -5.269531 -0.140625 -5.203125 C -0.140625 -5.136719 -0.117188 -5.078125 -0.0703125 -5.027344 C -0.0234375 -4.972656 0.0390625 -4.949219 0.121094 -4.949219 C 0.203125 -4.949219 0.269531 -4.972656 0.316406 -5.027344 C 0.363281 -5.078125 0.386719 -5.136719 0.386719 -5.203125 Z "/>
</g>
<g id="glyph-0-19">
<path d="M 3.039062 0 L 2.699219 0 L 2.699219 -2.457031 C 2.699219 -2.777344 2.605469 -3.027344 2.417969 -3.203125 C 2.226562 -3.378906 1.980469 -3.464844 1.667969 -3.464844 C 1.453125 -3.464844 1.25 -3.40625 1.054688 -3.285156 C 0.859375 -3.164062 0.722656 -3.011719 0.648438 -2.824219 C 1.027344 -2.792969 1.273438 -2.65625 1.386719 -2.414062 C 1.242188 -2.382812 1.113281 -2.300781 1 -2.164062 C 0.886719 -2.027344 0.832031 -1.882812 0.832031 -1.722656 L 0.839844 -1.105469 C 0.941406 -1.148438 1.039062 -1.171875 1.125 -1.171875 C 1.304688 -1.171875 1.457031 -1.109375 1.578125 -0.988281 C 1.703125 -0.867188 1.765625 -0.71875 1.765625 -0.542969 C 1.765625 -0.355469 1.707031 -0.207031 1.585938 -0.09375 C 1.464844 0.0195312 1.3125 0.0742188 1.128906 0.0742188 C 0.949219 0.0742188 0.800781 0.015625 0.679688 -0.105469 C 0.5625 -0.222656 0.5 -0.371094 0.5 -0.546875 L 0.5 -1.71875 C 0.5 -2.058594 0.660156 -2.308594 0.980469 -2.464844 C 0.8125 -2.535156 0.566406 -2.570312 0.246094 -2.570312 C 0.296875 -2.914062 0.460938 -3.203125 0.738281 -3.433594 C 1.011719 -3.664062 1.332031 -3.777344 1.691406 -3.777344 C 2.09375 -3.777344 2.417969 -3.664062 2.667969 -3.4375 C 2.917969 -3.210938 3.039062 -2.898438 3.039062 -2.503906 L 3.039062 0 M 1.453125 -0.542969 C 1.453125 -0.628906 1.421875 -0.703125 1.359375 -0.765625 C 1.292969 -0.828125 1.21875 -0.859375 1.128906 -0.859375 C 1.039062 -0.859375 0.964844 -0.828125 0.902344 -0.765625 C 0.84375 -0.703125 0.8125 -0.628906 0.8125 -0.542969 C 0.8125 -0.457031 0.84375 -0.382812 0.902344 -0.324219 C 0.964844 -0.265625 1.039062 -0.234375 1.128906 -0.234375 C 1.21875 -0.234375 1.292969 -0.265625 1.359375 -0.324219 C 1.421875 -0.382812 1.453125 -0.457031 1.453125 -0.542969 Z "/>
</g>
<g id="glyph-0-20">
<path d="M 2.457031 0 L 2.117188 0 L 2.117188 -2.816406 C 2.117188 -3.003906 2.042969 -3.160156 1.902344 -3.28125 C 1.761719 -3.40625 1.566406 -3.464844 1.320312 -3.464844 C 1.101562 -3.464844 0.925781 -3.390625 0.792969 -3.242188 C 0.660156 -3.097656 0.589844 -2.9375 0.574219 -2.765625 L 0.226562 -2.765625 C 0.234375 -3.03125 0.339844 -3.265625 0.542969 -3.46875 C 0.746094 -3.675781 1.011719 -3.777344 1.332031 -3.777344 C 1.695312 -3.777344 1.976562 -3.691406 2.167969 -3.511719 C 2.359375 -3.335938 2.457031 -3.105469 2.457031 -2.8125 Z "/>
</g>
<g id="glyph-0-21">
<path d="M 3.164062 0 L 2.824219 0 L 2.824219 -2.449219 C 2.824219 -3.125 2.460938 -3.464844 1.738281 -3.464844 C 1.449219 -3.464844 1.191406 -3.367188 0.972656 -3.167969 C 0.753906 -2.972656 0.640625 -2.730469 0.640625 -2.441406 C 0.640625 -2.257812 0.691406 -2.011719 0.792969 -1.703125 C 0.894531 -1.390625 0.945312 -1.152344 0.945312 -0.980469 C 0.945312 -0.855469 0.9375 -0.769531 0.925781 -0.726562 C 1 -0.890625 1.128906 -1.074219 1.3125 -1.273438 C 1.457031 -1.433594 1.605469 -1.59375 1.757812 -1.757812 C 1.597656 -1.757812 1.46875 -1.808594 1.359375 -1.917969 C 1.253906 -2.023438 1.199219 -2.15625 1.199219 -2.3125 C 1.199219 -2.472656 1.253906 -2.601562 1.359375 -2.710938 C 1.46875 -2.816406 1.597656 -2.871094 1.757812 -2.871094 C 1.914062 -2.871094 2.046875 -2.816406 2.152344 -2.710938 C 2.261719 -2.601562 2.3125 -2.472656 2.3125 -2.3125 C 2.3125 -2.011719 2.09375 -1.628906 1.648438 -1.160156 C 1.203125 -0.695312 0.972656 -0.308594 0.953125 0 L 0.613281 0 L 0.613281 -0.851562 C 0.613281 -1.03125 0.5625 -1.292969 0.457031 -1.628906 C 0.355469 -1.964844 0.300781 -2.222656 0.300781 -2.398438 C 0.300781 -2.828125 0.445312 -3.164062 0.726562 -3.410156 C 1.011719 -3.65625 1.363281 -3.777344 1.785156 -3.777344 C 2.21875 -3.777344 2.558594 -3.664062 2.800781 -3.433594 C 3.042969 -3.203125 3.164062 -2.894531 3.164062 -2.503906 L 3.164062 0 M 2.050781 -2.3125 C 2.050781 -2.394531 2.019531 -2.464844 1.964844 -2.523438 C 1.90625 -2.578125 1.839844 -2.605469 1.757812 -2.605469 C 1.675781 -2.605469 1.605469 -2.578125 1.546875 -2.523438 C 1.492188 -2.464844 1.464844 -2.394531 1.464844 -2.3125 C 1.464844 -2.230469 1.492188 -2.164062 1.546875 -2.105469 C 1.605469 -2.050781 1.675781 -2.019531 1.757812 -2.019531 C 1.839844 -2.019531 1.90625 -2.050781 1.964844 -2.105469 C 2.019531 -2.164062 2.050781 -2.230469 2.050781 -2.3125 Z "/>
</g>
<g id="glyph-0-22">
<path d="M 3.25 0 L 2.878906 0 C 2.390625 -0.378906 1.929688 -0.625 1.5 -0.746094 C 1.519531 -0.6875 1.53125 -0.632812 1.53125 -0.574219 C 1.53125 -0.394531 1.464844 -0.238281 1.335938 -0.113281 C 1.207031 0.0117188 1.050781 0.0742188 0.867188 0.0742188 C 0.6875 0.0742188 0.53125 0.0117188 0.40625 -0.113281 C 0.28125 -0.242188 0.21875 -0.398438 0.21875 -0.582031 C 0.21875 -0.765625 0.28125 -0.921875 0.40625 -1.050781 C 0.53125 -1.179688 0.6875 -1.246094 0.867188 -1.246094 C 0.9375 -1.246094 1.003906 -1.238281 1.066406 -1.21875 L 1.066406 -2.597656 C 0.984375 -2.554688 0.890625 -2.53125 0.785156 -2.53125 C 0.613281 -2.53125 0.46875 -2.59375 0.34375 -2.714844 C 0.222656 -2.839844 0.160156 -2.984375 0.160156 -3.15625 C 0.160156 -3.324219 0.222656 -3.46875 0.34375 -3.59375 C 0.46875 -3.714844 0.613281 -3.777344 0.785156 -3.777344 C 0.953125 -3.777344 1.101562 -3.714844 1.222656 -3.59375 C 1.347656 -3.46875 1.40625 -3.324219 1.40625 -3.15625 L 1.40625 -1.113281 C 2.03125 -0.894531 2.53125 -0.640625 2.910156 -0.347656 L 2.910156 -3.703125 L 3.25 -3.703125 L 3.25 0 M 1.21875 -0.585938 C 1.21875 -0.679688 1.183594 -0.761719 1.117188 -0.832031 C 1.046875 -0.898438 0.964844 -0.933594 0.875 -0.933594 C 0.78125 -0.933594 0.699219 -0.898438 0.632812 -0.832031 C 0.5625 -0.761719 0.527344 -0.679688 0.527344 -0.585938 C 0.527344 -0.492188 0.5625 -0.410156 0.632812 -0.339844 C 0.699219 -0.269531 0.78125 -0.234375 0.875 -0.234375 C 0.964844 -0.234375 1.046875 -0.269531 1.117188 -0.339844 C 1.183594 -0.410156 1.21875 -0.492188 1.21875 -0.585938 M 1.105469 -3.15625 C 1.105469 -3.238281 1.074219 -3.3125 1.011719 -3.375 C 0.949219 -3.433594 0.875 -3.464844 0.789062 -3.464844 C 0.703125 -3.464844 0.628906 -3.433594 0.566406 -3.375 C 0.503906 -3.3125 0.472656 -3.238281 0.472656 -3.15625 C 0.472656 -3.070312 0.503906 -2.996094 0.566406 -2.933594 C 0.628906 -2.875 0.703125 -2.84375 0.789062 -2.84375 C 0.875 -2.84375 0.949219 -2.875 1.011719 -2.933594 C 1.074219 -2.996094 1.105469 -3.070312 1.105469 -3.15625 Z "/>
</g>
<g id="glyph-0-23">
<path d="M -0.472656 -4.296875 C -1.195312 -4.554688 -1.875 -4.683594 -2.511719 -4.683594 C -2.738281 -4.683594 -2.988281 -4.664062 -3.257812 -4.628906 C -3.25 -4.953125 -3.117188 -5.214844 -2.851562 -5.414062 C -2.613281 -5.59375 -2.328125 -5.683594 -1.992188 -5.683594 C -1.488281 -5.683594 -1.105469 -5.523438 -0.839844 -5.195312 L -0.839844 -6.109375 L -0.527344 -6.109375 L -0.527344 -4.550781 C -0.503906 -4.46875 -0.484375 -4.386719 -0.472656 -4.296875 M -0.839844 -4.65625 C -1.117188 -5.164062 -1.5 -5.421875 -1.984375 -5.421875 C -2.425781 -5.421875 -2.71875 -5.253906 -2.871094 -4.921875 C -2.738281 -4.9375 -2.589844 -4.949219 -2.425781 -4.949219 C -1.824219 -4.949219 -1.292969 -4.851562 -0.839844 -4.65625 Z "/>
</g>
<g id="glyph-0-24">
<path d="M 2.636719 -0.546875 C 2.636719 -0.378906 2.574219 -0.230469 2.449219 -0.109375 C 2.328125 0.015625 2.179688 0.0742188 2.011719 0.0742188 C 1.839844 0.0742188 1.695312 0.015625 1.574219 -0.109375 C 1.449219 -0.234375 1.386719 -0.382812 1.386719 -0.550781 C 1.386719 -0.722656 1.449219 -0.871094 1.574219 -0.996094 C 1.695312 -1.117188 1.839844 -1.179688 2.011719 -1.179688 C 2.117188 -1.179688 2.214844 -1.15625 2.292969 -1.113281 L 2.292969 -2.632812 C 2.292969 -3.1875 1.984375 -3.464844 1.359375 -3.464844 C 0.863281 -3.464844 0.554688 -3.238281 0.433594 -2.785156 L 0.09375 -2.785156 C 0.234375 -3.445312 0.660156 -3.777344 1.378906 -3.777344 C 1.738281 -3.777344 2.035156 -3.683594 2.277344 -3.496094 C 2.515625 -3.304688 2.636719 -3.039062 2.636719 -2.691406 L 2.636719 -0.546875 M 2.332031 -0.550781 C 2.332031 -0.640625 2.300781 -0.714844 2.238281 -0.777344 C 2.175781 -0.835938 2.101562 -0.867188 2.015625 -0.867188 C 1.929688 -0.867188 1.855469 -0.835938 1.792969 -0.777344 C 1.730469 -0.714844 1.699219 -0.640625 1.699219 -0.550781 C 1.699219 -0.464844 1.730469 -0.390625 1.792969 -0.328125 C 1.855469 -0.265625 1.929688 -0.234375 2.015625 -0.234375 C 2.101562 -0.234375 2.175781 -0.265625 2.238281 -0.328125 C 2.300781 -0.390625 2.332031 -0.464844 2.332031 -0.550781 Z "/>
</g>
<g id="glyph-0-25">
<path d="M -0.472656 -4.296875 C -1.195312 -4.554688 -1.875 -4.683594 -2.511719 -4.683594 C -2.738281 -4.683594 -2.988281 -4.664062 -3.257812 -4.628906 C -3.25 -4.953125 -3.117188 -5.214844 -2.851562 -5.414062 C -2.613281 -5.59375 -2.328125 -5.683594 -1.992188 -5.683594 C -1.652344 -5.683594 -1.359375 -5.605469 -1.113281 -5.449219 C -1.132812 -5.5 -1.144531 -5.550781 -1.144531 -5.601562 C -1.144531 -5.726562 -1.097656 -5.835938 -1.003906 -5.925781 C -0.914062 -6.015625 -0.804688 -6.0625 -0.679688 -6.0625 C -0.554688 -6.0625 -0.445312 -6.015625 -0.355469 -5.925781 C -0.261719 -5.835938 -0.21875 -5.726562 -0.21875 -5.601562 C -0.21875 -5.472656 -0.261719 -5.367188 -0.355469 -5.273438 C -0.445312 -5.183594 -0.554688 -5.136719 -0.679688 -5.136719 C -0.710938 -5.136719 -0.753906 -5.144531 -0.804688 -5.15625 C -0.644531 -4.9375 -0.535156 -4.648438 -0.472656 -4.296875 M -0.839844 -4.65625 C -1.117188 -5.164062 -1.5 -5.421875 -1.984375 -5.421875 C -2.425781 -5.421875 -2.71875 -5.253906 -2.871094 -4.921875 C -2.738281 -4.9375 -2.589844 -4.949219 -2.425781 -4.949219 C -1.824219 -4.949219 -1.292969 -4.851562 -0.839844 -4.65625 M -0.433594 -5.601562 C -0.433594 -5.667969 -0.457031 -5.726562 -0.503906 -5.773438 C -0.550781 -5.820312 -0.609375 -5.847656 -0.679688 -5.847656 C -0.75 -5.847656 -0.808594 -5.820312 -0.855469 -5.773438 C -0.902344 -5.726562 -0.925781 -5.667969 -0.925781 -5.601562 C -0.925781 -5.53125 -0.902344 -5.472656 -0.855469 -5.425781 C -0.808594 -5.378906 -0.75 -5.355469 -0.679688 -5.355469 C -0.609375 -5.355469 -0.550781 -5.378906 -0.503906 -5.425781 C -0.457031 -5.472656 -0.433594 -5.53125 -0.433594 -5.601562 Z "/>
</g>
<g id="glyph-0-26">
<path d="M 3.117188 0 L 2.777344 0 L 2.777344 -2.457031 C 2.777344 -2.765625 2.679688 -3.011719 2.488281 -3.191406 C 2.296875 -3.375 2.050781 -3.464844 1.746094 -3.464844 C 1.53125 -3.464844 1.324219 -3.40625 1.125 -3.289062 C 0.921875 -3.171875 0.785156 -3.019531 0.707031 -2.832031 C 1.078125 -2.800781 1.335938 -2.664062 1.472656 -2.417969 C 1.320312 -2.386719 1.191406 -2.304688 1.078125 -2.167969 C 0.964844 -2.03125 0.90625 -1.882812 0.90625 -1.71875 L 0.90625 0 L 0.566406 0 L 0.566406 -1.710938 C 0.566406 -2.082031 0.730469 -2.332031 1.058594 -2.464844 C 0.851562 -2.566406 0.609375 -2.601562 0.339844 -2.570312 C 0.390625 -2.921875 0.550781 -3.210938 0.816406 -3.4375 C 1.085938 -3.664062 1.402344 -3.777344 1.765625 -3.777344 C 2.175781 -3.777344 2.503906 -3.664062 2.75 -3.4375 C 2.992188 -3.210938 3.117188 -2.898438 3.117188 -2.503906 Z "/>
</g>
<g id="glyph-0-27">
<path d="M 3.15625 -0.367188 L 3.078125 0 L 0.246094 0 C 0.269531 -0.15625 0.316406 -0.335938 0.378906 -0.539062 C 0.648438 -0.816406 0.949219 -1.109375 1.273438 -1.425781 C 1.601562 -1.742188 1.96875 -2.140625 2.371094 -2.625 C 2.570312 -2.894531 2.671875 -3.15625 2.671875 -3.398438 C 2.671875 -3.644531 2.59375 -3.835938 2.4375 -3.964844 C 2.277344 -4.097656 2.074219 -4.164062 1.824219 -4.164062 C 1.257812 -4.164062 0.933594 -3.882812 0.859375 -3.316406 L 0.519531 -3.410156 C 0.558594 -3.773438 0.703125 -4.054688 0.953125 -4.25 C 1.179688 -4.425781 1.472656 -4.515625 1.832031 -4.515625 C 2.183594 -4.515625 2.472656 -4.40625 2.699219 -4.1875 C 2.925781 -3.972656 3.039062 -3.699219 3.039062 -3.371094 C 3.039062 -2.894531 2.664062 -2.292969 1.90625 -1.566406 C 1.359375 -1.027344 0.972656 -0.625 0.746094 -0.367188 Z "/>
</g>
<g id="glyph-0-28">
<path d="M 2.824219 -0.453125 L 2.957031 -0.148438 C 2.683594 0.0078125 2.355469 0.0859375 1.964844 0.0859375 C 1.433594 0.0859375 1.019531 -0.0664062 0.714844 -0.371094 C 0.40625 -0.679688 0.253906 -1.085938 0.253906 -1.597656 C 0.253906 -2.105469 0.40625 -2.515625 0.714844 -2.820312 C 1.019531 -3.125 1.433594 -3.277344 1.964844 -3.277344 C 2.355469 -3.277344 2.683594 -3.199219 2.957031 -3.042969 L 2.824219 -2.738281 C 2.589844 -2.890625 2.296875 -2.964844 1.945312 -2.964844 C 1.5625 -2.964844 1.246094 -2.84375 0.996094 -2.601562 C 0.746094 -2.355469 0.625 -2.019531 0.625 -1.597656 C 0.625 -1.171875 0.746094 -0.835938 0.996094 -0.59375 C 1.246094 -0.347656 1.5625 -0.226562 1.945312 -0.226562 C 2.296875 -0.226562 2.589844 -0.300781 2.824219 -0.453125 Z "/>
</g>
<g id="glyph-0-29">
<path d="M 5.183594 0 L 4.816406 0 L 4.816406 -1.769531 C 4.816406 -2.132812 4.742188 -2.425781 4.59375 -2.640625 C 4.445312 -2.855469 4.230469 -2.964844 3.949219 -2.964844 C 3.703125 -2.964844 3.488281 -2.871094 3.300781 -2.679688 C 3.113281 -2.488281 3.023438 -2.273438 3.023438 -2.035156 L 3.023438 0 L 2.652344 0 L 2.652344 -1.9375 C 2.652344 -2.625 2.382812 -2.964844 1.839844 -2.964844 C 1.589844 -2.964844 1.363281 -2.855469 1.160156 -2.640625 C 0.960938 -2.425781 0.859375 -2.191406 0.859375 -1.9375 L 0.859375 0 L 0.492188 0 L 0.492188 -2.417969 C 0.492188 -2.585938 0.46875 -2.851562 0.425781 -3.210938 L 0.773438 -3.210938 C 0.820312 -3.078125 0.84375 -2.886719 0.851562 -2.636719 C 1.09375 -3.0625 1.453125 -3.277344 1.925781 -3.277344 C 2.359375 -3.277344 2.683594 -3.039062 2.898438 -2.558594 C 3.152344 -3.039062 3.535156 -3.277344 4.050781 -3.277344 C 4.402344 -3.277344 4.679688 -3.144531 4.882812 -2.875 C 5.085938 -2.609375 5.183594 -2.246094 5.183594 -1.785156 Z "/>
</g>
<g id="glyph-0-30">
<path d="M 1.777344 -0.585938 C 1.777344 -0.410156 1.714844 -0.257812 1.589844 -0.132812 C 1.46875 -0.0078125 1.320312 0.0585938 1.144531 0.0585938 C 0.949219 0.0585938 0.785156 -0.0117188 0.660156 -0.152344 C 0.554688 -0.269531 0.5 -0.414062 0.5 -0.585938 L 0.5 -3.777344 L 0.839844 -3.777344 L 0.839844 -1.144531 C 0.929688 -1.191406 1.03125 -1.21875 1.144531 -1.21875 C 1.320312 -1.21875 1.46875 -1.15625 1.589844 -1.035156 C 1.714844 -0.910156 1.777344 -0.761719 1.777344 -0.585938 M 1.464844 -0.582031 C 1.464844 -0.671875 1.433594 -0.746094 1.371094 -0.8125 C 1.304688 -0.875 1.230469 -0.90625 1.144531 -0.90625 C 1.054688 -0.90625 0.980469 -0.875 0.917969 -0.8125 C 0.851562 -0.746094 0.820312 -0.671875 0.820312 -0.582031 C 0.820312 -0.492188 0.851562 -0.414062 0.917969 -0.351562 C 0.980469 -0.285156 1.054688 -0.253906 1.144531 -0.253906 C 1.230469 -0.253906 1.304688 -0.285156 1.371094 -0.351562 C 1.433594 -0.414062 1.464844 -0.492188 1.464844 -0.582031 M 3.410156 -0.585938 C 3.410156 -0.410156 3.347656 -0.257812 3.226562 -0.132812 C 3.101562 -0.0078125 2.953125 0.0585938 2.777344 0.0585938 C 2.582031 0.0585938 2.421875 -0.0117188 2.292969 -0.152344 C 2.1875 -0.269531 2.132812 -0.414062 2.132812 -0.585938 L 2.132812 -3.777344 L 2.472656 -3.777344 L 2.472656 -1.144531 C 2.5625 -1.191406 2.664062 -1.21875 2.777344 -1.21875 C 2.953125 -1.21875 3.101562 -1.15625 3.226562 -1.035156 C 3.347656 -0.910156 3.410156 -0.761719 3.410156 -0.585938 M 3.097656 -0.582031 C 3.097656 -0.671875 3.066406 -0.746094 3.003906 -0.8125 C 2.941406 -0.875 2.863281 -0.90625 2.777344 -0.90625 C 2.6875 -0.90625 2.613281 -0.875 2.550781 -0.8125 C 2.488281 -0.746094 2.457031 -0.671875 2.457031 -0.582031 C 2.457031 -0.492188 2.488281 -0.414062 2.550781 -0.351562 C 2.613281 -0.285156 2.6875 -0.253906 2.777344 -0.253906 C 2.863281 -0.253906 2.941406 -0.285156 3.003906 -0.351562 C 3.066406 -0.414062 3.097656 -0.492188 3.097656 -0.582031 Z "/>
</g>
<g id="glyph-0-31">
<path d="M 2.863281 -3.609375 C 2.847656 -3.179688 2.71875 -2.828125 2.472656 -2.554688 C 2.230469 -2.28125 1.910156 -2.144531 1.519531 -2.144531 C 1.199219 -2.144531 0.929688 -2.203125 0.707031 -2.324219 C 0.429688 -2.46875 0.292969 -2.683594 0.292969 -2.976562 C 0.292969 -3.136719 0.351562 -3.28125 0.472656 -3.398438 C 0.589844 -3.519531 0.730469 -3.578125 0.890625 -3.578125 C 1.054688 -3.578125 1.195312 -3.519531 1.3125 -3.398438 C 1.433594 -3.28125 1.492188 -3.136719 1.492188 -2.976562 C 1.492188 -2.761719 1.402344 -2.59375 1.226562 -2.472656 C 1.328125 -2.449219 1.40625 -2.4375 1.460938 -2.4375 C 1.804688 -2.449219 2.0625 -2.5625 2.238281 -2.773438 C 2.414062 -2.984375 2.507812 -3.261719 2.523438 -3.609375 L 2.863281 -3.609375 M 1.179688 -2.96875 C 1.179688 -3.058594 1.152344 -3.128906 1.09375 -3.183594 C 1.039062 -3.238281 0.964844 -3.269531 0.878906 -3.269531 C 0.789062 -3.269531 0.71875 -3.238281 0.664062 -3.183594 C 0.613281 -3.128906 0.585938 -3.058594 0.585938 -2.96875 C 0.585938 -2.882812 0.613281 -2.8125 0.664062 -2.761719 C 0.71875 -2.707031 0.789062 -2.683594 0.878906 -2.683594 C 0.964844 -2.683594 1.039062 -2.707031 1.09375 -2.761719 C 1.152344 -2.8125 1.179688 -2.882812 1.179688 -2.96875 M 2.863281 -1.613281 C 2.847656 -1.183594 2.71875 -0.832031 2.472656 -0.554688 C 2.230469 -0.28125 1.910156 -0.140625 1.519531 -0.140625 C 1.199219 -0.140625 0.929688 -0.203125 0.707031 -0.324219 C 0.429688 -0.46875 0.292969 -0.6875 0.292969 -0.976562 C 0.292969 -1.144531 0.351562 -1.285156 0.472656 -1.40625 C 0.589844 -1.527344 0.730469 -1.585938 0.890625 -1.585938 C 1.054688 -1.585938 1.195312 -1.527344 1.3125 -1.40625 C 1.433594 -1.285156 1.492188 -1.140625 1.492188 -0.976562 C 1.492188 -0.761719 1.402344 -0.59375 1.226562 -0.472656 C 1.328125 -0.445312 1.40625 -0.433594 1.460938 -0.433594 C 1.804688 -0.445312 2.0625 -0.558594 2.238281 -0.773438 C 2.414062 -0.984375 2.507812 -1.265625 2.523438 -1.613281 L 2.863281 -1.613281 M 1.179688 -0.972656 C 1.179688 -1.0625 1.152344 -1.132812 1.09375 -1.191406 C 1.039062 -1.246094 0.964844 -1.273438 0.878906 -1.273438 C 0.789062 -1.273438 0.71875 -1.246094 0.664062 -1.191406 C 0.613281 -1.132812 0.585938 -1.0625 0.585938 -0.972656 C 0.585938 -0.882812 0.613281 -0.8125 0.664062 -0.761719 C 0.71875 -0.707031 0.789062 -0.679688 0.878906 -0.679688 C 0.964844 -0.679688 1.039062 -0.707031 1.09375 -0.761719 C 1.152344 -0.8125 1.179688 -0.882812 1.179688 -0.972656 Z "/>
</g>
<g id="glyph-0-32">
<path d="M 3.164062 0 L 2.824219 0 L 2.824219 -2.457031 C 2.824219 -2.921875 2.671875 -3.246094 2.367188 -3.429688 L 1.761719 -2.871094 L 1.117188 -3.429688 C 0.800781 -3.226562 0.640625 -2.898438 0.640625 -2.445312 C 0.640625 -2.25 0.691406 -1.980469 0.792969 -1.636719 C 0.894531 -1.296875 0.945312 -0.996094 0.945312 -0.746094 C 1.007812 -0.871094 1.136719 -1.011719 1.332031 -1.171875 C 1.527344 -1.328125 1.65625 -1.453125 1.71875 -1.546875 C 1.574219 -1.5625 1.453125 -1.617188 1.355469 -1.71875 C 1.257812 -1.820312 1.207031 -1.949219 1.207031 -2.101562 C 1.207031 -2.261719 1.261719 -2.394531 1.363281 -2.5 C 1.46875 -2.609375 1.597656 -2.664062 1.757812 -2.664062 C 1.914062 -2.664062 2.046875 -2.609375 2.152344 -2.503906 C 2.261719 -2.394531 2.3125 -2.261719 2.3125 -2.105469 C 2.3125 -1.8125 2.09375 -1.464844 1.648438 -1.0625 C 1.203125 -0.65625 0.972656 -0.304688 0.953125 0 L 0.613281 0 L 0.613281 -0.851562 C 0.613281 -1.03125 0.5625 -1.292969 0.457031 -1.628906 C 0.355469 -1.964844 0.300781 -2.222656 0.300781 -2.398438 C 0.300781 -2.707031 0.371094 -2.988281 0.511719 -3.238281 C 0.671875 -3.523438 0.898438 -3.703125 1.179688 -3.777344 L 1.765625 -3.257812 L 2.304688 -3.777344 C 2.582031 -3.726562 2.796875 -3.566406 2.957031 -3.296875 C 3.09375 -3.0625 3.164062 -2.796875 3.164062 -2.503906 L 3.164062 0 M 2.066406 -2.105469 C 2.066406 -2.1875 2.039062 -2.257812 1.984375 -2.3125 C 1.925781 -2.371094 1.855469 -2.398438 1.777344 -2.398438 C 1.695312 -2.398438 1.625 -2.371094 1.566406 -2.3125 C 1.511719 -2.257812 1.484375 -2.1875 1.484375 -2.105469 C 1.484375 -2.023438 1.511719 -1.953125 1.566406 -1.898438 C 1.625 -1.839844 1.695312 -1.8125 1.777344 -1.8125 C 1.855469 -1.8125 1.925781 -1.839844 1.984375 -1.898438 C 2.039062 -1.953125 2.066406 -2.023438 2.066406 -2.105469 Z "/>
</g>
<g id="glyph-0-33">
<path d="M 2.699219 0 L 0.917969 0 L 0.917969 -0.339844 L 1.625 -0.339844 L 1.625 -3.9375 L 0.917969 -3.324219 L 0.707031 -3.558594 L 1.789062 -4.515625 C 1.925781 -4.515625 1.992188 -4.394531 1.992188 -4.15625 L 1.992188 -0.339844 L 2.699219 -0.339844 Z "/>
</g>
<g id="glyph-0-34">
<path d="M 1.085938 -0.265625 C 1.085938 -0.175781 1.054688 -0.101562 0.988281 -0.0390625 C 0.921875 0.0234375 0.84375 0.0585938 0.753906 0.0585938 C 0.667969 0.0585938 0.59375 0.0234375 0.527344 -0.0390625 C 0.464844 -0.101562 0.433594 -0.175781 0.433594 -0.265625 C 0.433594 -0.351562 0.464844 -0.429688 0.527344 -0.496094 C 0.59375 -0.5625 0.667969 -0.59375 0.753906 -0.59375 C 0.84375 -0.59375 0.921875 -0.5625 0.988281 -0.496094 C 1.054688 -0.429688 1.085938 -0.351562 1.085938 -0.265625 Z "/>
</g>
<g id="glyph-0-35">
<path d="M 3.003906 -1.546875 C 3.003906 -1.0625 2.839844 -0.671875 2.511719 -0.371094 C 2.183594 -0.0742188 1.761719 0.0742188 1.246094 0.0742188 C 0.8125 0.0742188 0.472656 -0.0390625 0.226562 -0.273438 L 0.386719 -0.566406 C 0.476562 -0.511719 0.570312 -0.457031 0.671875 -0.40625 C 0.847656 -0.324219 1.0625 -0.285156 1.320312 -0.285156 C 1.664062 -0.285156 1.960938 -0.394531 2.222656 -0.613281 C 2.484375 -0.835938 2.617188 -1.144531 2.617188 -1.539062 C 2.617188 -1.878906 2.503906 -2.132812 2.277344 -2.304688 C 2.085938 -2.457031 1.839844 -2.53125 1.539062 -2.53125 C 1.273438 -2.53125 1.0625 -2.425781 0.90625 -2.21875 L 0.707031 -2.199219 L 0.839844 -4.484375 L 2.863281 -4.484375 L 2.796875 -4.128906 L 1.207031 -4.128906 L 1.125 -2.796875 C 1.289062 -2.859375 1.464844 -2.890625 1.652344 -2.890625 C 2.019531 -2.890625 2.328125 -2.777344 2.585938 -2.550781 C 2.863281 -2.296875 3.003906 -1.964844 3.003906 -1.546875 Z "/>
</g>
<g id="glyph-0-36">
<path d="M -0.527344 2.191406 L -0.867188 2.191406 L -0.867188 1.425781 C -0.917969 1.445312 -0.972656 1.453125 -1.035156 1.453125 C -1.171875 1.453125 -1.289062 1.40625 -1.386719 1.308594 C -1.480469 1.210938 -1.53125 1.09375 -1.53125 0.953125 C -1.53125 0.816406 -1.480469 0.699219 -1.382812 0.601562 C -1.285156 0.503906 -1.167969 0.453125 -1.03125 0.453125 C -0.890625 0.453125 -0.773438 0.503906 -0.675781 0.601562 C -0.578125 0.699219 -0.527344 0.816406 -0.527344 0.953125 L -0.527344 2.191406 M -0.785156 0.945312 C -0.785156 0.875 -0.808594 0.816406 -0.855469 0.769531 C -0.902344 0.722656 -0.960938 0.699219 -1.03125 0.699219 C -1.097656 0.699219 -1.15625 0.722656 -1.203125 0.769531 C -1.25 0.816406 -1.273438 0.875 -1.273438 0.945312 C -1.273438 1.011719 -1.25 1.070312 -1.203125 1.117188 C -1.15625 1.167969 -1.097656 1.191406 -1.03125 1.191406 C -0.960938 1.191406 -0.902344 1.167969 -0.855469 1.117188 C -0.808594 1.070312 -0.785156 1.011719 -0.785156 0.945312 Z "/>
</g>
<g id="glyph-0-37">
<path d="M 2.398438 -0.546875 C 2.398438 -0.378906 2.34375 -0.230469 2.230469 -0.109375 C 2.117188 0.015625 1.964844 0.0742188 1.777344 0.0742188 C 1.605469 0.0742188 1.460938 0.015625 1.335938 -0.109375 C 1.214844 -0.234375 1.152344 -0.382812 1.152344 -0.550781 C 1.152344 -0.722656 1.214844 -0.871094 1.335938 -0.996094 C 1.460938 -1.117188 1.605469 -1.179688 1.777344 -1.179688 C 1.882812 -1.179688 1.976562 -1.15625 2.058594 -1.113281 L 2.058594 -2.097656 C 2.058594 -2.355469 1.453125 -2.582031 0.234375 -2.777344 C 0.273438 -3.445312 0.578125 -3.777344 1.152344 -3.777344 C 1.285156 -3.777344 1.472656 -3.746094 1.714844 -3.679688 C 1.957031 -3.613281 2.132812 -3.578125 2.238281 -3.578125 C 2.300781 -3.578125 2.359375 -3.652344 2.417969 -3.796875 L 2.710938 -3.722656 C 2.617188 -3.417969 2.457031 -3.269531 2.230469 -3.269531 C 2.097656 -3.269531 1.90625 -3.300781 1.65625 -3.367188 C 1.410156 -3.433594 1.222656 -3.464844 1.09375 -3.464844 C 0.980469 -3.464844 0.875 -3.417969 0.777344 -3.324219 C 0.679688 -3.226562 0.628906 -3.128906 0.625 -3.03125 C 1.027344 -2.960938 1.421875 -2.859375 1.8125 -2.71875 C 2.203125 -2.582031 2.398438 -2.382812 2.398438 -2.125 L 2.398438 -0.546875 M 2.097656 -0.550781 C 2.097656 -0.640625 2.066406 -0.714844 2.003906 -0.777344 C 1.941406 -0.835938 1.867188 -0.867188 1.78125 -0.867188 C 1.691406 -0.867188 1.617188 -0.835938 1.558594 -0.777344 C 1.496094 -0.714844 1.464844 -0.640625 1.464844 -0.550781 C 1.464844 -0.464844 1.496094 -0.390625 1.558594 -0.328125 C 1.617188 -0.265625 1.691406 -0.234375 1.78125 -0.234375 C 1.867188 -0.234375 1.941406 -0.265625 2.003906 -0.328125 C 2.066406 -0.390625 2.097656 -0.464844 2.097656 -0.550781 Z "/>
</g>
<g id="glyph-0-38">
<path d="M 3.503906 0 L 3.164062 0 L 3.164062 -2.039062 C 3.164062 -2.328125 3.089844 -2.472656 2.9375 -2.472656 C 2.84375 -2.472656 2.730469 -2.363281 2.597656 -2.144531 L 1.378906 0 L 1.066406 0 L 1.066406 -2.597656 C 0.984375 -2.554688 0.890625 -2.53125 0.785156 -2.53125 C 0.613281 -2.53125 0.46875 -2.59375 0.34375 -2.714844 C 0.222656 -2.839844 0.160156 -2.984375 0.160156 -3.15625 C 0.160156 -3.324219 0.222656 -3.46875 0.34375 -3.59375 C 0.46875 -3.714844 0.613281 -3.777344 0.785156 -3.777344 C 0.953125 -3.777344 1.101562 -3.714844 1.222656 -3.59375 C 1.347656 -3.46875 1.40625 -3.324219 1.40625 -3.15625 L 1.40625 -1.105469 C 1.40625 -1.046875 1.390625 -0.851562 1.359375 -0.519531 C 1.433594 -0.675781 1.503906 -0.816406 1.566406 -0.9375 L 2.332031 -2.347656 C 2.421875 -2.503906 2.527344 -2.613281 2.652344 -2.675781 C 2.496094 -2.796875 2.417969 -2.957031 2.417969 -3.15625 C 2.417969 -3.324219 2.480469 -3.472656 2.601562 -3.59375 C 2.726562 -3.714844 2.875 -3.777344 3.046875 -3.777344 C 3.21875 -3.777344 3.363281 -3.714844 3.488281 -3.59375 C 3.613281 -3.46875 3.671875 -3.324219 3.671875 -3.15625 C 3.671875 -2.914062 3.566406 -2.734375 3.351562 -2.617188 C 3.453125 -2.507812 3.503906 -2.316406 3.503906 -2.039062 L 3.503906 0 M 1.105469 -3.15625 C 1.105469 -3.238281 1.074219 -3.3125 1.011719 -3.375 C 0.949219 -3.433594 0.875 -3.464844 0.789062 -3.464844 C 0.703125 -3.464844 0.628906 -3.433594 0.566406 -3.375 C 0.503906 -3.3125 0.472656 -3.238281 0.472656 -3.15625 C 0.472656 -3.070312 0.503906 -2.996094 0.566406 -2.933594 C 0.628906 -2.875 0.703125 -2.84375 0.789062 -2.84375 C 0.875 -2.84375 0.949219 -2.875 1.011719 -2.933594 C 1.074219 -2.996094 1.105469 -3.070312 1.105469 -3.15625 M 3.363281 -3.15625 C 3.363281 -3.238281 3.332031 -3.3125 3.269531 -3.375 C 3.207031 -3.433594 3.132812 -3.464844 3.046875 -3.464844 C 2.957031 -3.464844 2.882812 -3.433594 2.824219 -3.375 C 2.761719 -3.3125 2.730469 -3.238281 2.730469 -3.15625 C 2.730469 -3.070312 2.761719 -2.996094 2.824219 -2.933594 C 2.882812 -2.875 2.957031 -2.84375 3.046875 -2.84375 C 3.132812 -2.84375 3.207031 -2.875 3.269531 -2.933594 C 3.332031 -2.996094 3.363281 -3.070312 3.363281 -3.15625 Z "/>
</g>
<g id="glyph-0-39">
<path d="M -0.539062 -4.53125 L -0.878906 -4.53125 L -0.878906 -5.894531 L -0.539062 -5.894531 Z "/>
</g>
<g id="glyph-0-40">
<path d="M 2.246094 0 L 1.90625 0 L 0.152344 -1.964844 L 0.339844 -2.179688 L 1.90625 -0.480469 L 1.90625 -2.597656 C 1.820312 -2.554688 1.722656 -2.53125 1.613281 -2.53125 C 1.445312 -2.53125 1.296875 -2.59375 1.175781 -2.714844 C 1.054688 -2.839844 0.992188 -2.980469 0.992188 -3.144531 C 0.992188 -3.328125 1.050781 -3.480469 1.171875 -3.597656 C 1.289062 -3.71875 1.4375 -3.777344 1.613281 -3.777344 C 1.816406 -3.777344 1.976562 -3.710938 2.097656 -3.578125 C 2.199219 -3.460938 2.246094 -3.316406 2.246094 -3.144531 L 2.246094 0 M 1.9375 -3.164062 C 1.9375 -3.25 1.90625 -3.328125 1.84375 -3.390625 C 1.78125 -3.453125 1.707031 -3.484375 1.621094 -3.484375 C 1.53125 -3.484375 1.457031 -3.453125 1.394531 -3.390625 C 1.335938 -3.328125 1.304688 -3.25 1.304688 -3.164062 C 1.304688 -3.074219 1.335938 -3 1.394531 -2.9375 C 1.457031 -2.875 1.53125 -2.84375 1.621094 -2.84375 C 1.707031 -2.84375 1.78125 -2.875 1.84375 -2.9375 C 1.90625 -3 1.9375 -3.074219 1.9375 -3.164062 Z "/>
</g>
<g id="glyph-0-41">
<path d="M 0.460938 -5.847656 C 0.457031 -5.417969 0.316406 -5.066406 0.0390625 -4.792969 C -0.238281 -4.519531 -0.589844 -4.382812 -1.011719 -4.382812 C -1.375 -4.382812 -1.667969 -4.457031 -1.890625 -4.609375 C -2.109375 -4.761719 -2.21875 -4.957031 -2.21875 -5.203125 C -2.21875 -5.367188 -2.160156 -5.507812 -2.039062 -5.628906 C -1.917969 -5.75 -1.773438 -5.808594 -1.609375 -5.808594 C -1.445312 -5.808594 -1.300781 -5.75 -1.183594 -5.632812 C -1.0625 -5.515625 -1 -5.375 -1 -5.214844 C -1 -5 -1.097656 -4.828125 -1.292969 -4.703125 C -1.207031 -4.683594 -1.089844 -4.675781 -0.945312 -4.675781 C -0.636719 -4.679688 -0.378906 -4.804688 -0.179688 -5.042969 C -0.00390625 -5.261719 0.0898438 -5.53125 0.105469 -5.847656 L 0.460938 -5.847656 M -1.3125 -5.226562 C -1.3125 -5.316406 -1.34375 -5.390625 -1.402344 -5.453125 C -1.460938 -5.511719 -1.53125 -5.542969 -1.613281 -5.542969 C -1.695312 -5.542969 -1.769531 -5.511719 -1.832031 -5.453125 C -1.894531 -5.390625 -1.925781 -5.316406 -1.925781 -5.226562 C -1.925781 -5.136719 -1.894531 -5.0625 -1.832031 -5.007812 C -1.769531 -4.949219 -1.695312 -4.921875 -1.613281 -4.921875 C -1.53125 -4.921875 -1.460938 -4.949219 -1.402344 -5.007812 C -1.34375 -5.0625 -1.3125 -5.136719 -1.3125 -5.226562 Z "/>
</g>
<g id="glyph-0-42">
<path d="M 3.511719 -0.804688 C 3.511719 -0.21875 3.105469 0.0742188 2.292969 0.0742188 C 1.476562 0.0742188 1.066406 -0.21875 1.066406 -0.804688 L 1.066406 -2.597656 C 0.984375 -2.554688 0.890625 -2.53125 0.785156 -2.53125 C 0.613281 -2.53125 0.46875 -2.59375 0.34375 -2.714844 C 0.222656 -2.839844 0.160156 -2.984375 0.160156 -3.15625 C 0.160156 -3.324219 0.222656 -3.46875 0.34375 -3.59375 C 0.46875 -3.714844 0.613281 -3.777344 0.785156 -3.777344 C 0.953125 -3.777344 1.101562 -3.714844 1.222656 -3.59375 C 1.347656 -3.46875 1.40625 -3.324219 1.40625 -3.15625 L 1.40625 -0.832031 C 1.40625 -0.433594 1.703125 -0.234375 2.292969 -0.234375 C 2.878906 -0.234375 3.171875 -0.433594 3.171875 -0.832031 L 3.171875 -3.703125 L 3.511719 -3.703125 L 3.511719 -0.804688 M 1.105469 -3.15625 C 1.105469 -3.238281 1.074219 -3.3125 1.011719 -3.375 C 0.949219 -3.433594 0.875 -3.464844 0.789062 -3.464844 C 0.703125 -3.464844 0.628906 -3.433594 0.566406 -3.375 C 0.503906 -3.3125 0.472656 -3.238281 0.472656 -3.15625 C 0.472656 -3.070312 0.503906 -2.996094 0.566406 -2.933594 C 0.628906 -2.875 0.703125 -2.84375 0.789062 -2.84375 C 0.875 -2.84375 0.949219 -2.875 1.011719 -2.933594 C 1.074219 -2.996094 1.105469 -3.070312 1.105469 -3.15625 Z "/>
</g>
<g id="glyph-0-43">
<path d="M 1.777344 -0.585938 C 1.777344 -0.410156 1.714844 -0.257812 1.589844 -0.132812 C 1.46875 -0.0078125 1.320312 0.0585938 1.144531 0.0585938 C 0.949219 0.0585938 0.785156 -0.0117188 0.660156 -0.152344 C 0.554688 -0.269531 0.5 -0.414062 0.5 -0.585938 L 0.5 -3.777344 L 0.839844 -3.777344 L 0.839844 -1.144531 C 0.929688 -1.191406 1.03125 -1.21875 1.144531 -1.21875 C 1.320312 -1.21875 1.46875 -1.15625 1.589844 -1.035156 C 1.714844 -0.910156 1.777344 -0.761719 1.777344 -0.585938 M 1.464844 -0.582031 C 1.464844 -0.671875 1.433594 -0.746094 1.371094 -0.8125 C 1.304688 -0.875 1.230469 -0.90625 1.144531 -0.90625 C 1.054688 -0.90625 0.980469 -0.875 0.917969 -0.8125 C 0.851562 -0.746094 0.820312 -0.671875 0.820312 -0.582031 C 0.820312 -0.492188 0.851562 -0.414062 0.917969 -0.351562 C 0.980469 -0.285156 1.054688 -0.253906 1.144531 -0.253906 C 1.230469 -0.253906 1.304688 -0.285156 1.371094 -0.351562 C 1.433594 -0.414062 1.464844 -0.492188 1.464844 -0.582031 Z "/>
</g>
<g id="glyph-0-44">
<path d="M 3.511719 -0.804688 C 3.511719 -0.21875 3.105469 0.0742188 2.292969 0.0742188 C 1.476562 0.0742188 1.066406 -0.21875 1.066406 -0.804688 L 1.066406 -2.597656 C 0.984375 -2.554688 0.890625 -2.53125 0.785156 -2.53125 C 0.613281 -2.53125 0.46875 -2.59375 0.34375 -2.714844 C 0.222656 -2.839844 0.160156 -2.984375 0.160156 -3.15625 C 0.160156 -3.324219 0.222656 -3.46875 0.34375 -3.59375 C 0.46875 -3.714844 0.613281 -3.777344 0.785156 -3.777344 C 0.953125 -3.777344 1.101562 -3.714844 1.222656 -3.59375 C 1.347656 -3.46875 1.40625 -3.324219 1.40625 -3.15625 L 1.40625 -0.832031 C 1.40625 -0.433594 1.703125 -0.234375 2.292969 -0.234375 C 2.878906 -0.234375 3.171875 -0.433594 3.171875 -0.832031 L 3.171875 -5.277344 L 3.511719 -5.277344 L 3.511719 -0.804688 M 1.105469 -3.15625 C 1.105469 -3.238281 1.074219 -3.3125 1.011719 -3.375 C 0.949219 -3.433594 0.875 -3.464844 0.789062 -3.464844 C 0.703125 -3.464844 0.628906 -3.433594 0.566406 -3.375 C 0.503906 -3.3125 0.472656 -3.238281 0.472656 -3.15625 C 0.472656 -3.070312 0.503906 -2.996094 0.566406 -2.933594 C 0.628906 -2.875 0.703125 -2.84375 0.789062 -2.84375 C 0.875 -2.84375 0.949219 -2.875 1.011719 -2.933594 C 1.074219 -2.996094 1.105469 -3.070312 1.105469 -3.15625 Z "/>
</g>
<g id="glyph-0-45">
<path d="M -1.257812 -4.824219 C -1.257812 -4.6875 -1.304688 -4.574219 -1.402344 -4.484375 C -1.5 -4.398438 -1.613281 -4.355469 -1.738281 -4.355469 C -2.003906 -4.355469 -2.304688 -4.488281 -2.644531 -4.761719 C -2.8125 -4.703125 -2.976562 -4.566406 -3.125 -4.34375 C -3.378906 -4.5 -3.503906 -4.746094 -3.503906 -5.082031 C -3.503906 -5.570312 -3.234375 -5.816406 -2.695312 -5.816406 L -2.070312 -5.816406 C -1.761719 -5.816406 -1.597656 -6.042969 -1.578125 -6.496094 L -1.265625 -6.496094 C -1.265625 -6.230469 -1.335938 -6.003906 -1.472656 -5.824219 C -1.613281 -5.644531 -1.816406 -5.554688 -2.085938 -5.554688 L -2.738281 -5.554688 C -3.039062 -5.554688 -3.191406 -5.40625 -3.191406 -5.113281 C -3.191406 -4.972656 -3.15625 -4.847656 -3.089844 -4.742188 C -2.929688 -4.917969 -2.769531 -5.019531 -2.605469 -5.042969 C -2.5 -4.949219 -2.34375 -4.835938 -2.144531 -4.703125 C -2.148438 -4.753906 -2.152344 -4.792969 -2.152344 -4.824219 C -2.152344 -4.953125 -2.109375 -5.058594 -2.027344 -5.140625 C -1.941406 -5.226562 -1.835938 -5.269531 -1.710938 -5.269531 C -1.582031 -5.269531 -1.476562 -5.226562 -1.386719 -5.136719 C -1.300781 -5.050781 -1.257812 -4.945312 -1.257812 -4.824219 M -1.5 -4.824219 C -1.5 -4.882812 -1.523438 -4.929688 -1.5625 -4.972656 C -1.605469 -5.011719 -1.652344 -5.035156 -1.710938 -5.035156 C -1.765625 -5.035156 -1.816406 -5.011719 -1.855469 -4.972656 C -1.898438 -4.929688 -1.917969 -4.882812 -1.917969 -4.824219 C -1.917969 -4.769531 -1.898438 -4.71875 -1.855469 -4.679688 C -1.816406 -4.636719 -1.765625 -4.617188 -1.710938 -4.617188 C -1.652344 -4.617188 -1.605469 -4.636719 -1.5625 -4.679688 C -1.523438 -4.71875 -1.5 -4.769531 -1.5 -4.824219 Z "/>
</g>
<g id="glyph-0-46">
<path d="M 3.105469 -2.140625 C 3.105469 -1.617188 3.007812 -1.144531 2.8125 -0.714844 C 2.554688 -0.167969 2.183594 0.105469 1.703125 0.105469 C 1.21875 0.105469 0.84375 -0.167969 0.585938 -0.714844 C 0.390625 -1.136719 0.292969 -1.613281 0.292969 -2.140625 C 0.292969 -2.773438 0.398438 -3.3125 0.613281 -3.75 C 0.875 -4.261719 1.238281 -4.515625 1.703125 -4.515625 C 2.171875 -4.515625 2.535156 -4.261719 2.796875 -3.75 C 3.003906 -3.3125 3.105469 -2.773438 3.105469 -2.140625 M 2.738281 -2.148438 C 2.738281 -2.699219 2.660156 -3.160156 2.5 -3.539062 C 2.3125 -3.980469 2.046875 -4.203125 1.703125 -4.203125 C 1.355469 -4.203125 1.089844 -3.980469 0.898438 -3.539062 C 0.738281 -3.167969 0.660156 -2.703125 0.660156 -2.148438 C 0.660156 -1.695312 0.738281 -1.285156 0.890625 -0.917969 C 1.078125 -0.445312 1.351562 -0.207031 1.703125 -0.207031 C 2.050781 -0.207031 2.320312 -0.445312 2.511719 -0.917969 C 2.664062 -1.285156 2.738281 -1.695312 2.738281 -2.148438 Z "/>
</g>
<g id="glyph-0-47">
<path d="M 3.183594 0 L 2.84375 0 L 2.84375 -2.539062 C 2.84375 -2.816406 2.734375 -3.039062 2.511719 -3.210938 C 2.46875 -3.171875 2.308594 -3.050781 2.03125 -2.84375 C 2.25 -2.753906 2.359375 -2.578125 2.359375 -2.3125 C 2.359375 -2.164062 2.308594 -2.035156 2.199219 -1.925781 C 2.09375 -1.820312 1.964844 -1.765625 1.8125 -1.765625 C 1.625 -1.765625 1.476562 -1.839844 1.371094 -1.992188 C 1.277344 -1.859375 1.1875 -1.667969 1.097656 -1.421875 C 0.996094 -1.117188 0.945312 -0.851562 0.945312 -0.617188 L 0.945312 0 L 0.605469 0 L 0.605469 -0.867188 C 0.605469 -1.050781 0.554688 -1.308594 0.457031 -1.644531 C 0.359375 -1.976562 0.3125 -2.230469 0.3125 -2.410156 C 0.3125 -2.816406 0.449219 -3.148438 0.726562 -3.398438 C 1.003906 -3.652344 1.351562 -3.777344 1.765625 -3.777344 C 2.03125 -3.777344 2.277344 -3.722656 2.511719 -3.617188 C 2.738281 -3.820312 2.859375 -3.964844 2.871094 -4.0625 L 3.304688 -4.0625 C 3.28125 -3.910156 3.109375 -3.703125 2.796875 -3.4375 C 3.054688 -3.230469 3.183594 -2.941406 3.183594 -2.570312 L 3.183594 0 M 2.238281 -3.382812 C 2.085938 -3.4375 1.921875 -3.464844 1.746094 -3.464844 C 1.453125 -3.464844 1.199219 -3.367188 0.980469 -3.167969 C 0.761719 -2.972656 0.652344 -2.730469 0.652344 -2.441406 C 0.652344 -2.304688 0.675781 -2.136719 0.726562 -1.941406 C 0.796875 -1.667969 0.835938 -1.511719 0.839844 -1.472656 C 0.960938 -2.117188 1.175781 -2.554688 1.488281 -2.796875 L 2.238281 -3.382812 M 2.097656 -2.320312 C 2.097656 -2.398438 2.066406 -2.46875 2.011719 -2.523438 C 1.953125 -2.578125 1.886719 -2.605469 1.804688 -2.605469 C 1.722656 -2.605469 1.652344 -2.578125 1.597656 -2.523438 C 1.539062 -2.46875 1.511719 -2.398438 1.511719 -2.320312 C 1.511719 -2.238281 1.539062 -2.167969 1.597656 -2.113281 C 1.652344 -2.058594 1.722656 -2.03125 1.804688 -2.03125 C 1.886719 -2.03125 1.953125 -2.058594 2.011719 -2.113281 C 2.066406 -2.167969 2.097656 -2.238281 2.097656 -2.320312 Z "/>
</g>
</g>
</defs>
<g fill="rgb(100%, 100%, 100%)" fill-opacity="1">
<use xlink:href="#glyph-0-0" x="30" y="27.969727"/>
<use xlink:href="#glyph-0-1" x="32" y="27.969727"/>
<use xlink:href="#glyph-0-2" x="35" y="27.969727"/>
<use xlink:href="#glyph-0-3" x="39" y="27.969727"/>
<use xlink:href="#glyph-0-4" x="43" y="27.969727"/>
<use xlink:href="#glyph-0-5" x="43" y="27.969727"/>
<use xlink:href="#glyph-0-6" x="47" y="27.969727"/>
<use xlink:href="#glyph-0-7" x="47" y="27.969727"/>
<use xlink:href="#glyph-0-8" x="51" y="27.969727"/>
<use xlink:href="#glyph-0-9" x="53" y="27.969727"/>
<use xlink:href="#glyph-0-9" x="56" y="27.969727"/>
<use xlink:href="#glyph-0-10" x="59" y="27.969727"/>
<use xlink:href="#glyph-0-8" x="61" y="27.969727"/>
<use xlink:href="#glyph-0-11" x="63" y="27.969727"/>
<use xlink:href="#glyph-0-12" x="67" y="27.969727"/>
<use xlink:href="#glyph-0-13" x="71" y="27.969727"/>
<use xlink:href="#glyph-0-14" x="71" y="27.969727"/>
<use xlink:href="#glyph-0-15" x="71" y="27.969727"/>
<use xlink:href="#glyph-0-15" x="75" y="27.969727"/>
<use xlink:href="#glyph-0-16" x="79" y="27.969727"/>
<use xlink:href="#glyph-0-17" x="79" y="27.969727"/>
<use xlink:href="#glyph-0-18" x="82" y="27.969727"/>
<use xlink:href="#glyph-0-15" x="84" y="27.969727"/>
<use xlink:href="#glyph-0-19" x="88" y="27.969727"/>
<use xlink:href="#glyph-0-20" x="92" y="27.969727"/>
<use xlink:href="#glyph-0-21" x="95" y="27.969727"/>
<use xlink:href="#glyph-0-11" x="99" y="27.969727"/>
<use xlink:href="#glyph-0-12" x="103" y="27.969727"/>
<use xlink:href="#glyph-0-13" x="107" y="27.969727"/>
<use xlink:href="#glyph-0-14" x="107" y="27.969727"/>
<use xlink:href="#glyph-0-15" x="107" y="27.969727"/>
<use xlink:href="#glyph-0-22" x="111" y="27.969727"/>
<use xlink:href="#glyph-0-23" x="115" y="27.969727"/>
<use xlink:href="#glyph-0-11" x="115" y="27.969727"/>
<use xlink:href="#glyph-0-24" x="119" y="27.969727"/>
<use xlink:href="#glyph-0-20" x="122" y="27.969727"/>
<use xlink:href="#glyph-0-22" x="125" y="27.969727"/>
<use xlink:href="#glyph-0-3" x="129" y="27.969727"/>
<use xlink:href="#glyph-0-20" x="133" y="27.969727"/>
<use xlink:href="#glyph-0-24" x="136" y="27.969727"/>
<use xlink:href="#glyph-0-11" x="139" y="27.969727"/>
<use xlink:href="#glyph-0-12" x="143" y="27.969727"/>
<use xlink:href="#glyph-0-13" x="147" y="27.969727"/>
<use xlink:href="#glyph-0-14" x="147" y="27.969727"/>
<use xlink:href="#glyph-0-15" x="147" y="27.969727"/>
<use xlink:href="#glyph-0-18" x="151" y="27.969727"/>
<use xlink:href="#glyph-0-15" x="153" y="27.969727"/>
<use xlink:href="#glyph-0-15" x="157" y="27.969727"/>
<use xlink:href="#glyph-0-16" x="161" y="27.969727"/>
<use xlink:href="#glyph-0-17" x="161" y="27.969727"/>
<use xlink:href="#glyph-0-12" x="164" y="27.969727"/>
<use xlink:href="#glyph-0-25" x="168" y="27.969727"/>
<use xlink:href="#glyph-0-26" x="168" y="27.969727"/>
<use xlink:href="#glyph-0-8" x="172" y="27.969727"/>
<use xlink:href="#glyph-0-27" x="174" y="27.969727"/>
<use xlink:href="#glyph-0-8" x="177" y="27.969727"/>
</g>
<g fill="rgb(100%, 100%, 100%)" fill-opacity="1">
<use xlink:href="#glyph-0-28" x="179" y="27.969727"/>
<use xlink:href="#glyph-0-29" x="182" y="27.969727"/>
<use xlink:href="#glyph-0-8" x="188" y="27.969727"/>
</g>
<g fill="rgb(100%, 100%, 100%)" fill-opacity="1">
<use xlink:href="#glyph-0-30" x="190" y="27.969727"/>
<use xlink:href="#glyph-0-12" x="194" y="27.969727"/>
<use xlink:href="#glyph-0-31" x="198" y="27.969727"/>
<use xlink:href="#glyph-0-18" x="201" y="27.969727"/>
<use xlink:href="#glyph-0-15" x="203" y="27.969727"/>
<use xlink:href="#glyph-0-15" x="207" y="27.969727"/>
<use xlink:href="#glyph-0-16" x="211" y="27.969727"/>
<use xlink:href="#glyph-0-17" x="211" y="27.969727"/>
<use xlink:href="#glyph-0-32" x="214" y="27.969727"/>
<use xlink:href="#glyph-0-13" x="218" y="27.969727"/>
<use xlink:href="#glyph-0-16" x="218" y="27.969727"/>
<use xlink:href="#glyph-0-15" x="218" y="27.969727"/>
<use xlink:href="#glyph-0-8" x="222" y="27.969727"/>
<use xlink:href="#glyph-0-33" x="224" y="27.969727"/>
<use xlink:href="#glyph-0-34" x="227" y="27.969727"/>
<use xlink:href="#glyph-0-35" x="229" y="27.969727"/>
<use xlink:href="#glyph-0-8" x="232" y="27.969727"/>
</g>
<g fill="rgb(100%, 100%, 100%)" fill-opacity="1">
<use xlink:href="#glyph-0-28" x="234" y="27.969727"/>
<use xlink:href="#glyph-0-29" x="237" y="27.969727"/>
<use xlink:href="#glyph-0-8" x="243" y="27.969727"/>
</g>
<g fill="rgb(100%, 100%, 100%)" fill-opacity="1">
<use xlink:href="#glyph-0-19" x="245" y="27.969727"/>
<use xlink:href="#glyph-0-6" x="249" y="27.969727"/>
<use xlink:href="#glyph-0-20" x="249" y="27.969727"/>
<use xlink:href="#glyph-0-22" x="252" y="27.969727"/>
<use xlink:href="#glyph-0-36" x="256" y="27.969727"/>
<use xlink:href="#glyph-0-22" x="256" y="27.969727"/>
<use xlink:href="#glyph-0-37" x="260" y="27.969727"/>
<use xlink:href="#glyph-0-31" x="263" y="27.969727"/>
<use xlink:href="#glyph-0-38" x="266" y="27.969727"/>
<use xlink:href="#glyph-0-24" x="270" y="27.969727"/>
<use xlink:href="#glyph-0-39" x="273" y="27.969727"/>
<use xlink:href="#glyph-0-20" x="273" y="27.969727"/>
<use xlink:href="#glyph-0-40" x="276" y="27.969727"/>
<use xlink:href="#glyph-0-38" x="279" y="27.969727"/>
<use xlink:href="#glyph-0-15" x="283" y="27.969727"/>
<use xlink:href="#glyph-0-6" x="287" y="27.969727"/>
<use xlink:href="#glyph-0-20" x="287" y="27.969727"/>
<use xlink:href="#glyph-0-11" x="290" y="27.969727"/>
<use xlink:href="#glyph-0-12" x="294" y="27.969727"/>
<use xlink:href="#glyph-0-13" x="298" y="27.969727"/>
<use xlink:href="#glyph-0-14" x="298" y="27.969727"/>
<use xlink:href="#glyph-0-15" x="298" y="27.969727"/>
<use xlink:href="#glyph-0-18" x="302" y="27.969727"/>
<use xlink:href="#glyph-0-15" x="304" y="27.969727"/>
<use xlink:href="#glyph-0-15" x="308" y="27.969727"/>
<use xlink:href="#glyph-0-16" x="312" y="27.969727"/>
<use xlink:href="#glyph-0-17" x="312" y="27.969727"/>
<use xlink:href="#glyph-0-32" x="315" y="27.969727"/>
<use xlink:href="#glyph-0-13" x="319" y="27.969727"/>
<use xlink:href="#glyph-0-16" x="319" y="27.969727"/>
<use xlink:href="#glyph-0-15" x="319" y="27.969727"/>
<use xlink:href="#glyph-0-26" x="323" y="27.969727"/>
<use xlink:href="#glyph-0-41" x="327" y="27.969727"/>
<use xlink:href="#glyph-0-42" x="327" y="27.969727"/>
<use xlink:href="#glyph-0-37" x="331" y="27.969727"/>
<use xlink:href="#glyph-0-7" x="334" y="27.969727"/>
<use xlink:href="#glyph-0-3" x="338" y="27.969727"/>
<use xlink:href="#glyph-0-32" x="342" y="27.969727"/>
<use xlink:href="#glyph-0-39" x="346" y="27.969727"/>
<use xlink:href="#glyph-0-7" x="346" y="27.969727"/>
<use xlink:href="#glyph-0-43" x="350" y="27.969727"/>
<use xlink:href="#glyph-0-44" x="352" y="27.969727"/>
<use xlink:href="#glyph-0-45" x="356" y="27.969727"/>
<use xlink:href="#glyph-0-15" x="356" y="27.969727"/>
<use xlink:href="#glyph-0-8" x="360" y="27.969727"/>
<use xlink:href="#glyph-0-9" x="362" y="27.969727"/>
<use xlink:href="#glyph-0-46" x="365" y="27.969727"/>
<use xlink:href="#glyph-0-8" x="368" y="27.969727"/>
<use xlink:href="#glyph-0-7" x="370" y="27.969727"/>
<use xlink:href="#glyph-0-40" x="374" y="27.969727"/>
<use xlink:href="#glyph-0-47" x="377" y="27.969727"/>
<use xlink:href="#glyph-0-20" x="381" y="27.969727"/>
<use xlink:href="#glyph-0-8" x="384" y="27.969727"/>
<use xlink:href="#glyph-0-1" x="386" y="27.969727"/>
<use xlink:href="#glyph-0-40" x="389" y="27.969727"/>
<use xlink:href="#glyph-0-38" x="392" y="27.969727"/>
<use xlink:href="#glyph-0-20" x="396" y="27.969727"/>
<use xlink:href="#glyph-0-22" x="399" y="27.969727"/>
<use xlink:href="#glyph-0-36" x="403" y="27.969727"/>
<use xlink:href="#glyph-0-22" x="403" y="27.969727"/>
<use xlink:href="#glyph-0-37" x="407" y="27.969727"/>
<use xlink:href="#glyph-0-31" x="410" y="27.969727"/>
<use xlink:href="#glyph-0-38" x="413" y="27.969727"/>
<use xlink:href="#glyph-0-24" x="417" y="27.969727"/>
<use xlink:href="#glyph-0-39" x="420" y="27.969727"/>
<use xlink:href="#glyph-0-20" x="420" y="27.969727"/>
<use xlink:href="#glyph-0-40" x="423" y="27.969727"/>
<use xlink:href="#glyph-0-38" x="426" y="27.969727"/>
<use xlink:href="#glyph-0-15" x="430" y="27.969727"/>
<use xlink:href="#glyph-0-6" x="434" y="27.969727"/>
<use xlink:href="#glyph-0-20" x="434" y="27.969727"/>
<use xlink:href="#glyph-0-11" x="437" y="27.969727"/>
<use xlink:href="#glyph-0-12" x="441" y="27.969727"/>
<use xlink:href="#glyph-0-13" x="445" y="27.969727"/>
<use xlink:href="#glyph-0-14" x="445" y="27.969727"/>
<use xlink:href="#glyph-0-15" x="445" y="27.969727"/>
<use xlink:href="#glyph-0-18" x="449" y="27.969727"/>
<use xlink:href="#glyph-0-15" x="451" y="27.969727"/>
<use xlink:href="#glyph-0-15" x="455" y="27.969727"/>
<use xlink:href="#glyph-0-16" x="459" y="27.969727"/>
<use xlink:href="#glyph-0-17" x="459" y="27.969727"/>
<use xlink:href="#glyph-0-12" x="462" y="27.969727"/>
<use xlink:href="#glyph-0-25" x="466" y="27.969727"/>
<use xlink:href="#glyph-0-26" x="466" y="27.969727"/>
<use xlink:href="#glyph-0-26" x="470" y="27.969727"/>
<use xlink:href="#glyph-0-41" x="474" y="27.969727"/>
<use xlink:href="#glyph-0-42" x="474" y="27.969727"/>
<use xlink:href="#glyph-0-37" x="478" y="27.969727"/>
<use xlink:href="#glyph-0-7" x="481" y="27.969727"/>
<use xlink:href="#glyph-0-3" x="485" y="27.969727"/>
<use xlink:href="#glyph-0-32" x="489" y="27.969727"/>
<use xlink:href="#glyph-0-39" x="493" y="27.969727"/>
<use xlink:href="#glyph-0-7" x="493" y="27.969727"/>
</g>
</svg>
