<?xml version="1.0" encoding="UTF-8"?>
<svg xmlns="http://www.w3.org/2000/svg" xmlns:xlink="http://www.w3.org/1999/xlink" width="854" height="480" viewBox="0 0 854 480">
<defs>
<g>
<g id="glyph-0-0">
<path d="M 4.332031 0 L 3.851562 0 L 3.851562 -2.171875 C 3.851562 -2.484375 3.691406 -2.734375 3.363281 -2.921875 C 3.089844 -3.070312 2.769531 -3.148438 2.40625 -3.148438 C 2.054688 -3.148438 1.753906 -3.050781 1.503906 -2.859375 C 1.257812 -2.667969 1.132812 -2.421875 1.132812 -2.121094 L 1.121094 -1.558594 C 1.246094 -1.621094 1.390625 -1.652344 1.558594 -1.652344 C 1.808594 -1.652344 2.019531 -1.566406 2.1875 -1.394531 C 2.355469 -1.21875 2.441406 -1.011719 2.441406 -0.773438 C 2.441406 -0.535156 2.355469 -0.328125 2.1875 -0.152344 C 2.019531 0.0195312 1.808594 0.105469 1.558594 0.105469 C 1.285156 0.105469 1.0625 0.0195312 0.894531 -0.160156 C 0.722656 -0.335938 0.640625 -0.546875 0.640625 -0.785156 L 0.640625 -2.113281 C 0.640625 -2.558594 0.816406 -2.921875 1.171875 -3.203125 C 1.503906 -3.46875 1.898438 -3.605469 2.359375 -3.605469 L 2.441406 -3.605469 C 2.839844 -3.929688 3.179688 -4.25 3.453125 -4.5625 C 3.125 -4.78125 2.765625 -4.894531 2.375 -4.894531 C 2 -4.894531 1.664062 -4.8125 1.359375 -4.652344 C 1.03125 -4.476562 0.828125 -4.234375 0.746094 -3.933594 L 0.28125 -3.933594 C 0.34375 -4.34375 0.582031 -4.679688 1 -4.949219 C 1.390625 -5.203125 1.839844 -5.332031 2.347656 -5.332031 C 2.851562 -5.332031 3.3125 -5.203125 3.71875 -4.945312 C 3.90625 -5.160156 4.027344 -5.410156 4.078125 -5.691406 L 4.558594 -5.691406 C 4.496094 -5.335938 4.328125 -4.988281 4.054688 -4.640625 C 4.238281 -4.398438 4.332031 -4.125 4.332031 -3.8125 L 4.332031 0 M 3.851562 -3.078125 L 3.851562 -3.839844 C 3.851562 -3.964844 3.8125 -4.105469 3.734375 -4.265625 C 3.484375 -4 3.21875 -3.761719 2.933594 -3.546875 C 3.308594 -3.457031 3.613281 -3.300781 3.851562 -3.078125 M 2 -0.765625 C 2 -0.890625 1.957031 -0.996094 1.867188 -1.082031 C 1.78125 -1.167969 1.675781 -1.214844 1.554688 -1.214844 C 1.429688 -1.214844 1.328125 -1.167969 1.246094 -1.082031 C 1.160156 -0.996094 1.121094 -0.890625 1.121094 -0.765625 C 1.121094 -0.644531 1.160156 -0.542969 1.246094 -0.457031 C 1.328125 -0.375 1.429688 -0.332031 1.554688 -0.332031 C 1.675781 -0.332031 1.78125 -0.375 1.867188 -0.457031 C 1.957031 -0.542969 2 -0.644531 2 -0.765625 Z "/>
</g>
<g id="glyph-0-1">
<path d="M -0.761719 -6.398438 L -1.238281 -6.398438 L -1.238281 -8.320312 L -0.761719 -8.320312 Z "/>
</g>
<g id="glyph-0-2">
<path d="M 3.71875 -0.773438 C 3.71875 -0.535156 3.632812 -0.328125 3.460938 -0.152344 C 3.285156 0.0195312 3.078125 0.105469 2.839844 0.105469 C 2.601562 0.105469 2.394531 0.0195312 2.21875 -0.15625 C 2.046875 -0.328125 1.960938 -0.539062 1.960938 -0.78125 C 1.960938 -1.023438 2.046875 -1.230469 2.21875 -1.40625 C 2.394531 -1.578125 2.601562 -1.667969 2.839844 -1.667969 C 2.992188 -1.667969 3.125 -1.632812 3.238281 -1.570312 L 3.238281 -3.714844 C 3.238281 -4.5 2.800781 -4.894531 1.921875 -4.894531 C 1.21875 -4.894531 0.785156 -4.574219 0.613281 -3.933594 L 0.132812 -3.933594 C 0.328125 -4.867188 0.933594 -5.332031 1.945312 -5.332031 C 2.453125 -5.332031 2.875 -5.199219 3.214844 -4.933594 C 3.550781 -4.667969 3.71875 -4.289062 3.71875 -3.800781 L 3.71875 -0.773438 M 3.292969 -0.78125 C 3.292969 -0.902344 3.25 -1.007812 3.160156 -1.09375 C 3.074219 -1.183594 2.96875 -1.226562 2.847656 -1.226562 C 2.722656 -1.226562 2.617188 -1.183594 2.53125 -1.09375 C 2.445312 -1.007812 2.398438 -0.902344 2.398438 -0.78125 C 2.398438 -0.65625 2.445312 -0.550781 2.53125 -0.464844 C 2.617188 -0.378906 2.722656 -0.332031 2.847656 -0.332031 C 2.96875 -0.332031 3.074219 -0.378906 3.160156 -0.464844 C 3.25 -0.550781 3.292969 -0.65625 3.292969 -0.78125 Z "/>
</g>
<g id="glyph-0-3">
<path d="M 5.132812 -0.761719 C 5.132812 -0.519531 5.046875 -0.316406 4.871094 -0.148438 C 4.695312 0.0234375 4.488281 0.105469 4.246094 0.105469 C 4.003906 0.105469 3.800781 0.0234375 3.628906 -0.148438 C 3.457031 -0.316406 3.375 -0.519531 3.375 -0.761719 L 3.375 -0.851562 C 2.820312 -0.632812 2.394531 -0.347656 2.09375 0 L 1.507812 0 L 1.507812 -3.667969 C 1.390625 -3.605469 1.257812 -3.574219 1.105469 -3.574219 C 0.867188 -3.574219 0.660156 -3.660156 0.488281 -3.832031 C 0.3125 -4.007812 0.226562 -4.214844 0.226562 -4.453125 C 0.226562 -4.691406 0.3125 -4.898438 0.488281 -5.074219 C 0.660156 -5.246094 0.867188 -5.332031 1.105469 -5.332031 C 1.347656 -5.332031 1.554688 -5.246094 1.726562 -5.074219 C 1.898438 -4.898438 1.988281 -4.691406 1.988281 -4.453125 L 1.988281 -0.519531 C 2.164062 -0.714844 2.480469 -0.914062 2.933594 -1.121094 C 3.441406 -1.351562 3.769531 -1.527344 3.921875 -1.652344 C 4.222656 -1.894531 4.375 -2.199219 4.375 -2.574219 L 4.375 -5.226562 L 4.851562 -5.226562 L 4.851562 -2.507812 C 4.851562 -2.078125 4.753906 -1.769531 4.558594 -1.574219 C 4.941406 -1.421875 5.132812 -1.152344 5.132812 -0.761719 M 1.558594 -4.453125 C 1.558594 -4.574219 1.515625 -4.675781 1.429688 -4.765625 C 1.339844 -4.851562 1.234375 -4.894531 1.113281 -4.894531 C 0.992188 -4.894531 0.886719 -4.851562 0.796875 -4.765625 C 0.710938 -4.675781 0.667969 -4.574219 0.667969 -4.453125 C 0.667969 -4.332031 0.710938 -4.230469 0.796875 -4.144531 C 0.886719 -4.054688 0.992188 -4.011719 1.113281 -4.011719 C 1.234375 -4.011719 1.339844 -4.054688 1.429688 -4.144531 C 1.515625 -4.230469 1.558594 -4.332031 1.558594 -4.453125 M 4.691406 -0.785156 C 4.691406 -0.910156 4.648438 -1.019531 4.558594 -1.105469 C 4.472656 -1.195312 4.363281 -1.238281 4.238281 -1.238281 C 4.117188 -1.238281 4.007812 -1.195312 3.921875 -1.105469 C 3.832031 -1.019531 3.785156 -0.910156 3.785156 -0.785156 C 3.785156 -0.664062 3.832031 -0.554688 3.921875 -0.464844 C 4.007812 -0.378906 4.117188 -0.332031 4.238281 -0.332031 C 4.363281 -0.332031 4.472656 -0.378906 4.558594 -0.464844 C 4.648438 -0.554688 4.691406 -0.664062 4.691406 -0.785156 Z "/>
</g>
<g id="glyph-0-4">
</g>
<g id="glyph-0-5">
<path d="M 4.398438 0 L 3.921875 0 L 3.921875 -3.46875 C 3.921875 -3.90625 3.785156 -4.25 3.511719 -4.507812 C 3.242188 -4.765625 2.894531 -4.894531 2.464844 -4.894531 C 2.164062 -4.894531 1.871094 -4.808594 1.585938 -4.644531 C 1.300781 -4.476562 1.105469 -4.261719 1 -4 C 1.523438 -3.957031 1.882812 -3.761719 2.078125 -3.414062 C 1.867188 -3.367188 1.679688 -3.25 1.519531 -3.058594 C 1.359375 -2.867188 1.28125 -2.65625 1.28125 -2.425781 L 1.28125 0 L 0.800781 0 L 0.800781 -2.414062 C 0.800781 -2.9375 1.03125 -3.292969 1.492188 -3.480469 C 1.199219 -3.621094 0.863281 -3.671875 0.480469 -3.625 C 0.550781 -4.125 0.777344 -4.535156 1.152344 -4.851562 C 1.53125 -5.171875 1.976562 -5.332031 2.492188 -5.332031 C 3.070312 -5.332031 3.535156 -5.171875 3.878906 -4.851562 C 4.226562 -4.535156 4.398438 -4.09375 4.398438 -3.535156 Z "/>
</g>
<g id="glyph-0-6">
<path d="M 1.535156 -0.375 C 1.535156 -0.25 1.488281 -0.140625 1.394531 -0.0546875 C 1.300781 0.0351562 1.191406 0.078125 1.066406 0.078125 C 0.941406 0.078125 0.835938 0.0351562 0.746094 -0.0546875 C 0.65625 -0.140625 0.613281 -0.25 0.613281 -0.375 C 0.613281 -0.496094 0.65625 -0.605469 0.746094 -0.699219 C 0.835938 -0.792969 0.941406 -0.839844 1.066406 -0.839844 C 1.191406 -0.839844 1.300781 -0.792969 1.394531 -0.699219 C 1.488281 -0.605469 1.535156 -0.496094 1.535156 -0.375 M 1.535156 -3.773438 C 1.535156 -3.648438 1.488281 -3.542969 1.394531 -3.453125 C 1.300781 -3.363281 1.191406 -3.320312 1.066406 -3.320312 C 0.941406 -3.320312 0.835938 -3.363281 0.746094 -3.453125 C 0.65625 -3.542969 0.613281 -3.648438 0.613281 -3.773438 C 0.613281 -3.898438 0.65625 -4.007812 0.746094 -4.101562 C 0.835938 -4.191406 0.941406 -4.238281 1.066406 -4.238281 C 1.191406 -4.238281 1.300781 -4.191406 1.394531 -4.101562 C 1.488281 -4.007812 1.535156 -3.898438 1.535156 -3.773438 Z "/>
</g>
<g id="glyph-0-7">
<path d="M 4.945312 0 L 4.464844 0 L 4.464844 -2.878906 C 4.464844 -3.289062 4.359375 -3.492188 4.148438 -3.492188 C 4.011719 -3.492188 3.851562 -3.335938 3.667969 -3.027344 L 1.945312 0 L 1.507812 0 L 1.507812 -3.667969 C 1.390625 -3.605469 1.257812 -3.574219 1.105469 -3.574219 C 0.867188 -3.574219 0.660156 -3.660156 0.488281 -3.832031 C 0.3125 -4.007812 0.226562 -4.214844 0.226562 -4.453125 C 0.226562 -4.691406 0.3125 -4.898438 0.488281 -5.074219 C 0.660156 -5.246094 0.867188 -5.332031 1.105469 -5.332031 C 1.347656 -5.332031 1.554688 -5.246094 1.726562 -5.074219 C 1.898438 -4.898438 1.988281 -4.691406 1.988281 -4.453125 L 1.988281 -1.558594 C 1.988281 -1.480469 1.964844 -1.203125 1.921875 -0.734375 C 2.027344 -0.957031 2.125 -1.152344 2.214844 -1.320312 L 3.292969 -3.3125 C 3.421875 -3.535156 3.570312 -3.691406 3.742188 -3.78125 C 3.523438 -3.949219 3.414062 -4.171875 3.414062 -4.457031 C 3.414062 -4.695312 3.5 -4.902344 3.675781 -5.074219 C 3.851562 -5.246094 4.058594 -5.332031 4.300781 -5.332031 C 4.542969 -5.332031 4.75 -5.246094 4.925781 -5.074219 C 5.097656 -4.898438 5.1875 -4.691406 5.1875 -4.453125 C 5.1875 -4.117188 5.035156 -3.863281 4.734375 -3.691406 C 4.875 -3.542969 4.945312 -3.269531 4.945312 -2.878906 L 4.945312 0 M 1.558594 -4.453125 C 1.558594 -4.574219 1.515625 -4.675781 1.429688 -4.765625 C 1.339844 -4.851562 1.234375 -4.894531 1.113281 -4.894531 C 0.992188 -4.894531 0.886719 -4.851562 0.796875 -4.765625 C 0.710938 -4.675781 0.667969 -4.574219 0.667969 -4.453125 C 0.667969 -4.332031 0.710938 -4.230469 0.796875 -4.144531 C 0.886719 -4.054688 0.992188 -4.011719 1.113281 -4.011719 C 1.234375 -4.011719 1.339844 -4.054688 1.429688 -4.144531 C 1.515625 -4.230469 1.558594 -4.332031 1.558594 -4.453125 M 4.746094 -4.453125 C 4.746094 -4.574219 4.703125 -4.675781 4.617188 -4.765625 C 4.527344 -4.851562 4.421875 -4.894531 4.300781 -4.894531 C 4.175781 -4.894531 4.070312 -4.851562 3.984375 -4.765625 C 3.898438 -4.675781 3.851562 -4.574219 3.851562 -4.453125 C 3.851562 -4.332031 3.898438 -4.230469 3.984375 -4.144531 C 4.070312 -4.054688 4.175781 -4.011719 4.300781 -4.011719 C 4.421875 -4.011719 4.527344 -4.054688 4.617188 -4.144531 C 4.703125 -4.230469 4.746094 -4.332031 4.746094 -4.453125 Z "/>
</g>
<g id="glyph-0-8">
<path d="M 3.464844 0 L 2.988281 0 L 2.988281 -3.976562 C 2.988281 -4.242188 2.886719 -4.460938 2.6875 -4.632812 C 2.488281 -4.808594 2.214844 -4.894531 1.867188 -4.894531 C 1.554688 -4.894531 1.308594 -4.789062 1.121094 -4.578125 C 0.933594 -4.371094 0.832031 -4.148438 0.8125 -3.90625 L 0.320312 -3.90625 C 0.328125 -4.28125 0.476562 -4.609375 0.765625 -4.898438 C 1.054688 -5.1875 1.425781 -5.332031 1.878906 -5.332031 C 2.394531 -5.332031 2.789062 -5.207031 3.058594 -4.960938 C 3.332031 -4.710938 3.464844 -4.382812 3.464844 -3.972656 Z "/>
</g>
<g id="glyph-0-9">
<path d="M 2.507812 -0.828125 C 2.507812 -0.578125 2.421875 -0.363281 2.246094 -0.1875 C 2.074219 -0.0078125 1.863281 0.078125 1.613281 0.078125 C 1.335938 0.078125 1.109375 -0.0195312 0.933594 -0.214844 C 0.78125 -0.382812 0.707031 -0.585938 0.707031 -0.828125 L 0.707031 -5.332031 L 1.1875 -5.332031 L 1.1875 -1.613281 C 1.3125 -1.683594 1.453125 -1.71875 1.613281 -1.71875 C 1.863281 -1.71875 2.074219 -1.632812 2.246094 -1.460938 C 2.421875 -1.285156 2.507812 -1.074219 2.507812 -0.828125 M 2.066406 -0.820312 C 2.066406 -0.945312 2.023438 -1.054688 1.933594 -1.144531 C 1.84375 -1.234375 1.738281 -1.28125 1.613281 -1.28125 C 1.488281 -1.28125 1.382812 -1.234375 1.292969 -1.144531 C 1.203125 -1.054688 1.160156 -0.945312 1.160156 -0.820312 C 1.160156 -0.695312 1.203125 -0.585938 1.292969 -0.496094 C 1.382812 -0.40625 1.488281 -0.359375 1.613281 -0.359375 C 1.738281 -0.359375 1.84375 -0.40625 1.933594 -0.496094 C 2.023438 -0.585938 2.066406 -0.695312 2.066406 -0.820312 Z "/>
</g>
<g id="glyph-0-10">
<path d="M 4.332031 0 L 3.851562 0 L 3.851562 -2.28125 C 3.851562 -2.589844 3.691406 -2.839844 3.363281 -3.027344 C 3.089844 -3.179688 2.769531 -3.253906 2.40625 -3.253906 C 2.054688 -3.253906 1.753906 -3.15625 1.503906 -2.964844 C 1.257812 -2.777344 1.132812 -2.527344 1.132812 -2.226562 L 1.121094 -1.558594 C 1.246094 -1.621094 1.390625 -1.652344 1.558594 -1.652344 C 1.808594 -1.652344 2.019531 -1.566406 2.1875 -1.394531 C 2.355469 -1.21875 2.441406 -1.011719 2.441406 -0.773438 C 2.441406 -0.535156 2.355469 -0.328125 2.1875 -0.152344 C 2.019531 0.0195312 1.808594 0.105469 1.558594 0.105469 C 1.285156 0.105469 1.0625 0.0195312 0.894531 -0.160156 C 0.722656 -0.335938 0.640625 -0.546875 0.640625 -0.785156 L 0.640625 -2.226562 C 0.640625 -2.671875 0.816406 -3.035156 1.171875 -3.320312 C 1.503906 -3.585938 1.898438 -3.71875 2.359375 -3.71875 C 2.980469 -3.71875 3.480469 -3.542969 3.851562 -3.1875 L 3.851562 -3.835938 C 3.851562 -4.152344 3.683594 -4.417969 3.347656 -4.628906 C 3.054688 -4.804688 2.730469 -4.894531 2.375 -4.894531 C 2 -4.894531 1.664062 -4.8125 1.359375 -4.652344 C 1.03125 -4.476562 0.828125 -4.234375 0.746094 -3.933594 L 0.28125 -3.933594 C 0.34375 -4.34375 0.582031 -4.679688 1 -4.949219 C 1.390625 -5.203125 1.839844 -5.332031 2.347656 -5.332031 C 2.863281 -5.332031 3.308594 -5.214844 3.679688 -4.972656 C 4.117188 -4.6875 4.332031 -4.300781 4.332031 -3.8125 L 4.332031 0 M 2 -0.765625 C 2 -0.890625 1.957031 -0.996094 1.867188 -1.082031 C 1.78125 -1.167969 1.675781 -1.214844 1.554688 -1.214844 C 1.429688 -1.214844 1.328125 -1.167969 1.246094 -1.082031 C 1.160156 -0.996094 1.121094 -0.890625 1.121094 -0.765625 C 1.121094 -0.644531 1.160156 -0.542969 1.246094 -0.457031 C 1.328125 -0.375 1.429688 -0.332031 1.554688 -0.332031 C 1.675781 -0.332031 1.78125 -0.375 1.867188 -0.457031 C 1.957031 -0.542969 2 -0.644531 2 -0.765625 Z "/>
</g>
<g id="glyph-0-11">
<path d="M 2.265625 0.773438 L 1.761719 0.773438 C 0.765625 -0.300781 0.265625 -1.601562 0.265625 -3.121094 C 0.265625 -4.558594 0.761719 -5.882812 1.746094 -7.09375 L 2.28125 -7.09375 C 1.285156 -5.957031 0.785156 -4.632812 0.785156 -3.121094 C 0.785156 -1.707031 1.28125 -0.410156 2.265625 0.773438 Z "/>
</g>
<g id="glyph-0-12">
<path d="M 2.800781 -0.398438 L 2.851562 0.00390625 C 2.675781 0.0820312 2.441406 0.121094 2.148438 0.121094 C 1.753906 0.121094 1.457031 -0.03125 1.253906 -0.332031 C 1.074219 -0.601562 0.988281 -0.933594 0.988281 -1.332031 L 0.988281 -4.121094 L 0.078125 -4.121094 L 0.078125 -4.535156 L 0.988281 -4.535156 L 0.988281 -5.878906 L 1.507812 -6.121094 L 1.507812 -4.535156 L 2.960938 -4.535156 L 2.960938 -4.121094 L 1.507812 -4.121094 L 1.507812 -1.335938 C 1.507812 -0.660156 1.734375 -0.320312 2.1875 -0.320312 C 2.460938 -0.320312 2.667969 -0.347656 2.800781 -0.398438 Z "/>
</g>
<g id="glyph-0-13">
<path d="M 2.265625 -3.160156 C 2.265625 -1.683594 1.769531 -0.375 0.773438 0.773438 L 0.265625 0.773438 C 1.253906 -0.460938 1.746094 -1.773438 1.746094 -3.160156 C 1.746094 -4.5625 1.253906 -5.875 0.265625 -7.09375 L 0.773438 -7.09375 C 1.769531 -5.980469 2.265625 -4.671875 2.265625 -3.160156 Z "/>
</g>
</g>
</defs>
<g fill="rgb(100%, 100%, 100%)" fill-opacity="1">
<use xlink:href="#glyph-0-0" x="30" y="31.25293"/>
<use xlink:href="#glyph-0-1" x="35" y="31.25293"/>
<use xlink:href="#glyph-0-2" x="35" y="31.25293"/>
<use xlink:href="#glyph-0-3" x="39" y="31.25293"/>
<use xlink:href="#glyph-0-4" x="45" y="31.25293"/>
<use xlink:href="#glyph-0-5" x="48" y="31.25293"/>
<use xlink:href="#glyph-0-6" x="53" y="31.25293"/>
<use xlink:href="#glyph-0-4" x="55" y="31.25293"/>
<use xlink:href="#glyph-0-7" x="58" y="31.25293"/>
<use xlink:href="#glyph-0-8" x="64" y="31.25293"/>
<use xlink:href="#glyph-0-9" x="68" y="31.25293"/>
<use xlink:href="#glyph-0-2" x="70" y="31.25293"/>
<use xlink:href="#glyph-0-10" x="74" y="31.25293"/>
<use xlink:href="#glyph-0-8" x="79" y="31.25293"/>
<use xlink:href="#glyph-0-4" x="83" y="31.25293"/>
<use xlink:href="#glyph-0-11" x="86" y="31.25293"/>
</g>
<g fill="rgb(100%, 100%, 100%)" fill-opacity="1">
<use xlink:href="#glyph-0-12" x="89" y="31.25293"/>
</g>
<g fill="rgb(100%, 100%, 100%)" fill-opacity="1">
<use xlink:href="#glyph-0-13" x="92" y="31.25293"/>
</g>
</svg>
