<?xml version="1.0" encoding="UTF-8"?>
<svg xmlns="http://www.w3.org/2000/svg" xmlns:xlink="http://www.w3.org/1999/xlink" width="1080" height="1920" viewBox="0 0 1080 1920">
<defs>
<g>
<g id="glyph-0-0">
<path d="M 2.375 -1.636719 C 2.375 -1.238281 2.300781 -0.875 2.152344 -0.546875 C 1.953125 -0.128906 1.671875 0.078125 1.304688 0.078125 C 0.929688 0.078125 0.644531 -0.128906 0.449219 -0.546875 C 0.296875 -0.871094 0.222656 -1.230469 0.222656 -1.636719 C 0.222656 -2.121094 0.304688 -2.53125 0.46875 -2.867188 C 0.667969 -3.257812 0.945312 -3.453125 1.304688 -3.453125 C 1.660156 -3.453125 1.941406 -3.257812 2.136719 -2.867188 C 2.296875 -2.53125 2.375 -2.121094 2.375 -1.636719 M 2.09375 -1.644531 C 2.09375 -2.0625 2.035156 -2.417969 1.914062 -2.707031 C 1.769531 -3.046875 1.566406 -3.214844 1.304688 -3.214844 C 1.039062 -3.214844 0.832031 -3.046875 0.6875 -2.707031 C 0.566406 -2.421875 0.503906 -2.066406 0.503906 -1.644531 C 0.503906 -1.296875 0.5625 -0.980469 0.679688 -0.703125 C 0.824219 -0.339844 1.03125 -0.160156 1.304688 -0.160156 C 1.570312 -0.160156 1.773438 -0.339844 1.921875 -0.703125 C 2.035156 -0.980469 2.09375 -1.296875 2.09375 -1.644531 Z "/>
</g>
<g id="glyph-0-1">
<path d="M 0.832031 -0.203125 C 0.832031 -0.136719 0.804688 -0.078125 0.753906 -0.0273438 C 0.703125 0.0195312 0.644531 0.0429688 0.578125 0.0429688 C 0.511719 0.0429688 0.453125 0.0195312 0.40625 -0.0273438 C 0.355469 -0.078125 0.332031 -0.136719 0.332031 -0.203125 C 0.332031 -0.269531 0.355469 -0.328125 0.40625 -0.378906 C 0.453125 -0.429688 0.511719 -0.453125 0.578125 -0.453125 C 0.644531 -0.453125 0.703125 -0.429688 0.753906 -0.378906 C 0.804688 -0.328125 0.832031 -0.269531 0.832031 -0.203125 Z "/>
</g>
<g id="glyph-0-2">
<path d="M 2.414062 -0.28125 L 2.355469 0 L 0.1875 0 C 0.207031 -0.121094 0.242188 -0.257812 0.289062 -0.410156 C 0.496094 -0.625 0.726562 -0.851562 0.976562 -1.089844 C 1.226562 -1.332031 1.503906 -1.636719 1.8125 -2.007812 C 1.96875 -2.214844 2.042969 -2.414062 2.042969 -2.601562 C 2.042969 -2.789062 1.984375 -2.933594 1.863281 -3.035156 C 1.742188 -3.132812 1.585938 -3.183594 1.394531 -3.183594 C 0.960938 -3.183594 0.714844 -2.96875 0.65625 -2.535156 L 0.398438 -2.605469 C 0.425781 -2.886719 0.535156 -3.101562 0.730469 -3.25 C 0.902344 -3.386719 1.125 -3.453125 1.402344 -3.453125 C 1.671875 -3.453125 1.890625 -3.371094 2.066406 -3.203125 C 2.238281 -3.039062 2.324219 -2.828125 2.324219 -2.578125 C 2.324219 -2.210938 2.035156 -1.753906 1.457031 -1.199219 C 1.039062 -0.785156 0.742188 -0.480469 0.570312 -0.28125 Z "/>
</g>
<g id="glyph-0-3">
<path d="M 2.296875 -1.183594 C 2.296875 -0.8125 2.171875 -0.515625 1.921875 -0.285156 C 1.671875 -0.0546875 1.347656 0.0585938 0.953125 0.0585938 C 0.621094 0.0585938 0.359375 -0.03125 0.171875 -0.210938 L 0.296875 -0.433594 C 0.363281 -0.390625 0.4375 -0.347656 0.511719 -0.3125 C 0.648438 -0.246094 0.8125 -0.214844 1.011719 -0.214844 C 1.269531 -0.214844 1.5 -0.300781 1.699219 -0.46875 C 1.902344 -0.636719 2 -0.875 2 -1.175781 C 2 -1.4375 1.914062 -1.632812 1.742188 -1.761719 C 1.597656 -1.878906 1.410156 -1.9375 1.175781 -1.9375 C 0.976562 -1.9375 0.8125 -1.855469 0.695312 -1.699219 L 0.542969 -1.683594 L 0.644531 -3.429688 L 2.1875 -3.429688 L 2.136719 -3.15625 L 0.925781 -3.15625 L 0.859375 -2.136719 C 0.984375 -2.1875 1.121094 -2.210938 1.265625 -2.210938 C 1.542969 -2.210938 1.78125 -2.125 1.980469 -1.949219 C 2.191406 -1.757812 2.296875 -1.503906 2.296875 -1.183594 Z "/>
</g>
<g id="glyph-0-4">
<path d="M 0.886719 -0.195312 C 0.878906 0.0664062 0.800781 0.292969 0.648438 0.492188 C 0.550781 0.628906 0.4375 0.730469 0.316406 0.789062 L 0.214844 0.679688 C 0.46875 0.511719 0.605469 0.300781 0.636719 0.0507812 C 0.558594 0.0507812 0.492188 0.0234375 0.4375 -0.0273438 C 0.382812 -0.0820312 0.355469 -0.144531 0.355469 -0.214844 C 0.355469 -0.289062 0.378906 -0.351562 0.433594 -0.40625 C 0.484375 -0.464844 0.550781 -0.492188 0.621094 -0.492188 C 0.699219 -0.492188 0.761719 -0.460938 0.8125 -0.40625 C 0.863281 -0.347656 0.886719 -0.277344 0.886719 -0.195312 Z "/>
</g>
<g id="glyph-0-5">
</g>
<g id="glyph-0-6">
<path d="M 1.25 0 L 0.945312 0 C 0.945312 -0.726562 1.089844 -1.421875 1.378906 -2.085938 C 1.445312 -2.242188 1.5625 -2.457031 1.726562 -2.734375 C 1.890625 -3.011719 1.972656 -3.152344 1.980469 -3.15625 L 0.238281 -3.15625 L 0.347656 -3.429688 L 2.375 -3.429688 L 2.320312 -3.140625 C 1.996094 -2.71875 1.738281 -2.257812 1.542969 -1.765625 C 1.347656 -1.273438 1.25 -0.683594 1.25 0 Z "/>
</g>
<g id="glyph-0-7">
<path d="M 2.066406 0 L 0.699219 0 L 0.699219 -0.261719 L 1.242188 -0.261719 L 1.242188 -3.011719 L 0.699219 -2.542969 L 0.542969 -2.722656 L 1.367188 -3.453125 C 1.472656 -3.453125 1.523438 -3.359375 1.523438 -3.179688 L 1.523438 -0.261719 L 2.066406 -0.261719 Z "/>
</g>
</g>
</defs>
<g fill="rgb(51.372549%, 75.686275%, 40.392157%)" fill-opacity="1">
<use xlink:href="#glyph-0-0" x="30" y="26.095703"/>
<use xlink:href="#glyph-0-1" x="33" y="26.095703"/>
<use xlink:href="#glyph-0-2" x="34" y="26.095703"/>
<use xlink:href="#glyph-0-3" x="37" y="26.095703"/>
<use xlink:href="#glyph-0-4" x="40" y="26.095703"/>
<use xlink:href="#glyph-0-5" x="41" y="26.095703"/>
<use xlink:href="#glyph-0-0" x="43" y="26.095703"/>
<use xlink:href="#glyph-0-1" x="46" y="26.095703"/>
<use xlink:href="#glyph-0-3" x="47" y="26.095703"/>
<use xlink:href="#glyph-0-0" x="50" y="26.095703"/>
<use xlink:href="#glyph-0-4" x="53" y="26.095703"/>
<use xlink:href="#glyph-0-5" x="54" y="26.095703"/>
<use xlink:href="#glyph-0-0" x="56" y="26.095703"/>
<use xlink:href="#glyph-0-1" x="59" y="26.095703"/>
<use xlink:href="#glyph-0-6" x="60" y="26.095703"/>
<use xlink:href="#glyph-0-3" x="63" y="26.095703"/>
<use xlink:href="#glyph-0-4" x="66" y="26.095703"/>
<use xlink:href="#glyph-0-5" x="67" y="26.095703"/>
<use xlink:href="#glyph-0-7" x="69" y="26.095703"/>
<use xlink:href="#glyph-0-1" x="72" y="26.095703"/>
<use xlink:href="#glyph-0-0" x="73" y="26.095703"/>
<use xlink:href="#glyph-0-0" x="76" y="26.095703"/>
<use xlink:href="#glyph-0-4" x="79" y="26.095703"/>
<use xlink:href="#glyph-0-5" x="80" y="26.095703"/>
<use xlink:href="#glyph-0-7" x="82" y="26.095703"/>
<use xlink:href="#glyph-0-1" x="85" y="26.095703"/>
<use xlink:href="#glyph-0-2" x="86" y="26.095703"/>
<use xlink:href="#glyph-0-3" x="89" y="26.095703"/>
<use xlink:href="#glyph-0-4" x="92" y="26.095703"/>
<use xlink:href="#glyph-0-5" x="93" y="26.095703"/>
<use xlink:href="#glyph-0-7" x="95" y="26.095703"/>
<use xlink:href="#glyph-0-1" x="98" y="26.095703"/>
<use xlink:href="#glyph-0-3" x="99" y="26.095703"/>
<use xlink:href="#glyph-0-0" x="102" y="26.095703"/>
<use xlink:href="#glyph-0-4" x="105" y="26.095703"/>
<use xlink:href="#glyph-0-5" x="106" y="26.095703"/>
<use xlink:href="#glyph-0-7" x="108" y="26.095703"/>
<use xlink:href="#glyph-0-1" x="111" y="26.095703"/>
<use xlink:href="#glyph-0-6" x="112" y="26.095703"/>
<use xlink:href="#glyph-0-3" x="115" y="26.095703"/>
<use xlink:href="#glyph-0-4" x="118" y="26.095703"/>
<use xlink:href="#glyph-0-5" x="119" y="26.095703"/>
<use xlink:href="#glyph-0-2" x="121" y="26.095703"/>
<use xlink:href="#glyph-0-1" x="124" y="26.095703"/>
<use xlink:href="#glyph-0-0" x="125" y="26.095703"/>
<use xlink:href="#glyph-0-0" x="128" y="26.095703"/>
<use xlink:href="#glyph-0-4" x="131" y="26.095703"/>
<use xlink:href="#glyph-0-5" x="132" y="26.095703"/>
<use xlink:href="#glyph-0-2" x="134" y="26.095703"/>
<use xlink:href="#glyph-0-1" x="137" y="26.095703"/>
<use xlink:href="#glyph-0-2" x="138" y="26.095703"/>
<use xlink:href="#glyph-0-3" x="141" y="26.095703"/>
<use xlink:href="#glyph-0-4" x="144" y="26.095703"/>
<use xlink:href="#glyph-0-5" x="145" y="26.095703"/>
<use xlink:href="#glyph-0-2" x="147" y="26.095703"/>
<use xlink:href="#glyph-0-1" x="150" y="26.095703"/>
<use xlink:href="#glyph-0-3" x="151" y="26.095703"/>
<use xlink:href="#glyph-0-0" x="154" y="26.095703"/>
<use xlink:href="#glyph-0-4" x="157" y="26.095703"/>
<use xlink:href="#glyph-0-5" x="158" y="26.095703"/>
<use xlink:href="#glyph-0-2" x="160" y="26.095703"/>
<use xlink:href="#glyph-0-1" x="163" y="26.095703"/>
<use xlink:href="#glyph-0-6" x="164" y="26.095703"/>
<use xlink:href="#glyph-0-3" x="167" y="26.095703"/>
</g>
</svg>
