<?xml version="1.0" encoding="UTF-8"?>
<svg xmlns="http://www.w3.org/2000/svg" xmlns:xlink="http://www.w3.org/1999/xlink" width="1080" height="1920" viewBox="0 0 1080 1920">
<defs>
<g>
<g id="glyph-0-0">
<path d="M 1.902344 -0.398438 C 1.902344 -0.0976562 1.753906 0.0546875 1.464844 0.0546875 C 1.238281 0.0546875 1.109375 -0.0585938 1.074219 -0.285156 L 0.972656 -0.96875 C 0.910156 -0.933594 0.839844 -0.917969 0.765625 -0.917969 C 0.660156 -0.917969 0.578125 -0.953125 0.507812 -1.019531 C 0.4375 -1.089844 0.402344 -1.175781 0.402344 -1.277344 C 0.402344 -1.382812 0.4375 -1.472656 0.507812 -1.542969 C 0.578125 -1.613281 0.664062 -1.648438 0.765625 -1.648438 C 0.855469 -1.648438 0.9375 -1.621094 1.007812 -1.5625 C 1.074219 -1.503906 1.117188 -1.429688 1.136719 -1.339844 L 1.3125 -0.300781 C 1.328125 -0.199219 1.386719 -0.148438 1.480469 -0.148438 C 1.613281 -0.148438 1.679688 -0.21875 1.679688 -0.367188 L 1.679688 -1.800781 C 1.679688 -1.960938 1.617188 -2.074219 1.492188 -2.140625 C 1.363281 -2.210938 1.21875 -2.242188 1.050781 -2.242188 C 0.867188 -2.242188 0.714844 -2.203125 0.597656 -2.125 C 0.476562 -2.050781 0.402344 -1.941406 0.371094 -1.808594 L 0.148438 -1.808594 C 0.167969 -1.980469 0.246094 -2.121094 0.386719 -2.238281 C 0.550781 -2.375 0.773438 -2.445312 1.046875 -2.445312 C 1.617188 -2.445312 1.902344 -2.230469 1.902344 -1.800781 L 1.902344 -0.398438 M 0.960938 -1.273438 C 0.960938 -1.328125 0.941406 -1.375 0.90625 -1.410156 C 0.867188 -1.449219 0.824219 -1.464844 0.769531 -1.464844 C 0.71875 -1.464844 0.671875 -1.449219 0.636719 -1.410156 C 0.605469 -1.375 0.585938 -1.328125 0.585938 -1.273438 C 0.585938 -1.21875 0.605469 -1.175781 0.636719 -1.140625 C 0.671875 -1.105469 0.71875 -1.085938 0.769531 -1.085938 C 0.824219 -1.085938 0.867188 -1.105469 0.90625 -1.140625 C 0.941406 -1.175781 0.960938 -1.21875 0.960938 -1.273438 Z "/>
</g>
<g id="glyph-0-1">
<path d="M 1.453125 0 L 1.234375 0 L 0.0976562 -1.269531 L 0.21875 -1.410156 L 1.234375 -0.3125 L 1.234375 -1.679688 C 1.175781 -1.652344 1.113281 -1.636719 1.046875 -1.636719 C 0.933594 -1.636719 0.839844 -1.675781 0.761719 -1.757812 C 0.679688 -1.835938 0.640625 -1.929688 0.640625 -2.035156 C 0.640625 -2.152344 0.679688 -2.25 0.757812 -2.328125 C 0.835938 -2.40625 0.929688 -2.445312 1.046875 -2.445312 C 1.175781 -2.445312 1.277344 -2.402344 1.355469 -2.316406 C 1.421875 -2.238281 1.453125 -2.144531 1.453125 -2.035156 L 1.453125 0 M 1.253906 -2.046875 C 1.253906 -2.105469 1.234375 -2.152344 1.191406 -2.195312 C 1.152344 -2.234375 1.105469 -2.253906 1.046875 -2.253906 C 0.992188 -2.253906 0.945312 -2.234375 0.902344 -2.195312 C 0.863281 -2.152344 0.84375 -2.105469 0.84375 -2.046875 C 0.84375 -1.988281 0.863281 -1.941406 0.902344 -1.902344 C 0.945312 -1.859375 0.992188 -1.839844 1.046875 -1.839844 C 1.105469 -1.839844 1.152344 -1.859375 1.191406 -1.902344 C 1.234375 -1.941406 1.253906 -1.988281 1.253906 -2.046875 Z "/>
</g>
<g id="glyph-0-2">
<path d="M 2.265625 0 L 2.046875 0 L 2.046875 -1.320312 C 2.046875 -1.507812 2 -1.601562 1.902344 -1.601562 C 1.839844 -1.601562 1.765625 -1.53125 1.679688 -1.386719 L 0.890625 0 L 0.691406 0 L 0.691406 -1.683594 C 0.636719 -1.652344 0.578125 -1.636719 0.507812 -1.636719 C 0.398438 -1.636719 0.300781 -1.675781 0.222656 -1.757812 C 0.144531 -1.835938 0.105469 -1.929688 0.105469 -2.039062 C 0.105469 -2.152344 0.144531 -2.246094 0.222656 -2.324219 C 0.300781 -2.40625 0.398438 -2.445312 0.507812 -2.445312 C 0.617188 -2.445312 0.710938 -2.40625 0.792969 -2.324219 C 0.871094 -2.246094 0.910156 -2.152344 0.910156 -2.039062 L 0.910156 -0.714844 C 0.910156 -0.679688 0.898438 -0.550781 0.878906 -0.335938 C 0.929688 -0.4375 0.972656 -0.527344 1.015625 -0.605469 L 1.507812 -1.519531 C 1.566406 -1.621094 1.636719 -1.691406 1.714844 -1.730469 C 1.613281 -1.808594 1.5625 -1.914062 1.5625 -2.042969 C 1.5625 -2.152344 1.605469 -2.246094 1.683594 -2.324219 C 1.765625 -2.40625 1.859375 -2.445312 1.96875 -2.445312 C 2.082031 -2.445312 2.175781 -2.40625 2.257812 -2.324219 C 2.335938 -2.246094 2.378906 -2.152344 2.378906 -2.039062 C 2.378906 -1.886719 2.308594 -1.769531 2.167969 -1.691406 C 2.234375 -1.625 2.265625 -1.5 2.265625 -1.320312 L 2.265625 0 M 0.714844 -2.039062 C 0.714844 -2.097656 0.695312 -2.144531 0.65625 -2.183594 C 0.613281 -2.222656 0.566406 -2.242188 0.511719 -2.242188 C 0.453125 -2.242188 0.40625 -2.222656 0.367188 -2.183594 C 0.324219 -2.144531 0.304688 -2.097656 0.304688 -2.039062 C 0.304688 -1.984375 0.324219 -1.9375 0.367188 -1.898438 C 0.40625 -1.859375 0.453125 -1.839844 0.511719 -1.839844 C 0.566406 -1.839844 0.613281 -1.859375 0.65625 -1.898438 C 0.695312 -1.9375 0.714844 -1.984375 0.714844 -2.039062 M 2.175781 -2.039062 C 2.175781 -2.097656 2.15625 -2.144531 2.113281 -2.183594 C 2.074219 -2.222656 2.027344 -2.242188 1.96875 -2.242188 C 1.914062 -2.242188 1.867188 -2.222656 1.828125 -2.183594 C 1.785156 -2.144531 1.765625 -2.097656 1.765625 -2.039062 C 1.765625 -1.984375 1.785156 -1.9375 1.828125 -1.898438 C 1.867188 -1.859375 1.914062 -1.839844 1.96875 -1.839844 C 2.027344 -1.839844 2.074219 -1.859375 2.113281 -1.898438 C 2.15625 -1.9375 2.175781 -1.984375 2.175781 -2.039062 Z "/>
</g>
<g id="glyph-0-3">
<path d="M 1.589844 0 L 1.367188 0 L 1.367188 -1.820312 C 1.367188 -1.945312 1.324219 -2.042969 1.230469 -2.125 C 1.140625 -2.203125 1.015625 -2.242188 0.855469 -2.242188 C 0.714844 -2.242188 0.597656 -2.195312 0.511719 -2.097656 C 0.429688 -2.003906 0.382812 -1.902344 0.371094 -1.789062 L 0.148438 -1.789062 C 0.152344 -1.960938 0.21875 -2.113281 0.351562 -2.246094 C 0.484375 -2.378906 0.652344 -2.445312 0.863281 -2.445312 C 1.097656 -2.445312 1.277344 -2.386719 1.402344 -2.273438 C 1.527344 -2.160156 1.589844 -2.007812 1.589844 -1.820312 Z "/>
</g>
<g id="glyph-0-4">
<path d="M 1.007812 -1.273438 C 1.007812 -1.332031 0.988281 -1.378906 0.945312 -1.417969 C 0.90625 -1.457031 0.859375 -1.480469 0.800781 -1.480469 C 0.742188 -1.480469 0.695312 -1.457031 0.652344 -1.417969 C 0.613281 -1.378906 0.59375 -1.332031 0.59375 -1.273438 C 0.59375 -1.21875 0.613281 -1.167969 0.652344 -1.128906 C 0.695312 -1.089844 0.742188 -1.070312 0.800781 -1.070312 C 0.859375 -1.070312 0.90625 -1.089844 0.945312 -1.128906 C 0.988281 -1.167969 1.007812 -1.21875 1.007812 -1.273438 M 2.023438 -0.519531 C 2.015625 -0.140625 1.742188 0.0507812 1.203125 0.0507812 C 0.667969 0.0507812 0.398438 -0.140625 0.398438 -0.519531 L 0.398438 -1.277344 C 0.398438 -1.386719 0.4375 -1.480469 0.515625 -1.5625 C 0.597656 -1.640625 0.691406 -1.679688 0.804688 -1.679688 C 0.914062 -1.679688 1.011719 -1.640625 1.089844 -1.558594 C 1.167969 -1.480469 1.210938 -1.386719 1.210938 -1.273438 C 1.210938 -1.164062 1.171875 -1.066406 1.097656 -0.988281 C 1.023438 -0.90625 0.925781 -0.867188 0.800781 -0.867188 C 0.734375 -0.867188 0.671875 -0.882812 0.617188 -0.910156 L 0.617188 -0.570312 C 0.617188 -0.292969 0.816406 -0.152344 1.214844 -0.152344 C 1.605469 -0.152344 1.800781 -0.289062 1.800781 -0.566406 L 1.800781 -1.699219 C 1.800781 -1.871094 1.730469 -2.007812 1.589844 -2.109375 C 1.457031 -2.199219 1.296875 -2.242188 1.105469 -2.242188 C 0.9375 -2.242188 0.785156 -2.203125 0.648438 -2.125 C 0.496094 -2.039062 0.40625 -1.933594 0.378906 -1.800781 L 0.160156 -1.800781 C 0.199219 -1.992188 0.304688 -2.148438 0.480469 -2.265625 C 0.652344 -2.386719 0.867188 -2.445312 1.117188 -2.445312 C 1.359375 -2.445312 1.5625 -2.386719 1.730469 -2.273438 C 1.925781 -2.144531 2.023438 -1.964844 2.023438 -1.742188 Z "/>
</g>
<g id="glyph-0-5">
<path d="M 0.300781 -3.78125 C 0.296875 -3.503906 0.203125 -3.277344 0.0234375 -3.101562 C -0.15625 -2.925781 -0.382812 -2.835938 -0.652344 -2.835938 C -0.890625 -2.835938 -1.078125 -2.882812 -1.222656 -2.980469 C -1.363281 -3.078125 -1.4375 -3.207031 -1.4375 -3.367188 C -1.4375 -3.472656 -1.398438 -3.566406 -1.320312 -3.640625 C -1.242188 -3.71875 -1.148438 -3.757812 -1.042969 -3.757812 C -0.933594 -3.757812 -0.84375 -3.71875 -0.765625 -3.644531 C -0.6875 -3.570312 -0.648438 -3.480469 -0.648438 -3.375 C -0.648438 -3.234375 -0.710938 -3.125 -0.835938 -3.042969 C -0.78125 -3.03125 -0.703125 -3.023438 -0.609375 -3.023438 C -0.410156 -3.027344 -0.246094 -3.109375 -0.117188 -3.261719 C 0 -3.40625 0.0585938 -3.578125 0.0664062 -3.78125 L 0.300781 -3.78125 M -0.847656 -3.382812 C -0.847656 -3.441406 -0.867188 -3.488281 -0.90625 -3.527344 C -0.945312 -3.566406 -0.992188 -3.585938 -1.046875 -3.585938 C -1.097656 -3.585938 -1.144531 -3.566406 -1.183594 -3.527344 C -1.226562 -3.488281 -1.246094 -3.441406 -1.246094 -3.382812 C -1.246094 -3.324219 -1.226562 -3.277344 -1.183594 -3.238281 C -1.144531 -3.203125 -1.097656 -3.183594 -1.046875 -3.183594 C -0.992188 -3.183594 -0.945312 -3.203125 -0.90625 -3.238281 C -0.867188 -3.277344 -0.847656 -3.324219 -0.847656 -3.382812 Z "/>
</g>
<g id="glyph-0-6">
<path d="M 2.046875 0 L 1.828125 0 L 1.828125 -1.589844 C 1.828125 -1.890625 1.730469 -2.101562 1.53125 -2.21875 L 1.140625 -1.859375 L 0.722656 -2.21875 C 0.519531 -2.085938 0.414062 -1.875 0.414062 -1.582031 C 0.414062 -1.457031 0.449219 -1.28125 0.511719 -1.058594 C 0.578125 -0.839844 0.609375 -0.644531 0.609375 -0.484375 C 0.652344 -0.5625 0.734375 -0.65625 0.863281 -0.757812 C 0.988281 -0.859375 1.070312 -0.941406 1.113281 -1.003906 C 1.019531 -1.011719 0.941406 -1.046875 0.875 -1.113281 C 0.8125 -1.179688 0.78125 -1.261719 0.78125 -1.359375 C 0.78125 -1.460938 0.816406 -1.546875 0.882812 -1.617188 C 0.949219 -1.6875 1.035156 -1.722656 1.136719 -1.722656 C 1.238281 -1.722656 1.324219 -1.6875 1.394531 -1.617188 C 1.460938 -1.550781 1.496094 -1.464844 1.496094 -1.363281 C 1.496094 -1.171875 1.355469 -0.949219 1.066406 -0.6875 C 0.777344 -0.425781 0.628906 -0.195312 0.617188 0 L 0.398438 0 L 0.398438 -0.550781 C 0.398438 -0.667969 0.363281 -0.835938 0.296875 -1.054688 C 0.230469 -1.273438 0.195312 -1.4375 0.195312 -1.550781 C 0.195312 -1.75 0.242188 -1.933594 0.328125 -2.097656 C 0.4375 -2.277344 0.582031 -2.394531 0.765625 -2.445312 L 1.144531 -2.109375 L 1.492188 -2.445312 C 1.671875 -2.410156 1.8125 -2.308594 1.914062 -2.132812 C 2.003906 -1.980469 2.046875 -1.8125 2.046875 -1.621094 L 2.046875 0 M 1.339844 -1.363281 C 1.339844 -1.414062 1.320312 -1.460938 1.285156 -1.496094 C 1.246094 -1.535156 1.203125 -1.550781 1.148438 -1.550781 C 1.097656 -1.550781 1.050781 -1.535156 1.015625 -1.496094 C 0.976562 -1.460938 0.960938 -1.414062 0.960938 -1.363281 C 0.960938 -1.308594 0.976562 -1.265625 1.015625 -1.226562 C 1.050781 -1.191406 1.097656 -1.171875 1.148438 -1.171875 C 1.203125 -1.171875 1.246094 -1.191406 1.285156 -1.226562 C 1.320312 -1.265625 1.339844 -1.308594 1.339844 -1.363281 Z "/>
</g>
<g id="glyph-0-7">
<path d="M 1.550781 -0.355469 C 1.550781 -0.246094 1.515625 -0.148438 1.441406 -0.0703125 C 1.367188 0.0078125 1.269531 0.0507812 1.148438 0.0507812 C 1.039062 0.0507812 0.945312 0.0078125 0.863281 -0.0703125 C 0.785156 -0.152344 0.746094 -0.246094 0.746094 -0.359375 C 0.746094 -0.46875 0.785156 -0.5625 0.863281 -0.644531 C 0.945312 -0.722656 1.039062 -0.765625 1.148438 -0.765625 C 1.21875 -0.765625 1.277344 -0.75 1.332031 -0.71875 L 1.332031 -1.355469 C 1.332031 -1.523438 0.9375 -1.671875 0.152344 -1.796875 C 0.175781 -2.226562 0.375 -2.445312 0.746094 -2.445312 C 0.832031 -2.445312 0.953125 -2.421875 1.109375 -2.378906 C 1.265625 -2.335938 1.378906 -2.316406 1.449219 -2.316406 C 1.488281 -2.316406 1.527344 -2.363281 1.5625 -2.457031 L 1.753906 -2.40625 C 1.691406 -2.210938 1.589844 -2.113281 1.441406 -2.113281 C 1.355469 -2.113281 1.234375 -2.136719 1.074219 -2.179688 C 0.910156 -2.222656 0.789062 -2.242188 0.707031 -2.242188 C 0.636719 -2.242188 0.566406 -2.210938 0.503906 -2.148438 C 0.441406 -2.089844 0.40625 -2.023438 0.402344 -1.960938 C 0.664062 -1.917969 0.921875 -1.847656 1.171875 -1.761719 C 1.425781 -1.671875 1.550781 -1.542969 1.550781 -1.375 L 1.550781 -0.355469 M 1.355469 -0.359375 C 1.355469 -0.414062 1.335938 -0.460938 1.296875 -0.503906 C 1.257812 -0.542969 1.207031 -0.5625 1.152344 -0.5625 C 1.09375 -0.5625 1.046875 -0.542969 1.007812 -0.503906 C 0.96875 -0.460938 0.945312 -0.414062 0.945312 -0.359375 C 0.945312 -0.300781 0.96875 -0.253906 1.007812 -0.214844 C 1.046875 -0.171875 1.09375 -0.152344 1.152344 -0.152344 C 1.207031 -0.152344 1.257812 -0.171875 1.296875 -0.214844 C 1.335938 -0.253906 1.355469 -0.300781 1.355469 -0.359375 Z "/>
</g>
<g id="glyph-0-8">
<path d="M 1.148438 -0.378906 C 1.148438 -0.265625 1.109375 -0.167969 1.03125 -0.0859375 C 0.949219 -0.00390625 0.851562 0.0351562 0.738281 0.0351562 C 0.613281 0.0351562 0.507812 -0.0078125 0.429688 -0.0976562 C 0.359375 -0.175781 0.324219 -0.269531 0.324219 -0.378906 L 0.324219 -2.445312 L 0.542969 -2.445312 L 0.542969 -0.738281 C 0.601562 -0.773438 0.667969 -0.789062 0.738281 -0.789062 C 0.851562 -0.789062 0.949219 -0.75 1.03125 -0.667969 C 1.109375 -0.589844 1.148438 -0.492188 1.148438 -0.378906 M 0.945312 -0.375 C 0.945312 -0.433594 0.925781 -0.484375 0.886719 -0.523438 C 0.84375 -0.566406 0.796875 -0.585938 0.738281 -0.585938 C 0.683594 -0.585938 0.632812 -0.566406 0.59375 -0.523438 C 0.550781 -0.484375 0.53125 -0.433594 0.53125 -0.375 C 0.53125 -0.316406 0.550781 -0.269531 0.59375 -0.226562 C 0.632812 -0.1875 0.683594 -0.164062 0.738281 -0.164062 C 0.796875 -0.164062 0.84375 -0.1875 0.886719 -0.226562 C 0.925781 -0.269531 0.945312 -0.316406 0.945312 -0.375 Z "/>
</g>
<g id="glyph-0-9">
<path d="M -0.328125 -3.121094 C -0.328125 -3.03125 -0.363281 -2.960938 -0.425781 -2.902344 C -0.488281 -2.84375 -0.558594 -2.816406 -0.640625 -2.816406 C -0.8125 -2.816406 -1.007812 -2.90625 -1.226562 -3.078125 C -1.339844 -3.042969 -1.441406 -2.953125 -1.539062 -2.8125 C -1.703125 -2.914062 -1.785156 -3.070312 -1.785156 -3.289062 C -1.785156 -3.605469 -1.609375 -3.765625 -1.261719 -3.765625 L -0.855469 -3.765625 C -0.65625 -3.765625 -0.550781 -3.910156 -0.539062 -4.203125 L -0.335938 -4.203125 C -0.335938 -4.03125 -0.382812 -3.886719 -0.46875 -3.769531 C -0.558594 -3.652344 -0.691406 -3.59375 -0.867188 -3.59375 L -1.289062 -3.59375 C -1.484375 -3.59375 -1.582031 -3.5 -1.582031 -3.308594 C -1.582031 -3.21875 -1.558594 -3.136719 -1.515625 -3.066406 C -1.414062 -3.179688 -1.308594 -3.246094 -1.203125 -3.261719 C -1.132812 -3.203125 -1.035156 -3.128906 -0.90625 -3.042969 C -0.910156 -3.074219 -0.910156 -3.101562 -0.910156 -3.121094 C -0.910156 -3.203125 -0.882812 -3.273438 -0.828125 -3.328125 C -0.773438 -3.382812 -0.703125 -3.410156 -0.625 -3.410156 C -0.542969 -3.410156 -0.472656 -3.382812 -0.414062 -3.324219 C -0.359375 -3.265625 -0.328125 -3.199219 -0.328125 -3.121094 M -0.488281 -3.121094 C -0.488281 -3.160156 -0.503906 -3.191406 -0.527344 -3.21875 C -0.554688 -3.242188 -0.585938 -3.257812 -0.625 -3.257812 C -0.660156 -3.257812 -0.691406 -3.242188 -0.71875 -3.21875 C -0.746094 -3.191406 -0.757812 -3.160156 -0.757812 -3.121094 C -0.757812 -3.085938 -0.746094 -3.054688 -0.71875 -3.027344 C -0.691406 -3 -0.660156 -2.988281 -0.625 -2.988281 C -0.585938 -2.988281 -0.554688 -3 -0.527344 -3.027344 C -0.503906 -3.054688 -0.488281 -3.085938 -0.488281 -3.121094 Z "/>
</g>
<g id="glyph-0-10">
<path d="M 1.703125 -0.355469 C 1.703125 -0.246094 1.664062 -0.148438 1.585938 -0.0703125 C 1.507812 0.0078125 1.410156 0.0507812 1.300781 0.0507812 C 1.191406 0.0507812 1.097656 0.0078125 1.015625 -0.0703125 C 0.9375 -0.152344 0.898438 -0.246094 0.898438 -0.359375 C 0.898438 -0.46875 0.9375 -0.5625 1.015625 -0.644531 C 1.097656 -0.722656 1.191406 -0.765625 1.300781 -0.765625 C 1.371094 -0.765625 1.433594 -0.75 1.484375 -0.71875 L 1.484375 -1.703125 C 1.484375 -2.0625 1.285156 -2.242188 0.878906 -2.242188 C 0.558594 -2.242188 0.359375 -2.097656 0.28125 -1.800781 L 0.0625 -1.800781 C 0.152344 -2.230469 0.429688 -2.445312 0.890625 -2.445312 C 1.125 -2.445312 1.316406 -2.382812 1.472656 -2.261719 C 1.628906 -2.140625 1.703125 -1.964844 1.703125 -1.742188 L 1.703125 -0.355469 M 1.507812 -0.359375 C 1.507812 -0.414062 1.488281 -0.460938 1.449219 -0.503906 C 1.410156 -0.542969 1.359375 -0.5625 1.304688 -0.5625 C 1.25 -0.5625 1.199219 -0.542969 1.160156 -0.503906 C 1.121094 -0.460938 1.101562 -0.414062 1.101562 -0.359375 C 1.101562 -0.300781 1.121094 -0.253906 1.160156 -0.214844 C 1.199219 -0.171875 1.25 -0.152344 1.304688 -0.152344 C 1.359375 -0.152344 1.410156 -0.171875 1.449219 -0.214844 C 1.488281 -0.253906 1.507812 -0.300781 1.507812 -0.359375 Z "/>
</g>
<g id="glyph-0-11">
<path d="M 0.117188 -3.921875 C 0.0546875 -3.535156 -0.113281 -3.261719 -0.386719 -3.105469 C -0.609375 -2.976562 -0.910156 -2.914062 -1.289062 -2.914062 L -1.410156 -2.914062 L -1.410156 -3.042969 C -1.253906 -3.109375 -1.144531 -3.203125 -1.082031 -3.324219 C -1.3125 -3.351562 -1.429688 -3.46875 -1.429688 -3.671875 C -1.429688 -3.761719 -1.398438 -3.835938 -1.332031 -3.894531 C -1.265625 -3.953125 -1.191406 -3.984375 -1.101562 -3.984375 C -1 -3.984375 -0.917969 -3.953125 -0.859375 -3.886719 C -0.800781 -3.820312 -0.769531 -3.738281 -0.769531 -3.640625 C -0.769531 -3.410156 -0.863281 -3.226562 -1.050781 -3.085938 C -0.503906 -3.125 -0.199219 -3.40625 -0.132812 -3.921875 L 0.117188 -3.921875 M -0.933594 -3.652344 C -0.933594 -3.699219 -0.949219 -3.738281 -0.980469 -3.765625 C -1.011719 -3.796875 -1.050781 -3.8125 -1.09375 -3.8125 C -1.136719 -3.8125 -1.175781 -3.796875 -1.207031 -3.765625 C -1.238281 -3.738281 -1.253906 -3.699219 -1.253906 -3.652344 C -1.253906 -3.609375 -1.238281 -3.570312 -1.207031 -3.542969 C -1.175781 -3.511719 -1.136719 -3.496094 -1.09375 -3.496094 C -1.050781 -3.496094 -1.011719 -3.511719 -0.980469 -3.542969 C -0.949219 -3.570312 -0.933594 -3.609375 -0.933594 -3.652344 Z "/>
</g>
<g id="glyph-0-12">
<path d="M 2.351562 -0.347656 C 2.351562 -0.238281 2.3125 -0.144531 2.234375 -0.0664062 C 2.152344 0.0117188 2.058594 0.0507812 1.945312 0.0507812 C 1.835938 0.0507812 1.742188 0.0117188 1.664062 -0.0664062 C 1.585938 -0.144531 1.546875 -0.238281 1.546875 -0.347656 L 1.546875 -0.390625 C 1.292969 -0.289062 1.097656 -0.160156 0.960938 0 L 0.691406 0 L 0.691406 -1.683594 C 0.636719 -1.652344 0.578125 -1.636719 0.507812 -1.636719 C 0.398438 -1.636719 0.300781 -1.675781 0.222656 -1.757812 C 0.144531 -1.835938 0.105469 -1.929688 0.105469 -2.039062 C 0.105469 -2.152344 0.144531 -2.246094 0.222656 -2.324219 C 0.300781 -2.40625 0.398438 -2.445312 0.507812 -2.445312 C 0.617188 -2.445312 0.710938 -2.40625 0.792969 -2.324219 C 0.871094 -2.246094 0.910156 -2.152344 0.910156 -2.039062 L 0.910156 -0.238281 C 0.992188 -0.328125 1.136719 -0.417969 1.34375 -0.511719 C 1.578125 -0.621094 1.726562 -0.699219 1.796875 -0.757812 C 1.933594 -0.867188 2.003906 -1.007812 2.003906 -1.179688 L 2.003906 -2.394531 L 2.222656 -2.394531 L 2.222656 -1.148438 C 2.222656 -0.953125 2.179688 -0.8125 2.089844 -0.722656 C 2.265625 -0.652344 2.351562 -0.527344 2.351562 -0.347656 M 0.714844 -2.039062 C 0.714844 -2.097656 0.695312 -2.144531 0.65625 -2.183594 C 0.613281 -2.222656 0.566406 -2.242188 0.511719 -2.242188 C 0.453125 -2.242188 0.40625 -2.222656 0.367188 -2.183594 C 0.324219 -2.144531 0.304688 -2.097656 0.304688 -2.039062 C 0.304688 -1.984375 0.324219 -1.9375 0.367188 -1.898438 C 0.40625 -1.859375 0.453125 -1.839844 0.511719 -1.839844 C 0.566406 -1.839844 0.613281 -1.859375 0.65625 -1.898438 C 0.695312 -1.9375 0.714844 -1.984375 0.714844 -2.039062 M 2.152344 -0.359375 C 2.152344 -0.417969 2.128906 -0.464844 2.089844 -0.507812 C 2.050781 -0.546875 2 -0.566406 1.941406 -0.566406 C 1.886719 -0.566406 1.835938 -0.546875 1.796875 -0.507812 C 1.753906 -0.464844 1.734375 -0.417969 1.734375 -0.359375 C 1.734375 -0.304688 1.753906 -0.253906 1.796875 -0.214844 C 1.835938 -0.171875 1.886719 -0.152344 1.941406 -0.152344 C 2 -0.152344 2.050781 -0.171875 2.089844 -0.214844 C 2.128906 -0.253906 2.152344 -0.304688 2.152344 -0.359375 Z "/>
</g>
<g id="glyph-0-13">
<path d="M 1.386719 -0.367188 C 1.386719 -0.253906 1.347656 -0.15625 1.265625 -0.0742188 C 1.183594 0.0078125 1.085938 0.0507812 0.976562 0.0507812 C 0.847656 0.0507812 0.742188 0.00390625 0.660156 -0.0859375 C 0.589844 -0.164062 0.554688 -0.257812 0.554688 -0.367188 L 0.554688 -2.867188 C 0.554688 -2.933594 0.574219 -3.015625 0.609375 -3.105469 C 0.695312 -3.3125 0.738281 -3.441406 0.738281 -3.488281 C 0.738281 -3.589844 0.703125 -3.675781 0.636719 -3.738281 C 0.566406 -3.804688 0.480469 -3.835938 0.378906 -3.835938 C 0.226562 -3.835938 0.113281 -3.789062 0.03125 -3.691406 C 0.140625 -3.707031 0.230469 -3.683594 0.304688 -3.617188 C 0.378906 -3.554688 0.414062 -3.46875 0.414062 -3.363281 C 0.414062 -3.269531 0.382812 -3.191406 0.316406 -3.128906 C 0.253906 -3.0625 0.175781 -3.03125 0.0859375 -3.03125 C -0.00390625 -3.03125 -0.0820312 -3.0625 -0.152344 -3.128906 C -0.222656 -3.191406 -0.257812 -3.289062 -0.257812 -3.417969 C -0.257812 -3.585938 -0.199219 -3.726562 -0.078125 -3.839844 C 0.0390625 -3.953125 0.199219 -4.007812 0.398438 -4.007812 C 0.542969 -4.007812 0.675781 -3.960938 0.792969 -3.871094 C 0.90625 -3.78125 0.964844 -3.664062 0.964844 -3.519531 C 0.964844 -3.433594 0.933594 -3.316406 0.871094 -3.167969 C 0.808594 -3.015625 0.777344 -2.902344 0.777344 -2.820312 L 0.777344 -0.726562 C 0.832031 -0.757812 0.898438 -0.777344 0.976562 -0.777344 C 1.085938 -0.777344 1.183594 -0.738281 1.265625 -0.65625 C 1.347656 -0.578125 1.386719 -0.480469 1.386719 -0.367188 M 1.183594 -0.363281 C 1.183594 -0.421875 1.164062 -0.472656 1.121094 -0.511719 C 1.078125 -0.554688 1.027344 -0.574219 0.972656 -0.574219 C 0.917969 -0.574219 0.871094 -0.554688 0.832031 -0.511719 C 0.789062 -0.472656 0.769531 -0.421875 0.769531 -0.363281 C 0.769531 -0.304688 0.789062 -0.257812 0.828125 -0.214844 C 0.867188 -0.171875 0.914062 -0.152344 0.972656 -0.152344 C 1.027344 -0.152344 1.078125 -0.171875 1.121094 -0.214844 C 1.164062 -0.257812 1.183594 -0.304688 1.183594 -0.363281 M 0.25 -3.367188 C 0.25 -3.410156 0.234375 -3.449219 0.203125 -3.480469 C 0.175781 -3.515625 0.132812 -3.53125 0.078125 -3.53125 C 0.0273438 -3.53125 -0.015625 -3.515625 -0.046875 -3.480469 C -0.078125 -3.449219 -0.0898438 -3.410156 -0.0898438 -3.367188 C -0.0898438 -3.324219 -0.078125 -3.285156 -0.046875 -3.253906 C -0.015625 -3.21875 0.0273438 -3.203125 0.078125 -3.203125 C 0.132812 -3.203125 0.175781 -3.21875 0.203125 -3.253906 C 0.234375 -3.285156 0.25 -3.324219 0.25 -3.367188 Z "/>
</g>
<g id="glyph-0-14">
<path d="M 1.148438 -0.378906 C 1.148438 -0.265625 1.109375 -0.167969 1.03125 -0.0859375 C 0.949219 -0.00390625 0.851562 0.0351562 0.738281 0.0351562 C 0.613281 0.0351562 0.507812 -0.0078125 0.429688 -0.0976562 C 0.359375 -0.175781 0.324219 -0.269531 0.324219 -0.378906 L 0.324219 -2.445312 L 0.542969 -2.445312 L 0.542969 -0.738281 C 0.601562 -0.773438 0.667969 -0.789062 0.738281 -0.789062 C 0.851562 -0.789062 0.949219 -0.75 1.03125 -0.667969 C 1.109375 -0.589844 1.148438 -0.492188 1.148438 -0.378906 M 0.945312 -0.375 C 0.945312 -0.433594 0.925781 -0.484375 0.886719 -0.523438 C 0.84375 -0.566406 0.796875 -0.585938 0.738281 -0.585938 C 0.683594 -0.585938 0.632812 -0.566406 0.59375 -0.523438 C 0.550781 -0.484375 0.53125 -0.433594 0.53125 -0.375 C 0.53125 -0.316406 0.550781 -0.269531 0.59375 -0.226562 C 0.632812 -0.1875 0.683594 -0.164062 0.738281 -0.164062 C 0.796875 -0.164062 0.84375 -0.1875 0.886719 -0.226562 C 0.925781 -0.269531 0.945312 -0.316406 0.945312 -0.375 M 2.207031 -0.378906 C 2.207031 -0.265625 2.167969 -0.167969 2.085938 -0.0859375 C 2.007812 -0.00390625 1.910156 0.0351562 1.796875 0.0351562 C 1.671875 0.0351562 1.566406 -0.0078125 1.484375 -0.0976562 C 1.414062 -0.175781 1.382812 -0.269531 1.382812 -0.378906 L 1.382812 -2.445312 L 1.601562 -2.445312 L 1.601562 -0.738281 C 1.65625 -0.773438 1.722656 -0.789062 1.796875 -0.789062 C 1.910156 -0.789062 2.007812 -0.75 2.085938 -0.667969 C 2.167969 -0.589844 2.207031 -0.492188 2.207031 -0.378906 M 2.003906 -0.375 C 2.003906 -0.433594 1.984375 -0.484375 1.941406 -0.523438 C 1.902344 -0.566406 1.855469 -0.585938 1.796875 -0.585938 C 1.738281 -0.585938 1.691406 -0.566406 1.648438 -0.523438 C 1.609375 -0.484375 1.589844 -0.433594 1.589844 -0.375 C 1.589844 -0.316406 1.609375 -0.269531 1.648438 -0.226562 C 1.691406 -0.1875 1.738281 -0.164062 1.796875 -0.164062 C 1.855469 -0.164062 1.902344 -0.1875 1.941406 -0.226562 C 1.984375 -0.269531 2.003906 -0.316406 2.003906 -0.375 Z "/>
</g>
<g id="glyph-0-15">
<path d="M 2.273438 -0.519531 C 2.273438 -0.140625 2.011719 0.0507812 1.484375 0.0507812 C 0.957031 0.0507812 0.691406 -0.140625 0.691406 -0.519531 L 0.691406 -1.683594 C 0.636719 -1.652344 0.578125 -1.636719 0.507812 -1.636719 C 0.398438 -1.636719 0.300781 -1.675781 0.222656 -1.757812 C 0.144531 -1.835938 0.105469 -1.929688 0.105469 -2.039062 C 0.105469 -2.152344 0.144531 -2.246094 0.222656 -2.324219 C 0.300781 -2.40625 0.398438 -2.445312 0.507812 -2.445312 C 0.617188 -2.445312 0.710938 -2.40625 0.792969 -2.324219 C 0.871094 -2.246094 0.910156 -2.152344 0.910156 -2.039062 L 0.910156 -0.539062 C 0.910156 -0.28125 1.101562 -0.152344 1.484375 -0.152344 C 1.863281 -0.152344 2.054688 -0.28125 2.054688 -0.539062 L 2.054688 -2.394531 L 2.273438 -2.394531 L 2.273438 -0.519531 M 0.714844 -2.039062 C 0.714844 -2.097656 0.695312 -2.144531 0.65625 -2.183594 C 0.613281 -2.222656 0.566406 -2.242188 0.511719 -2.242188 C 0.453125 -2.242188 0.40625 -2.222656 0.367188 -2.183594 C 0.324219 -2.144531 0.304688 -2.097656 0.304688 -2.039062 C 0.304688 -1.984375 0.324219 -1.9375 0.367188 -1.898438 C 0.40625 -1.859375 0.453125 -1.839844 0.511719 -1.839844 C 0.566406 -1.839844 0.613281 -1.859375 0.65625 -1.898438 C 0.695312 -1.9375 0.714844 -1.984375 0.714844 -2.039062 Z "/>
</g>
<g id="glyph-0-16">
</g>
<g id="glyph-0-17">
<path d="M 1.039062 0.355469 L 0.804688 0.355469 C 0.351562 -0.136719 0.121094 -0.734375 0.121094 -1.429688 C 0.121094 -2.089844 0.347656 -2.695312 0.800781 -3.25 L 1.046875 -3.25 C 0.589844 -2.730469 0.359375 -2.121094 0.359375 -1.429688 C 0.359375 -0.78125 0.585938 -0.1875 1.039062 0.355469 Z "/>
</g>
<g id="glyph-0-18">
<path d="M 2.167969 -0.0078125 L 1.941406 0.0429688 C 1.894531 -0.0976562 1.863281 -0.230469 1.84375 -0.359375 C 1.667969 -0.0820312 1.40625 0.0546875 1.0625 0.0546875 C 0.566406 0.0546875 0.316406 -0.265625 0.316406 -0.910156 L 0.316406 -2.078125 L 0.554688 -2.078125 L 0.554688 -0.949219 C 0.554688 -0.414062 0.742188 -0.148438 1.117188 -0.148438 C 1.292969 -0.148438 1.453125 -0.203125 1.59375 -0.316406 C 1.75 -0.449219 1.828125 -0.613281 1.828125 -0.816406 L 1.828125 -2.078125 L 2.066406 -2.078125 L 2.066406 -0.507812 C 2.066406 -0.355469 2.101562 -0.1875 2.167969 -0.0078125 Z "/>
</g>
<g id="glyph-0-19">
<path d="M 2.152344 0.929688 L 2.152344 1.117188 L 0 1.117188 L 0 0.929688 Z "/>
</g>
<g id="glyph-0-20">
<path d="M 1.941406 0 L 1.660156 0 L 0.964844 -0.898438 L 0.273438 0 L 0 0 L 0.84375 -1.058594 L 0.0546875 -2.078125 L 0.324219 -2.078125 L 0.984375 -1.234375 L 1.636719 -2.078125 L 1.902344 -2.078125 L 1.105469 -1.0625 Z "/>
</g>
<g id="glyph-0-21">
<path d="M 1.039062 -1.449219 C 1.039062 -0.773438 0.8125 -0.171875 0.355469 0.355469 L 0.121094 0.355469 C 0.574219 -0.210938 0.800781 -0.8125 0.800781 -1.449219 C 0.800781 -2.09375 0.574219 -2.691406 0.121094 -3.25 L 0.355469 -3.25 C 0.8125 -2.742188 1.039062 -2.140625 1.039062 -1.449219 Z "/>
</g>
</g>
</defs>
<g fill="rgb(86.666667%, 86.666667%, 86.666667%)" fill-opacity="1">
<use xlink:href="#glyph-0-0" x="30" y="25.157227"/>
<use xlink:href="#glyph-0-1" x="32" y="25.157227"/>
<use xlink:href="#glyph-0-2" x="34" y="25.157227"/>
<use xlink:href="#glyph-0-3" x="37" y="25.157227"/>
<use xlink:href="#glyph-0-4" x="39" y="25.157227"/>
<use xlink:href="#glyph-0-5" x="41" y="25.157227"/>
<use xlink:href="#glyph-0-6" x="41" y="25.157227"/>
<use xlink:href="#glyph-0-7" x="43" y="25.157227"/>
<use xlink:href="#glyph-0-3" x="45" y="25.157227"/>
<use xlink:href="#glyph-0-8" x="47" y="25.157227"/>
<use xlink:href="#glyph-0-7" x="48" y="25.157227"/>
<use xlink:href="#glyph-0-9" x="50" y="25.157227"/>
<use xlink:href="#glyph-0-10" x="50" y="25.157227"/>
<use xlink:href="#glyph-0-6" x="52" y="25.157227"/>
<use xlink:href="#glyph-0-11" x="54" y="25.157227"/>
<use xlink:href="#glyph-0-12" x="54" y="25.157227"/>
<use xlink:href="#glyph-0-13" x="57" y="25.157227"/>
<use xlink:href="#glyph-0-12" x="58" y="25.157227"/>
<use xlink:href="#glyph-0-14" x="61" y="25.157227"/>
<use xlink:href="#glyph-0-12" x="63" y="25.157227"/>
<use xlink:href="#glyph-0-10" x="66" y="25.157227"/>
<use xlink:href="#glyph-0-7" x="68" y="25.157227"/>
<use xlink:href="#glyph-0-3" x="70" y="25.157227"/>
<use xlink:href="#glyph-0-15" x="72" y="25.157227"/>
<use xlink:href="#glyph-0-16" x="75" y="25.157227"/>
<use xlink:href="#glyph-0-17" x="76" y="25.157227"/>
</g>
<g fill="rgb(86.666667%, 86.666667%, 86.666667%)" fill-opacity="1">
<use xlink:href="#glyph-0-18" x="77" y="25.157227"/>
<use xlink:href="#glyph-0-19" x="79" y="25.157227"/>
<use xlink:href="#glyph-0-20" x="81" y="25.157227"/>
</g>
<g fill="rgb(86.666667%, 86.666667%, 86.666667%)" fill-opacity="1">
<use xlink:href="#glyph-0-21" x="83" y="25.157227"/>
</g>
</svg>
