<?xml version="1.0" encoding="UTF-8"?>
<svg xmlns="http://www.w3.org/2000/svg" xmlns:xlink="http://www.w3.org/1999/xlink" width="1080" height="1920" viewBox="0 0 1080 1920">
<defs>
<g>
<g id="glyph-0-0">
<path d="M 1.253906 -0.414062 C 1.253906 -0.289062 1.210938 -0.183594 1.125 -0.09375 C 1.035156 -0.00390625 0.929688 0.0390625 0.808594 0.0390625 C 0.667969 0.0390625 0.554688 -0.0078125 0.464844 -0.105469 C 0.390625 -0.191406 0.351562 -0.292969 0.351562 -0.414062 L 0.351562 -2.667969 L 0.59375 -2.667969 L 0.59375 -0.808594 C 0.65625 -0.84375 0.726562 -0.859375 0.808594 -0.859375 C 0.929688 -0.859375 1.035156 -0.816406 1.125 -0.730469 C 1.210938 -0.644531 1.253906 -0.539062 1.253906 -0.414062 M 1.035156 -0.410156 C 1.035156 -0.472656 1.011719 -0.527344 0.964844 -0.574219 C 0.921875 -0.617188 0.867188 -0.640625 0.808594 -0.640625 C 0.746094 -0.640625 0.691406 -0.617188 0.648438 -0.574219 C 0.601562 -0.527344 0.578125 -0.472656 0.578125 -0.410156 C 0.578125 -0.347656 0.601562 -0.292969 0.648438 -0.246094 C 0.691406 -0.203125 0.746094 -0.179688 0.808594 -0.179688 C 0.867188 -0.179688 0.921875 -0.203125 0.964844 -0.246094 C 1.011719 -0.292969 1.035156 -0.347656 1.035156 -0.410156 M 2.40625 -0.414062 C 2.40625 -0.289062 2.363281 -0.183594 2.277344 -0.09375 C 2.191406 -0.00390625 2.085938 0.0390625 1.960938 0.0390625 C 1.820312 0.0390625 1.707031 -0.0078125 1.621094 -0.105469 C 1.542969 -0.191406 1.507812 -0.292969 1.507812 -0.414062 L 1.507812 -2.667969 L 1.746094 -2.667969 L 1.746094 -0.808594 C 1.808594 -0.84375 1.878906 -0.859375 1.960938 -0.859375 C 2.085938 -0.859375 2.191406 -0.816406 2.277344 -0.730469 C 2.363281 -0.644531 2.40625 -0.539062 2.40625 -0.414062 M 2.1875 -0.410156 C 2.1875 -0.472656 2.164062 -0.527344 2.121094 -0.574219 C 2.074219 -0.617188 2.023438 -0.640625 1.960938 -0.640625 C 1.898438 -0.640625 1.84375 -0.617188 1.800781 -0.574219 C 1.753906 -0.527344 1.734375 -0.472656 1.734375 -0.410156 C 1.734375 -0.347656 1.753906 -0.292969 1.800781 -0.246094 C 1.84375 -0.203125 1.898438 -0.179688 1.960938 -0.179688 C 2.023438 -0.179688 2.074219 -0.203125 2.121094 -0.246094 C 2.164062 -0.292969 2.1875 -0.347656 2.1875 -0.410156 Z "/>
</g>
<g id="glyph-0-1">
<path d="M 2.148438 -0.554688 C 2.148438 -0.148438 1.941406 0.0546875 1.535156 0.0546875 C 1.132812 0.0546875 0.933594 -0.148438 0.933594 -0.554688 L 0.933594 -1.191406 C 0.933594 -1.300781 0.988281 -1.453125 1.101562 -1.644531 C 1.210938 -1.835938 1.265625 -1.984375 1.265625 -2.09375 C 1.265625 -2.195312 1.222656 -2.285156 1.136719 -2.363281 C 1.050781 -2.441406 0.945312 -2.480469 0.820312 -2.480469 C 0.625 -2.480469 0.476562 -2.414062 0.375 -2.28125 C 0.414062 -2.296875 0.464844 -2.308594 0.527344 -2.308594 C 0.640625 -2.308594 0.738281 -2.269531 0.808594 -2.195312 C 0.882812 -2.125 0.921875 -2.03125 0.921875 -1.921875 C 0.921875 -1.804688 0.882812 -1.707031 0.808594 -1.628906 C 0.738281 -1.550781 0.640625 -1.511719 0.527344 -1.511719 C 0.390625 -1.511719 0.285156 -1.5625 0.210938 -1.667969 C 0.136719 -1.769531 0.101562 -1.894531 0.101562 -2.039062 C 0.101562 -2.203125 0.164062 -2.351562 0.289062 -2.476562 C 0.414062 -2.601562 0.589844 -2.667969 0.816406 -2.667969 C 1.011719 -2.667969 1.171875 -2.617188 1.296875 -2.519531 C 1.421875 -2.421875 1.488281 -2.289062 1.488281 -2.121094 C 1.488281 -1.992188 1.433594 -1.824219 1.328125 -1.617188 C 1.226562 -1.40625 1.171875 -1.253906 1.171875 -1.15625 L 1.171875 -0.539062 C 1.171875 -0.289062 1.296875 -0.167969 1.539062 -0.167969 C 1.785156 -0.167969 1.90625 -0.289062 1.90625 -0.539062 L 1.90625 -2.613281 L 2.148438 -2.613281 L 2.148438 -0.554688 M 0.738281 -1.910156 C 0.738281 -1.972656 0.71875 -2.023438 0.679688 -2.0625 C 0.640625 -2.101562 0.589844 -2.121094 0.53125 -2.121094 C 0.46875 -2.121094 0.417969 -2.101562 0.378906 -2.0625 C 0.339844 -2.023438 0.320312 -1.972656 0.320312 -1.910156 C 0.320312 -1.847656 0.339844 -1.796875 0.378906 -1.757812 C 0.417969 -1.71875 0.46875 -1.699219 0.53125 -1.699219 C 0.589844 -1.699219 0.640625 -1.71875 0.679688 -1.757812 C 0.71875 -1.796875 0.738281 -1.847656 0.738281 -1.910156 Z "/>
</g>
<g id="glyph-0-2">
<path d="M 1.859375 -0.386719 C 1.859375 -0.265625 1.816406 -0.164062 1.730469 -0.078125 C 1.644531 0.0117188 1.539062 0.0546875 1.421875 0.0546875 C 1.300781 0.0546875 1.195312 0.0078125 1.109375 -0.078125 C 1.023438 -0.164062 0.980469 -0.269531 0.980469 -0.390625 C 0.980469 -0.511719 1.023438 -0.613281 1.109375 -0.703125 C 1.195312 -0.789062 1.300781 -0.832031 1.421875 -0.832031 C 1.496094 -0.832031 1.5625 -0.816406 1.621094 -0.785156 L 1.621094 -1.859375 C 1.621094 -2.25 1.398438 -2.445312 0.960938 -2.445312 C 0.609375 -2.445312 0.390625 -2.285156 0.308594 -1.964844 L 0.0664062 -1.964844 C 0.164062 -2.433594 0.464844 -2.667969 0.972656 -2.667969 C 1.226562 -2.667969 1.4375 -2.601562 1.605469 -2.464844 C 1.777344 -2.332031 1.859375 -2.144531 1.859375 -1.898438 L 1.859375 -0.386719 M 1.648438 -0.390625 C 1.648438 -0.453125 1.625 -0.503906 1.582031 -0.546875 C 1.539062 -0.589844 1.484375 -0.613281 1.421875 -0.613281 C 1.363281 -0.613281 1.308594 -0.589844 1.265625 -0.546875 C 1.222656 -0.503906 1.199219 -0.453125 1.199219 -0.390625 C 1.199219 -0.328125 1.222656 -0.277344 1.265625 -0.230469 C 1.308594 -0.1875 1.363281 -0.167969 1.421875 -0.167969 C 1.484375 -0.167969 1.539062 -0.1875 1.582031 -0.230469 C 1.625 -0.277344 1.648438 -0.328125 1.648438 -0.390625 Z "/>
</g>
<g id="glyph-0-3">
<path d="M 2.566406 -0.378906 C 2.566406 -0.261719 2.523438 -0.15625 2.4375 -0.0742188 C 2.347656 0.0117188 2.246094 0.0546875 2.125 0.0546875 C 2.003906 0.0546875 1.898438 0.0117188 1.8125 -0.0742188 C 1.730469 -0.15625 1.6875 -0.261719 1.6875 -0.378906 L 1.6875 -0.425781 C 1.410156 -0.316406 1.199219 -0.171875 1.046875 0 L 0.753906 0 L 0.753906 -1.835938 C 0.695312 -1.800781 0.628906 -1.785156 0.554688 -1.785156 C 0.433594 -1.785156 0.328125 -1.828125 0.242188 -1.917969 C 0.15625 -2.003906 0.113281 -2.105469 0.113281 -2.226562 C 0.113281 -2.347656 0.15625 -2.449219 0.242188 -2.535156 C 0.328125 -2.625 0.433594 -2.667969 0.554688 -2.667969 C 0.671875 -2.667969 0.777344 -2.625 0.863281 -2.535156 C 0.949219 -2.449219 0.992188 -2.347656 0.992188 -2.226562 L 0.992188 -0.261719 C 1.082031 -0.359375 1.238281 -0.457031 1.464844 -0.558594 C 1.71875 -0.675781 1.882812 -0.765625 1.960938 -0.828125 C 2.109375 -0.945312 2.1875 -1.101562 2.1875 -1.285156 L 2.1875 -2.613281 L 2.425781 -2.613281 L 2.425781 -1.253906 C 2.425781 -1.039062 2.378906 -0.882812 2.28125 -0.785156 C 2.472656 -0.710938 2.566406 -0.574219 2.566406 -0.378906 M 0.78125 -2.226562 C 0.78125 -2.285156 0.757812 -2.339844 0.714844 -2.382812 C 0.671875 -2.425781 0.617188 -2.445312 0.558594 -2.445312 C 0.496094 -2.445312 0.441406 -2.425781 0.398438 -2.382812 C 0.355469 -2.339844 0.332031 -2.285156 0.332031 -2.226562 C 0.332031 -2.167969 0.355469 -2.113281 0.398438 -2.070312 C 0.441406 -2.027344 0.496094 -2.007812 0.558594 -2.007812 C 0.617188 -2.007812 0.671875 -2.027344 0.714844 -2.070312 C 0.757812 -2.113281 0.78125 -2.167969 0.78125 -2.226562 M 2.347656 -0.394531 C 2.347656 -0.457031 2.324219 -0.507812 2.28125 -0.554688 C 2.234375 -0.597656 2.183594 -0.621094 2.121094 -0.621094 C 2.058594 -0.621094 2.003906 -0.597656 1.960938 -0.554688 C 1.914062 -0.507812 1.894531 -0.457031 1.894531 -0.394531 C 1.894531 -0.332031 1.914062 -0.277344 1.960938 -0.234375 C 2.003906 -0.1875 2.058594 -0.167969 2.121094 -0.167969 C 2.183594 -0.167969 2.234375 -0.1875 2.28125 -0.234375 C 2.324219 -0.277344 2.347656 -0.332031 2.347656 -0.394531 Z "/>
</g>
<g id="glyph-0-4">
<path d="M 2.292969 0 L 2.035156 0 C 1.6875 -0.265625 1.363281 -0.441406 1.058594 -0.527344 C 1.074219 -0.488281 1.078125 -0.445312 1.078125 -0.40625 C 1.078125 -0.277344 1.035156 -0.167969 0.941406 -0.078125 C 0.851562 0.0078125 0.742188 0.0546875 0.613281 0.0546875 C 0.484375 0.0546875 0.375 0.0078125 0.285156 -0.0820312 C 0.199219 -0.171875 0.152344 -0.28125 0.152344 -0.410156 C 0.152344 -0.539062 0.199219 -0.652344 0.285156 -0.742188 C 0.375 -0.835938 0.484375 -0.878906 0.613281 -0.878906 C 0.664062 -0.878906 0.707031 -0.875 0.753906 -0.859375 L 0.753906 -1.835938 C 0.695312 -1.800781 0.628906 -1.785156 0.554688 -1.785156 C 0.433594 -1.785156 0.328125 -1.828125 0.242188 -1.917969 C 0.15625 -2.003906 0.113281 -2.105469 0.113281 -2.226562 C 0.113281 -2.347656 0.15625 -2.449219 0.242188 -2.535156 C 0.328125 -2.625 0.433594 -2.667969 0.554688 -2.667969 C 0.671875 -2.667969 0.777344 -2.625 0.863281 -2.535156 C 0.949219 -2.449219 0.992188 -2.347656 0.992188 -2.226562 L 0.992188 -0.785156 C 1.433594 -0.632812 1.785156 -0.449219 2.054688 -0.246094 L 2.054688 -2.613281 L 2.292969 -2.613281 L 2.292969 0 M 0.859375 -0.414062 C 0.859375 -0.480469 0.835938 -0.539062 0.789062 -0.585938 C 0.738281 -0.636719 0.683594 -0.660156 0.617188 -0.660156 C 0.550781 -0.660156 0.492188 -0.636719 0.445312 -0.585938 C 0.398438 -0.539062 0.375 -0.480469 0.375 -0.414062 C 0.375 -0.347656 0.398438 -0.289062 0.445312 -0.238281 C 0.492188 -0.191406 0.550781 -0.167969 0.617188 -0.167969 C 0.683594 -0.167969 0.738281 -0.191406 0.789062 -0.238281 C 0.835938 -0.289062 0.859375 -0.347656 0.859375 -0.414062 M 0.78125 -2.226562 C 0.78125 -2.285156 0.757812 -2.339844 0.714844 -2.382812 C 0.671875 -2.425781 0.617188 -2.445312 0.558594 -2.445312 C 0.496094 -2.445312 0.441406 -2.425781 0.398438 -2.382812 C 0.355469 -2.339844 0.332031 -2.285156 0.332031 -2.226562 C 0.332031 -2.167969 0.355469 -2.113281 0.398438 -2.070312 C 0.441406 -2.027344 0.496094 -2.007812 0.558594 -2.007812 C 0.617188 -2.007812 0.671875 -2.027344 0.714844 -2.070312 C 0.757812 -2.113281 0.78125 -2.167969 0.78125 -2.226562 Z "/>
</g>
<g id="glyph-0-5">
<path d="M 2.167969 0 L 1.925781 0 L 1.925781 -1.140625 C 1.925781 -1.296875 1.84375 -1.421875 1.679688 -1.511719 C 1.542969 -1.589844 1.386719 -1.625 1.203125 -1.625 C 1.027344 -1.625 0.875 -1.578125 0.753906 -1.484375 C 0.628906 -1.386719 0.566406 -1.265625 0.566406 -1.113281 L 0.558594 -0.78125 C 0.621094 -0.8125 0.695312 -0.828125 0.78125 -0.828125 C 0.90625 -0.828125 1.007812 -0.785156 1.09375 -0.695312 C 1.179688 -0.609375 1.21875 -0.507812 1.21875 -0.386719 C 1.21875 -0.265625 1.179688 -0.164062 1.09375 -0.078125 C 1.007812 0.0117188 0.90625 0.0546875 0.78125 0.0546875 C 0.640625 0.0546875 0.53125 0.0078125 0.445312 -0.078125 C 0.363281 -0.167969 0.320312 -0.273438 0.320312 -0.394531 L 0.320312 -1.113281 C 0.320312 -1.335938 0.410156 -1.519531 0.585938 -1.660156 C 0.75 -1.792969 0.949219 -1.859375 1.179688 -1.859375 C 1.492188 -1.859375 1.738281 -1.769531 1.925781 -1.59375 L 1.925781 -1.917969 C 1.925781 -2.078125 1.84375 -2.207031 1.671875 -2.3125 C 1.527344 -2.402344 1.363281 -2.445312 1.1875 -2.445312 C 1 -2.445312 0.832031 -2.40625 0.679688 -2.328125 C 0.515625 -2.238281 0.414062 -2.117188 0.375 -1.964844 L 0.140625 -1.964844 C 0.171875 -2.171875 0.292969 -2.339844 0.5 -2.472656 C 0.695312 -2.601562 0.921875 -2.667969 1.171875 -2.667969 C 1.429688 -2.667969 1.652344 -2.605469 1.839844 -2.488281 C 2.058594 -2.34375 2.167969 -2.152344 2.167969 -1.90625 L 2.167969 0 M 1 -0.382812 C 1 -0.445312 0.976562 -0.496094 0.933594 -0.539062 C 0.890625 -0.585938 0.839844 -0.605469 0.777344 -0.605469 C 0.714844 -0.605469 0.664062 -0.585938 0.621094 -0.539062 C 0.582031 -0.496094 0.558594 -0.445312 0.558594 -0.382812 C 0.558594 -0.320312 0.582031 -0.269531 0.621094 -0.230469 C 0.664062 -0.1875 0.714844 -0.167969 0.777344 -0.167969 C 0.839844 -0.167969 0.890625 -0.1875 0.933594 -0.230469 C 0.976562 -0.269531 1 -0.320312 1 -0.382812 Z "/>
</g>
<g id="glyph-0-6">
</g>
<g id="glyph-0-7">
<path d="M 2.121094 -1.09375 C 2.121094 -0.75 2.003906 -0.472656 1.773438 -0.261719 C 1.542969 -0.0507812 1.246094 0.0546875 0.878906 0.0546875 C 0.574219 0.0546875 0.332031 -0.0273438 0.160156 -0.191406 L 0.273438 -0.398438 C 0.335938 -0.359375 0.402344 -0.320312 0.472656 -0.285156 C 0.597656 -0.230469 0.75 -0.199219 0.933594 -0.199219 C 1.171875 -0.199219 1.386719 -0.277344 1.570312 -0.433594 C 1.753906 -0.589844 1.847656 -0.808594 1.847656 -1.085938 C 1.847656 -1.328125 1.765625 -1.507812 1.605469 -1.625 C 1.472656 -1.734375 1.300781 -1.785156 1.085938 -1.785156 C 0.898438 -1.785156 0.75 -1.714844 0.640625 -1.566406 L 0.5 -1.554688 L 0.59375 -3.167969 L 2.019531 -3.167969 L 1.972656 -2.914062 L 0.851562 -2.914062 L 0.792969 -1.972656 C 0.910156 -2.019531 1.035156 -2.039062 1.167969 -2.039062 C 1.425781 -2.039062 1.644531 -1.960938 1.828125 -1.800781 C 2.023438 -1.621094 2.121094 -1.386719 2.121094 -1.09375 Z "/>
</g>
<g id="glyph-0-8">
<path d="M 2.191406 -1.511719 C 2.191406 -1.140625 2.125 -0.808594 1.988281 -0.503906 C 1.804688 -0.121094 1.542969 0.0742188 1.203125 0.0742188 C 0.859375 0.0742188 0.597656 -0.121094 0.414062 -0.503906 C 0.277344 -0.800781 0.207031 -1.136719 0.207031 -1.511719 C 0.207031 -1.957031 0.28125 -2.335938 0.433594 -2.648438 C 0.617188 -3.007812 0.871094 -3.1875 1.203125 -3.1875 C 1.535156 -3.1875 1.789062 -3.007812 1.972656 -2.648438 C 2.121094 -2.335938 2.191406 -1.957031 2.191406 -1.511719 M 1.933594 -1.515625 C 1.933594 -1.902344 1.878906 -2.230469 1.765625 -2.5 C 1.632812 -2.8125 1.445312 -2.964844 1.203125 -2.964844 C 0.957031 -2.964844 0.769531 -2.8125 0.632812 -2.5 C 0.523438 -2.234375 0.464844 -1.910156 0.464844 -1.515625 C 0.464844 -1.195312 0.519531 -0.90625 0.628906 -0.648438 C 0.761719 -0.3125 0.953125 -0.148438 1.203125 -0.148438 C 1.449219 -0.148438 1.636719 -0.3125 1.773438 -0.648438 C 1.878906 -0.90625 1.933594 -1.195312 1.933594 -1.515625 Z "/>
</g>
<g id="glyph-0-9">
<path d="M 2.179688 -0.0078125 L 1.921875 0.0664062 L 0.839844 -1.179688 L 0.605469 -0.953125 L 0.605469 0 L 0.347656 0 L 0.347656 -3.367188 L 0.605469 -3.367188 L 0.605469 -1.246094 L 1.734375 -2.300781 L 2 -2.246094 L 1.027344 -1.328125 Z "/>
</g>
<g id="glyph-0-10">
<path d="M 1.839844 -1.519531 C 1.839844 -1.269531 1.761719 -1.074219 1.609375 -0.925781 C 1.457031 -0.78125 1.265625 -0.707031 1.039062 -0.707031 C 0.902344 -0.707031 0.785156 -0.730469 0.6875 -0.78125 C 0.660156 -0.714844 0.648438 -0.648438 0.648438 -0.585938 C 0.648438 -0.472656 0.828125 -0.363281 1.1875 -0.261719 C 1.613281 -0.140625 1.828125 0.078125 1.828125 0.394531 C 1.828125 0.585938 1.757812 0.742188 1.617188 0.863281 C 1.476562 0.984375 1.273438 1.046875 1.007812 1.046875 C 0.769531 1.046875 0.554688 0.988281 0.359375 0.871094 L 0.453125 0.660156 C 0.644531 0.769531 0.835938 0.828125 1.027344 0.828125 C 1.191406 0.828125 1.328125 0.789062 1.433594 0.714844 C 1.539062 0.636719 1.59375 0.539062 1.59375 0.417969 C 1.59375 0.207031 1.417969 0.0390625 1.070312 -0.0742188 C 0.859375 -0.140625 0.710938 -0.203125 0.632812 -0.253906 C 0.496094 -0.339844 0.425781 -0.449219 0.425781 -0.582031 C 0.425781 -0.664062 0.449219 -0.769531 0.492188 -0.902344 C 0.324219 -1.082031 0.238281 -1.269531 0.238281 -1.472656 C 0.238281 -1.710938 0.316406 -1.90625 0.46875 -2.054688 C 0.621094 -2.199219 0.796875 -2.273438 1.003906 -2.273438 L 1.890625 -2.273438 L 1.890625 -2.058594 L 1.566406 -2.09375 C 1.75 -1.914062 1.839844 -1.722656 1.839844 -1.519531 M 1.605469 -1.488281 C 1.605469 -1.632812 1.558594 -1.761719 1.46875 -1.875 C 1.363281 -2.007812 1.21875 -2.074219 1.035156 -2.074219 C 0.859375 -2.074219 0.722656 -2.015625 0.625 -1.898438 C 0.527344 -1.777344 0.480469 -1.640625 0.480469 -1.480469 C 0.480469 -1.300781 0.539062 -1.160156 0.660156 -1.054688 C 0.769531 -0.957031 0.894531 -0.90625 1.035156 -0.90625 C 1.195312 -0.90625 1.332031 -0.957031 1.441406 -1.058594 C 1.550781 -1.164062 1.605469 -1.304688 1.605469 -1.488281 Z "/>
</g>
<g id="glyph-0-11">
<path d="M 1.511719 -0.398438 C 1.511719 -0.277344 1.46875 -0.167969 1.378906 -0.078125 C 1.292969 0.0078125 1.1875 0.0546875 1.066406 0.0546875 C 0.925781 0.0546875 0.808594 0.00390625 0.71875 -0.09375 C 0.644531 -0.179688 0.605469 -0.28125 0.605469 -0.398438 L 0.605469 -3.125 C 0.605469 -3.203125 0.625 -3.289062 0.667969 -3.386719 C 0.761719 -3.613281 0.808594 -3.753906 0.808594 -3.808594 C 0.808594 -3.917969 0.769531 -4.007812 0.691406 -4.078125 C 0.617188 -4.152344 0.523438 -4.1875 0.414062 -4.1875 C 0.25 -4.1875 0.121094 -4.132812 0.0351562 -4.027344 C 0.152344 -4.042969 0.253906 -4.019531 0.332031 -3.949219 C 0.414062 -3.875 0.453125 -3.785156 0.453125 -3.671875 C 0.453125 -3.570312 0.417969 -3.484375 0.347656 -3.414062 C 0.277344 -3.34375 0.191406 -3.308594 0.09375 -3.308594 C -0.00390625 -3.308594 -0.0898438 -3.34375 -0.167969 -3.414062 C -0.242188 -3.484375 -0.28125 -3.589844 -0.28125 -3.730469 C -0.28125 -3.910156 -0.214844 -4.0625 -0.0859375 -4.1875 C 0.0429688 -4.3125 0.214844 -4.375 0.433594 -4.375 C 0.59375 -4.375 0.738281 -4.324219 0.863281 -4.222656 C 0.988281 -4.125 1.054688 -3.996094 1.054688 -3.839844 C 1.054688 -3.746094 1.019531 -3.621094 0.949219 -3.453125 C 0.882812 -3.289062 0.847656 -3.164062 0.847656 -3.074219 L 0.847656 -0.792969 C 0.910156 -0.828125 0.980469 -0.847656 1.066406 -0.847656 C 1.1875 -0.847656 1.292969 -0.804688 1.378906 -0.714844 C 1.46875 -0.628906 1.511719 -0.523438 1.511719 -0.398438 M 1.292969 -0.398438 C 1.292969 -0.460938 1.269531 -0.515625 1.222656 -0.558594 C 1.175781 -0.605469 1.121094 -0.625 1.058594 -0.625 C 1.003906 -0.625 0.949219 -0.605469 0.90625 -0.558594 C 0.863281 -0.515625 0.839844 -0.460938 0.839844 -0.398438 C 0.839844 -0.332031 0.859375 -0.28125 0.902344 -0.234375 C 0.945312 -0.1875 0.996094 -0.167969 1.058594 -0.167969 C 1.121094 -0.167969 1.175781 -0.1875 1.222656 -0.234375 C 1.269531 -0.28125 1.292969 -0.332031 1.292969 -0.398438 M 0.273438 -3.671875 C 0.273438 -3.71875 0.257812 -3.761719 0.222656 -3.796875 C 0.191406 -3.835938 0.144531 -3.851562 0.0859375 -3.851562 C 0.0273438 -3.851562 -0.015625 -3.835938 -0.0507812 -3.796875 C -0.0820312 -3.761719 -0.101562 -3.71875 -0.101562 -3.671875 C -0.101562 -3.625 -0.0820312 -3.585938 -0.0507812 -3.546875 C -0.015625 -3.511719 0.0273438 -3.492188 0.0859375 -3.492188 C 0.144531 -3.492188 0.191406 -3.511719 0.222656 -3.546875 C 0.257812 -3.585938 0.273438 -3.625 0.273438 -3.671875 Z "/>
</g>
<g id="glyph-0-12">
<path d="M 2.167969 0 L 1.925781 0 L 1.925781 -1.085938 C 1.925781 -1.242188 1.84375 -1.367188 1.679688 -1.460938 C 1.542969 -1.535156 1.386719 -1.574219 1.203125 -1.574219 C 1.027344 -1.574219 0.875 -1.527344 0.753906 -1.429688 C 0.628906 -1.335938 0.566406 -1.210938 0.566406 -1.058594 L 0.558594 -0.78125 C 0.621094 -0.8125 0.695312 -0.828125 0.78125 -0.828125 C 0.90625 -0.828125 1.007812 -0.785156 1.09375 -0.695312 C 1.179688 -0.609375 1.21875 -0.507812 1.21875 -0.386719 C 1.21875 -0.265625 1.179688 -0.164062 1.09375 -0.078125 C 1.007812 0.0117188 0.90625 0.0546875 0.78125 0.0546875 C 0.640625 0.0546875 0.53125 0.0078125 0.445312 -0.078125 C 0.363281 -0.167969 0.320312 -0.273438 0.320312 -0.390625 L 0.320312 -1.058594 C 0.320312 -1.277344 0.410156 -1.460938 0.585938 -1.601562 C 0.75 -1.734375 0.949219 -1.800781 1.179688 -1.800781 L 1.21875 -1.800781 C 1.421875 -1.964844 1.589844 -2.125 1.726562 -2.28125 C 1.5625 -2.390625 1.382812 -2.445312 1.1875 -2.445312 C 1 -2.445312 0.832031 -2.40625 0.679688 -2.328125 C 0.515625 -2.238281 0.414062 -2.117188 0.375 -1.964844 L 0.140625 -1.964844 C 0.171875 -2.171875 0.292969 -2.339844 0.5 -2.472656 C 0.695312 -2.601562 0.921875 -2.667969 1.171875 -2.667969 C 1.425781 -2.667969 1.65625 -2.601562 1.859375 -2.472656 C 1.953125 -2.578125 2.011719 -2.703125 2.039062 -2.847656 L 2.28125 -2.847656 C 2.25 -2.667969 2.164062 -2.492188 2.027344 -2.320312 C 2.121094 -2.199219 2.167969 -2.0625 2.167969 -1.90625 L 2.167969 0 M 1.925781 -1.539062 L 1.925781 -1.921875 C 1.925781 -1.980469 1.90625 -2.054688 1.867188 -2.132812 C 1.742188 -2 1.609375 -1.878906 1.464844 -1.773438 C 1.652344 -1.730469 1.808594 -1.652344 1.925781 -1.539062 M 1 -0.382812 C 1 -0.445312 0.976562 -0.496094 0.933594 -0.539062 C 0.890625 -0.585938 0.839844 -0.605469 0.777344 -0.605469 C 0.714844 -0.605469 0.664062 -0.585938 0.621094 -0.539062 C 0.582031 -0.496094 0.558594 -0.445312 0.558594 -0.382812 C 0.558594 -0.320312 0.582031 -0.269531 0.621094 -0.230469 C 0.664062 -0.1875 0.714844 -0.167969 0.777344 -0.167969 C 0.839844 -0.167969 0.890625 -0.1875 0.933594 -0.230469 C 0.976562 -0.269531 1 -0.320312 1 -0.382812 Z "/>
</g>
<g id="glyph-0-13">
<path d="M 2.148438 0 L 1.90625 0 L 1.90625 -1.734375 C 1.90625 -1.960938 1.839844 -2.136719 1.707031 -2.261719 C 1.574219 -2.382812 1.398438 -2.445312 1.179688 -2.445312 C 1.027344 -2.445312 0.882812 -2.402344 0.746094 -2.320312 C 0.605469 -2.234375 0.511719 -2.125 0.457031 -1.992188 C 0.726562 -1.972656 0.898438 -1.875 0.980469 -1.707031 C 0.878906 -1.683594 0.785156 -1.625 0.707031 -1.527344 C 0.625 -1.433594 0.585938 -1.328125 0.585938 -1.214844 L 0.59375 -0.78125 C 0.664062 -0.8125 0.734375 -0.828125 0.796875 -0.828125 C 0.921875 -0.828125 1.027344 -0.785156 1.117188 -0.699219 C 1.203125 -0.613281 1.246094 -0.507812 1.246094 -0.382812 C 1.246094 -0.25 1.203125 -0.144531 1.117188 -0.0664062 C 1.035156 0.0117188 0.925781 0.0546875 0.796875 0.0546875 C 0.671875 0.0546875 0.566406 0.0117188 0.480469 -0.0742188 C 0.394531 -0.15625 0.351562 -0.261719 0.351562 -0.386719 L 0.351562 -1.214844 C 0.351562 -1.453125 0.464844 -1.628906 0.691406 -1.738281 C 0.574219 -1.789062 0.398438 -1.8125 0.171875 -1.8125 C 0.207031 -2.058594 0.324219 -2.261719 0.519531 -2.421875 C 0.714844 -2.585938 0.941406 -2.667969 1.191406 -2.667969 C 1.476562 -2.667969 1.707031 -2.585938 1.882812 -2.425781 C 2.058594 -2.265625 2.148438 -2.046875 2.148438 -1.765625 L 2.148438 0 M 1.027344 -0.382812 C 1.027344 -0.445312 1.003906 -0.496094 0.960938 -0.539062 C 0.914062 -0.585938 0.859375 -0.605469 0.796875 -0.605469 C 0.734375 -0.605469 0.679688 -0.585938 0.636719 -0.539062 C 0.59375 -0.496094 0.574219 -0.445312 0.574219 -0.382812 C 0.574219 -0.320312 0.59375 -0.269531 0.636719 -0.230469 C 0.679688 -0.1875 0.734375 -0.167969 0.796875 -0.167969 C 0.859375 -0.167969 0.914062 -0.1875 0.960938 -0.230469 C 1.003906 -0.269531 1.027344 -0.320312 1.027344 -0.382812 Z "/>
</g>
<g id="glyph-0-14">
<path d="M 1.734375 0 L 1.492188 0 L 1.492188 -1.988281 C 1.492188 -2.121094 1.441406 -2.230469 1.34375 -2.316406 C 1.242188 -2.402344 1.105469 -2.445312 0.933594 -2.445312 C 0.777344 -2.445312 0.652344 -2.394531 0.558594 -2.289062 C 0.464844 -2.1875 0.414062 -2.074219 0.40625 -1.953125 L 0.160156 -1.953125 C 0.164062 -2.140625 0.238281 -2.304688 0.382812 -2.449219 C 0.527344 -2.59375 0.714844 -2.667969 0.941406 -2.667969 C 1.199219 -2.667969 1.394531 -2.605469 1.53125 -2.480469 C 1.664062 -2.355469 1.734375 -2.191406 1.734375 -1.988281 Z "/>
</g>
<g id="glyph-0-15">
<path d="M 2.019531 -2.546875 C 2.011719 -2.246094 1.921875 -1.996094 1.746094 -1.804688 C 1.574219 -1.609375 1.347656 -1.511719 1.074219 -1.511719 C 0.847656 -1.511719 0.65625 -1.554688 0.5 -1.640625 C 0.304688 -1.742188 0.207031 -1.894531 0.207031 -2.101562 C 0.207031 -2.214844 0.25 -2.316406 0.332031 -2.398438 C 0.417969 -2.484375 0.515625 -2.527344 0.628906 -2.527344 C 0.746094 -2.527344 0.84375 -2.484375 0.925781 -2.398438 C 1.011719 -2.316406 1.054688 -2.214844 1.054688 -2.101562 C 1.054688 -1.949219 0.992188 -1.832031 0.867188 -1.746094 C 0.9375 -1.730469 0.992188 -1.71875 1.03125 -1.71875 C 1.273438 -1.730469 1.457031 -1.808594 1.578125 -1.957031 C 1.703125 -2.105469 1.769531 -2.300781 1.78125 -2.546875 L 2.019531 -2.546875 M 0.832031 -2.097656 C 0.832031 -2.15625 0.8125 -2.207031 0.773438 -2.246094 C 0.734375 -2.285156 0.683594 -2.308594 0.621094 -2.308594 C 0.558594 -2.308594 0.507812 -2.285156 0.46875 -2.246094 C 0.433594 -2.207031 0.414062 -2.15625 0.414062 -2.097656 C 0.414062 -2.035156 0.433594 -1.984375 0.46875 -1.949219 C 0.507812 -1.910156 0.558594 -1.894531 0.621094 -1.894531 C 0.683594 -1.894531 0.734375 -1.910156 0.773438 -1.949219 C 0.8125 -1.984375 0.832031 -2.035156 0.832031 -2.097656 M 2.019531 -1.140625 C 2.011719 -0.835938 1.921875 -0.585938 1.746094 -0.390625 C 1.574219 -0.199219 1.347656 -0.101562 1.074219 -0.101562 C 0.847656 -0.101562 0.65625 -0.140625 0.5 -0.226562 C 0.304688 -0.332031 0.207031 -0.484375 0.207031 -0.691406 C 0.207031 -0.808594 0.25 -0.90625 0.332031 -0.992188 C 0.417969 -1.078125 0.515625 -1.121094 0.628906 -1.121094 C 0.746094 -1.121094 0.84375 -1.078125 0.925781 -0.992188 C 1.011719 -0.90625 1.054688 -0.804688 1.054688 -0.691406 C 1.054688 -0.539062 0.992188 -0.417969 0.867188 -0.332031 C 0.9375 -0.316406 0.992188 -0.308594 1.03125 -0.308594 C 1.273438 -0.316406 1.457031 -0.394531 1.578125 -0.546875 C 1.703125 -0.695312 1.769531 -0.894531 1.78125 -1.140625 L 2.019531 -1.140625 M 0.832031 -0.6875 C 0.832031 -0.75 0.8125 -0.800781 0.773438 -0.839844 C 0.734375 -0.878906 0.683594 -0.898438 0.621094 -0.898438 C 0.558594 -0.898438 0.507812 -0.878906 0.46875 -0.839844 C 0.433594 -0.800781 0.414062 -0.75 0.414062 -0.6875 C 0.414062 -0.625 0.433594 -0.574219 0.46875 -0.535156 C 0.507812 -0.5 0.558594 -0.480469 0.621094 -0.480469 C 0.683594 -0.480469 0.734375 -0.5 0.773438 -0.535156 C 0.8125 -0.574219 0.832031 -0.625 0.832031 -0.6875 Z "/>
</g>
<g id="glyph-0-16">
<path d="M 2.234375 0 L 1.992188 0 L 1.992188 -1.730469 C 1.992188 -2.207031 1.738281 -2.445312 1.226562 -2.445312 C 1.023438 -2.445312 0.84375 -2.375 0.6875 -2.238281 C 0.53125 -2.097656 0.453125 -1.925781 0.453125 -1.722656 C 0.453125 -1.59375 0.488281 -1.421875 0.558594 -1.199219 C 0.632812 -0.980469 0.667969 -0.8125 0.667969 -0.691406 C 0.667969 -0.605469 0.664062 -0.542969 0.652344 -0.511719 C 0.707031 -0.628906 0.796875 -0.757812 0.925781 -0.898438 C 1.027344 -1.011719 1.132812 -1.125 1.238281 -1.238281 C 1.128906 -1.238281 1.035156 -1.277344 0.960938 -1.351562 C 0.882812 -1.429688 0.847656 -1.523438 0.847656 -1.632812 C 0.847656 -1.746094 0.882812 -1.835938 0.960938 -1.914062 C 1.035156 -1.988281 1.128906 -2.027344 1.238281 -2.027344 C 1.351562 -2.027344 1.445312 -1.988281 1.519531 -1.914062 C 1.59375 -1.835938 1.632812 -1.746094 1.632812 -1.632812 C 1.632812 -1.421875 1.476562 -1.148438 1.164062 -0.820312 C 0.851562 -0.492188 0.6875 -0.21875 0.671875 0 L 0.433594 0 L 0.433594 -0.601562 C 0.433594 -0.730469 0.398438 -0.914062 0.324219 -1.148438 C 0.25 -1.386719 0.214844 -1.570312 0.214844 -1.691406 C 0.214844 -1.996094 0.3125 -2.234375 0.511719 -2.40625 C 0.714844 -2.578125 0.960938 -2.667969 1.261719 -2.667969 C 1.566406 -2.667969 1.804688 -2.585938 1.976562 -2.421875 C 2.148438 -2.261719 2.234375 -2.042969 2.234375 -1.765625 L 2.234375 0 M 1.445312 -1.632812 C 1.445312 -1.691406 1.425781 -1.738281 1.386719 -1.78125 C 1.347656 -1.820312 1.296875 -1.839844 1.238281 -1.839844 C 1.183594 -1.839844 1.132812 -1.820312 1.09375 -1.78125 C 1.054688 -1.738281 1.035156 -1.691406 1.035156 -1.632812 C 1.035156 -1.574219 1.054688 -1.527344 1.09375 -1.488281 C 1.132812 -1.445312 1.183594 -1.425781 1.238281 -1.425781 C 1.296875 -1.425781 1.347656 -1.445312 1.386719 -1.488281 C 1.425781 -1.527344 1.445312 -1.574219 1.445312 -1.632812 Z "/>
</g>
<g id="glyph-0-17">
<path d="M -0.375 1.546875 L -0.613281 1.546875 L -0.613281 1.007812 C -0.648438 1.019531 -0.6875 1.027344 -0.730469 1.027344 C -0.828125 1.027344 -0.910156 0.992188 -0.976562 0.921875 C -1.046875 0.855469 -1.078125 0.769531 -1.078125 0.671875 C -1.078125 0.574219 -1.046875 0.492188 -0.976562 0.421875 C -0.90625 0.355469 -0.824219 0.320312 -0.726562 0.320312 C -0.628906 0.320312 -0.546875 0.355469 -0.476562 0.421875 C -0.40625 0.492188 -0.375 0.574219 -0.375 0.671875 L -0.375 1.546875 M -0.554688 0.667969 C -0.554688 0.617188 -0.570312 0.578125 -0.601562 0.542969 C -0.636719 0.511719 -0.679688 0.492188 -0.726562 0.492188 C -0.777344 0.492188 -0.816406 0.511719 -0.851562 0.542969 C -0.882812 0.578125 -0.898438 0.617188 -0.898438 0.667969 C -0.898438 0.714844 -0.882812 0.757812 -0.851562 0.789062 C -0.816406 0.824219 -0.777344 0.839844 -0.726562 0.839844 C -0.679688 0.839844 -0.636719 0.824219 -0.601562 0.789062 C -0.570312 0.757812 -0.554688 0.714844 -0.554688 0.667969 Z "/>
</g>
<g id="glyph-0-18">
<path d="M 2.199219 0 L 1.960938 0 L 1.960938 -1.734375 C 1.960938 -1.953125 1.890625 -2.125 1.757812 -2.253906 C 1.621094 -2.382812 1.445312 -2.445312 1.234375 -2.445312 C 1.082031 -2.445312 0.9375 -2.40625 0.792969 -2.320312 C 0.652344 -2.238281 0.554688 -2.132812 0.5 -2 C 0.761719 -1.976562 0.941406 -1.878906 1.039062 -1.707031 C 0.933594 -1.683594 0.839844 -1.625 0.761719 -1.53125 C 0.679688 -1.433594 0.640625 -1.328125 0.640625 -1.214844 L 0.640625 0 L 0.398438 0 L 0.398438 -1.207031 C 0.398438 -1.46875 0.515625 -1.648438 0.746094 -1.738281 C 0.601562 -1.8125 0.429688 -1.835938 0.238281 -1.8125 C 0.277344 -2.0625 0.386719 -2.265625 0.578125 -2.425781 C 0.765625 -2.585938 0.988281 -2.667969 1.246094 -2.667969 C 1.535156 -2.667969 1.765625 -2.585938 1.941406 -2.425781 C 2.113281 -2.265625 2.199219 -2.046875 2.199219 -1.765625 Z "/>
</g>
</g>
</defs>
<g fill="rgb(86.666667%, 86.666667%, 86.666667%)" fill-opacity="1">
<use xlink:href="#glyph-0-0" x="30" y="25.625977"/>
<use xlink:href="#glyph-0-1" x="32" y="25.625977"/>
<use xlink:href="#glyph-0-2" x="35" y="25.625977"/>
<use xlink:href="#glyph-0-3" x="37" y="25.625977"/>
<use xlink:href="#glyph-0-4" x="40" y="25.625977"/>
<use xlink:href="#glyph-0-2" x="43" y="25.625977"/>
<use xlink:href="#glyph-0-5" x="45" y="25.625977"/>
<use xlink:href="#glyph-0-6" x="48" y="25.625977"/>
<use xlink:href="#glyph-0-7" x="49" y="25.625977"/>
<use xlink:href="#glyph-0-8" x="51" y="25.625977"/>
<use xlink:href="#glyph-0-6" x="53" y="25.625977"/>
</g>
<g fill="rgb(86.666667%, 86.666667%, 86.666667%)" fill-opacity="1">
<use xlink:href="#glyph-0-9" x="54" y="25.625977"/>
<use xlink:href="#glyph-0-10" x="56" y="25.625977"/>
<use xlink:href="#glyph-0-6" x="58" y="25.625977"/>
</g>
<g fill="rgb(86.666667%, 86.666667%, 86.666667%)" fill-opacity="1">
<use xlink:href="#glyph-0-11" x="59" y="25.625977"/>
<use xlink:href="#glyph-0-3" x="61" y="25.625977"/>
<use xlink:href="#glyph-0-12" x="64" y="25.625977"/>
<use xlink:href="#glyph-0-13" x="67" y="25.625977"/>
<use xlink:href="#glyph-0-14" x="70" y="25.625977"/>
<use xlink:href="#glyph-0-3" x="72" y="25.625977"/>
<use xlink:href="#glyph-0-15" x="75" y="25.625977"/>
<use xlink:href="#glyph-0-12" x="77" y="25.625977"/>
<use xlink:href="#glyph-0-4" x="80" y="25.625977"/>
<use xlink:href="#glyph-0-16" x="83" y="25.625977"/>
<use xlink:href="#glyph-0-17" x="86" y="25.625977"/>
<use xlink:href="#glyph-0-5" x="86" y="25.625977"/>
<use xlink:href="#glyph-0-18" x="89" y="25.625977"/>
<use xlink:href="#glyph-0-5" x="92" y="25.625977"/>
</g>
</svg>
