<?xml version="1.0" encoding="UTF-8"?>
<svg xmlns="http://www.w3.org/2000/svg" xmlns:xlink="http://www.w3.org/1999/xlink" width="1080" height="1920" viewBox="0 0 1080 1920">
<defs>
<g>
<g id="glyph-0-0">
<path d="M 1.859375 -0.425781 C 1.859375 -0.113281 1.644531 0.0390625 1.214844 0.0390625 C 0.78125 0.0390625 0.566406 -0.113281 0.566406 -0.425781 L 0.566406 -1.375 C 0.523438 -1.351562 0.472656 -1.339844 0.414062 -1.339844 C 0.324219 -1.339844 0.246094 -1.371094 0.183594 -1.4375 C 0.117188 -1.503906 0.0859375 -1.578125 0.0859375 -1.671875 C 0.0859375 -1.761719 0.117188 -1.835938 0.183594 -1.902344 C 0.246094 -1.96875 0.324219 -2 0.414062 -2 C 0.503906 -2 0.582031 -1.96875 0.648438 -1.902344 C 0.710938 -1.835938 0.746094 -1.761719 0.746094 -1.671875 L 0.746094 -0.441406 C 0.746094 -0.230469 0.902344 -0.125 1.214844 -0.125 C 1.523438 -0.125 1.679688 -0.230469 1.679688 -0.441406 L 1.679688 -1.960938 L 1.859375 -1.960938 L 1.859375 -0.425781 M 0.585938 -1.671875 C 0.585938 -1.714844 0.570312 -1.753906 0.535156 -1.785156 C 0.503906 -1.820312 0.464844 -1.835938 0.417969 -1.835938 C 0.371094 -1.835938 0.332031 -1.820312 0.300781 -1.785156 C 0.265625 -1.753906 0.25 -1.714844 0.25 -1.671875 C 0.25 -1.625 0.265625 -1.585938 0.300781 -1.554688 C 0.332031 -1.519531 0.371094 -1.503906 0.417969 -1.503906 C 0.464844 -1.503906 0.503906 -1.519531 0.535156 -1.554688 C 0.570312 -1.585938 0.585938 -1.625 0.585938 -1.671875 Z "/>
</g>
<g id="glyph-0-1">
<path d="M 0.246094 -3.09375 C 0.242188 -2.867188 0.167969 -2.683594 0.0195312 -2.539062 C -0.125 -2.390625 -0.3125 -2.320312 -0.535156 -2.320312 C -0.726562 -2.320312 -0.882812 -2.359375 -1 -2.441406 C -1.117188 -2.519531 -1.175781 -2.625 -1.175781 -2.753906 C -1.175781 -2.839844 -1.144531 -2.917969 -1.078125 -2.980469 C -1.015625 -3.042969 -0.941406 -3.074219 -0.851562 -3.074219 C -0.765625 -3.074219 -0.691406 -3.042969 -0.625 -2.984375 C -0.5625 -2.921875 -0.53125 -2.847656 -0.53125 -2.761719 C -0.53125 -2.648438 -0.582031 -2.558594 -0.683594 -2.488281 C -0.636719 -2.480469 -0.578125 -2.476562 -0.5 -2.476562 C -0.335938 -2.476562 -0.203125 -2.542969 -0.09375 -2.671875 C 0 -2.785156 0.046875 -2.929688 0.0546875 -3.09375 L 0.246094 -3.09375 M -0.695312 -2.765625 C -0.695312 -2.816406 -0.710938 -2.855469 -0.742188 -2.886719 C -0.773438 -2.917969 -0.8125 -2.933594 -0.855469 -2.933594 C -0.898438 -2.933594 -0.9375 -2.917969 -0.96875 -2.886719 C -1.003906 -2.855469 -1.019531 -2.816406 -1.019531 -2.765625 C -1.019531 -2.71875 -1.003906 -2.679688 -0.96875 -2.652344 C -0.9375 -2.621094 -0.898438 -2.605469 -0.855469 -2.605469 C -0.8125 -2.605469 -0.773438 -2.621094 -0.742188 -2.652344 C -0.710938 -2.679688 -0.695312 -2.71875 -0.695312 -2.765625 Z "/>
</g>
<g id="glyph-0-2">
<path d="M 1.953125 0 L 1.734375 0 L 1.261719 -1.734375 L 0.785156 0 L 0.566406 0 L 0.566406 -1.375 C 0.523438 -1.351562 0.472656 -1.339844 0.414062 -1.339844 C 0.324219 -1.339844 0.246094 -1.371094 0.183594 -1.4375 C 0.117188 -1.503906 0.0859375 -1.578125 0.0859375 -1.671875 C 0.0859375 -1.761719 0.117188 -1.835938 0.183594 -1.902344 C 0.246094 -1.96875 0.324219 -2 0.414062 -2 C 0.503906 -2 0.582031 -1.96875 0.648438 -1.902344 C 0.710938 -1.835938 0.746094 -1.761719 0.746094 -1.671875 L 0.746094 -0.625 C 0.746094 -0.542969 0.738281 -0.425781 0.71875 -0.273438 C 0.742188 -0.386719 0.773438 -0.507812 0.808594 -0.640625 L 1.175781 -1.960938 L 1.34375 -1.960938 L 1.710938 -0.640625 C 1.746094 -0.507812 1.777344 -0.386719 1.800781 -0.273438 C 1.785156 -0.425781 1.773438 -0.542969 1.773438 -0.625 L 1.773438 -1.960938 L 1.953125 -1.960938 L 1.953125 0 M 0.585938 -1.671875 C 0.585938 -1.714844 0.570312 -1.753906 0.535156 -1.785156 C 0.503906 -1.820312 0.464844 -1.835938 0.417969 -1.835938 C 0.371094 -1.835938 0.332031 -1.820312 0.300781 -1.785156 C 0.265625 -1.753906 0.25 -1.714844 0.25 -1.671875 C 0.25 -1.625 0.265625 -1.585938 0.300781 -1.554688 C 0.332031 -1.519531 0.371094 -1.503906 0.417969 -1.503906 C 0.464844 -1.503906 0.503906 -1.519531 0.535156 -1.554688 C 0.570312 -1.585938 0.585938 -1.625 0.585938 -1.671875 Z "/>
</g>
</g>
</defs>
<g fill="rgb(34.509804%, 76.862745%, 86.666667%)" fill-opacity="1">
<use xlink:href="#glyph-0-0" x="30" y="24.219727"/>
<use xlink:href="#glyph-0-1" x="32" y="24.219727"/>
<use xlink:href="#glyph-0-2" x="32" y="24.219727"/>
</g>
</svg>
